<svg xmlns="http://www.w3.org/2000/svg" viewBox="0 0 97.76 166.11" xmlns:v="https://vecta.io/nano"><path d="M90.81 141.17c-.09 4.12-.35 8.17-.62 12.25-.12 1.78.28 3.64-.38 5.35l-16.95 3.79h-.31l-10.39-7.75.48-8.98 3.92 2.75c.47.34 1.24.28 1.34.35.04.03.03.56.5.88.5.35 4.51 3.45 4.76 3.15l.66-8.63c5.06-.86 10.39-2.59 15.43-3.32.58-.08 1.02-.23 1.55.18z" fill="#251802"/><path d="M75.65 25.25L58.94 28.5c-.32.25-.52 1.44-.58 1.9-.2 1.65-.23 3.76-.36 5.53-.03.46-.26 1.93.47 1.72l16.87-3.41c1.06 1.15 3.76 2.2 4.64 3.27.41.5.21.71.31 1.07l-16.98 3.45-.66 8.33c-.92-.25-4.64-3.73-5.26-3.1l-.31 8.68c-1.31-.21-3.37-2.7-4.82-3.09-.35-.15-.36-.87-.44-.94l.31-8.68c1.22.86 3.44 2.72 4.64 3.26.37.17.54.24.78-.15.21-.34.57-7.15.47-7.93-.04-.34-.05-.67-.3-.94L32.81 19.65l-1.1-.29-.62 8.37c-.36.44-3.96-3.15-4.95-2.79.07-.75-3.64-3.16-4.47-3.75-.42-.3-.94-.2-1.1-.28-.42-.24-.5-.54-.62-.62 1.08.04.86.19.93-.76l.32-7.14.43-.81c5.56-1.38 11.24-2.5 16.89-3.39.69-.11 1.52.08 2.28-.04 2.31-.34 7.48-2.06 9.4-1.28 8.4 6.22 17.27 11.87 25.45 18.36z" fill="#392a11"/><path d="M29.85 46.02l.31.93c.07.79-.31 1.52-.32 2.31v6.46c.06.26 3.74 2.4 4.34 3.01.12.13.6.81.62.93.26 1.31-.3 2.65-.32 3.86-.05 2.26-.54 4.16 1.11 5.74.82.78 2.66 1.62 3.24 2.18a7.56 7.56 0 0 1 .62 1.24c.4 2.44-.87 5.99-.25 8.15.27.93 3.82 3.23 4.89 3.63-.03.57.31.88.31.93l-.63 6.97c-.08.58.4 1.26-.6 1.09-.86-.63-4.08-2.21-4.48-3.1-.69-1.53.45-3.9.15-5.58-.67.04-4.44.75-4.59.98-.46.7.1 3.44-.88 3.92-4.93.72-10.01 2.37-14.89 3.07-.57.08-1.04.08-1.61.09l.31-8.37 5.26 3.41 1.24-25.57.93-11.01c.18-2.65.17-5.4.31-8.06.25-.26 4.73 2.51 4.95 2.79z" fill="#251802"/><path d="M19.95 29.28l.31.93-.62 8.06c-1.13.35-4.62-3.44-5.26-2.79l-2.47 44.47c.1 1.12 4.84 4.29 5.25 3.88l2.17-35.33c.58-.51 4.1 3.14 5.26 2.79-.25 3.66-.62 7.35-.93 11.01l-1.24 25.57-5.26-3.41-.31 8.37s-.13.19-.34.16c-.55-.09-4.57-2.85-4.77-3.25-.98-2.01.81-7.04-.12-9.18-.58-1.34-4.89-2.99-4.96-4.29L9.1 31.66l5.54-1.49c.18-1.32.25-2.66.35-3.99l4.95 3.1z" fill="#2e120b"/><path d="M81.21 114.82l-16.72 3.56c-.51 2.81-.64 5.91-.61 8.84h.46l16.55-3.41 5.26 4.03-16.98 3.45c-.27.33-.79 7.88-.61 8.43a.68.68 0 0 0 .72.52l16.56-3.42 4.96 3.58.27.34c.06.23-.28.39-.28.42-.53-.41-.97-.26-1.55-.18-5.04.73-10.36 2.46-15.43 3.32l-.66 8.63c-.25.3-4.26-2.79-4.76-3.15-.47-.33-.46-.85-.5-.88.45-2.59.51-5.49.55-8.15-.3-1.02-4.03-3.49-5.2-3.94l-.31-.62c.33-.86.56-2.34.62-3.26.05-.7.27-4.87.19-5.12-.25-.82-4.28-3.7-5.45-3.71-.04-.24-.35-.59-.31-.93.74-.23.58-.82.63-1.38.25-2.49.15-4.86.3-7.3l17.33-3.72c.93 1.47 4.26 2.66 4.95 4.03zM36.04 40.75c-.01.2.01.41 0 .62 0 .05-.3.34-.32.75l-.29 7.93 9.9-1.86c1.44 1.07 3.76 1.83 4.95 3.41-.06.01-.35.46-.83.55-1.23.23-8.26 1.35-8.62 1.92-.19 1.09-.88 8.06-.63 8.4.26.36.81.34 1.22.27l15.98-3.08c.36.05 3.52 2.26 4 2.66.39.33.72.58.95 1.06l-16.98 3.45-.66 8.48c-.05.74.48.51 1.05.43 5.29-.71 10.94-2.6 16.28-3.38.88.79 5.06 3.19 5.26 4.03l-16.88 3.39-.44.8c-.15 2.62-.16 5.28-.32 7.9.61.09 1.31-.02 1.92-.09 4.9-.54 10.48-2.47 15.41-3.32.96 1.59 4.07 2.47 4.64 4.03l-16.68 3.44c.07 1.49-1.09 7.8-.51 8.66.21.31.56.34.9.28l16.29-3.39c.27.75 4.7 2.93 4.95 4.03l-16.72 3.24c-.65.46-.55 6.05-.61 7.14-.03.56-.27 1.11-.31 1.7-1.92-.74-3.21-2.67-5.26-3.1-.25-.13-.22-.5-.31-.62.71-.22.6-.8.64-1.38.13-2.34.15-4.74.23-7.08-.26-.89-4.01-3.64-5.2-3.63-.03-.22-.36-.6-.31-.93.86-2.75.75-6.05.93-8.99-1.56-.23-3.46-2.89-5.26-3.1 0-.05-.34-.36-.31-.93 0-.04.3-.35.32-.75.09-1.92.69-6.16.23-7.71-.19-.64-4.12-3.58-5.2-3.32a7.56 7.56 0 0 0-.62-1.24c1.07.04.86.2.93-.76.18-2.44.35-4.94.24-7.39-.26-.89-4.02-3.65-5.2-3.63-.02-.12-.49-.8-.62-.93.76.17.83-.59.9-1.11.28-2.25-.01-5.01.28-7.36-.17-.54-4.23-3.46-5.2-3.31a10.14 10.14 0 0 0-.31-.93c1.21-2.59.27-5.62.93-8.37l5.26 3.1z" fill="#392a11"/><path d="M80.29 38.58c.07.24.51.58.33 1.05l-.68 7.59-5.53 1.28-11.14 1.86c-.73.63 3.72 2.65 3.4 3.72-2.43.52-7.05 1.85-9.28 1.86-.1 0-.21.02-.31 0l.31-8.68c.61-.63 4.34 2.85 5.26 3.1l.66-8.33 16.98-3.45zm-4.64-13.33l-.31 8.99-16.87 3.41c-.73.21-.51-1.26-.47-1.72l.36-5.53c.06-.46.26-1.65.58-1.9l16.71-3.25z" fill="#2e120b"/><path d="M62.34 63.37c.09.18.44.38.34.76l-.65 8.23c-5.34.77-10.99 2.67-16.28 3.38-.58.08-1.1.31-1.05-.43l.66-8.48 16.98-3.45zm23.83 64.47l-.31 8.99-16.56 3.42c-.37 0-.61-.16-.72-.52-.18-.56.35-8.11.61-8.43l16.98-3.45zM67.29 76.39c.5 2.07-.89 6.25-.31 8.68-4.93.86-10.5 2.78-15.41 3.32-.61.07-1.31.18-1.92.09.16-2.61.16-5.28.32-7.9l.44-.8 16.88-3.39zm4.33 12.71c1.02 2.79-.74 6.92 0 8.99l-16.29 3.39c-.34.06-.69.03-.9-.28-.58-.86.58-7.17.51-8.66l16.68-3.44zm4.95 13.02l-.31 8.68-17.33 3.72v-.31c.04-.59.27-1.14.31-1.7.06-1.09-.04-6.68.61-7.14l16.72-3.24zm4.34 21.69l-16.55 3.42h-.46c-.02-2.94.1-6.04.61-8.85l16.72-3.56c1.07 2.12-.89 6.44-.31 8.99zm-29.09-71.9c.08.07.09.79.44.94 1.45.39 3.51 2.88 4.82 3.09.1.02.21 0 .31 0v3.72l-15.98 3.08c-.41.07-.95.09-1.22-.27-.25-.34.44-7.31.63-8.4.36-.57 7.39-1.69 8.62-1.92.48-.09.77-.53.83-.55.21-.05 1.45.22 1.55.31z" fill="#251802"/><path d="M38.52 8.2c-5.65.89-11.32 2-16.89 3.39l-.43.81c-.11 2.36-.13 4.78-.32 7.14-.07.95.15.8-.93.76-1.35-.92-2.76-2.88-4.64-2.79.02-.41.27-.89.31-1.39.09-1.43-.04-7.29.59-8.1l.57-.35 16.01-3.2c1.47.07 4.43 2.8 5.73 3.74zm29.39 140.72c-.1-.07-.87-.02-1.34-.35l-3.92-2.75c-.07-.05-.25-.02-.31-.16 0-.15-.02-.31 0-.46.08-.68.55-1.75.61-2.64.14-1.91-.15-3.83.31-5.73 1.17.45 4.89 2.91 5.2 3.94l-.55 8.15zM49.65 88.48c-.18 2.93-.07 6.24-.93 8.99-1.78-.92-3.35-2.24-4.95-3.41-.3-.22-.48-.52-.62-.62 1 .17.53-.51.6-1.09l.63-6.97c1.8.21 3.7 2.87 5.26 3.1zm9.29 25.72v.31l-.3 7.3c-.06.56.11 1.16-.63 1.38-1.67-.62-3.08-2.76-4.95-2.79v-1.24c0-.05.3-.35.32-.75l.3-7.31c2.05.43 3.34 2.36 5.26 3.1zm4.02 22.01c-1.72-.6-3-2.84-4.95-2.79 0-.12-.33-.58-.31-.93.06-1.07.57-2.75.62-3.88.05-1.21.18-3.39 0-4.49 1.17.01 5.2 2.89 5.45 3.71.08.25-.15 4.42-.19 5.12-.06.91-.29 2.4-.62 3.26zm-9.59-25.72c-.48-.67-3.67-2.7-4.64-3.41-.59-.43-.57-.59-.62-.62l.64-1.38c-.48-2.02.53-4.89.29-6.68 1.18-.02 4.93 2.73 5.2 3.63l-.23 7.08c-.03.58.07 1.16-.64 1.38z" fill="#62491d"/><path d="M43.78 94.06c1.6 1.17 3.17 2.49 4.95 3.41-.05.33.28.71.31.93.24 1.79-.77 4.66-.29 6.68l-.64 1.38c-1.02-.74-4.55-2.39-4.9-3.64l.57-8.76zm19.18 42.15l.31.62c-.46 1.9-.18 3.82-.31 5.73-.06.89-.54 1.96-.61 2.64l-4.9-3.3c-.07-2.83.42-5.67.57-8.47 1.95-.05 3.23 2.19 4.95 2.79zm-9.9-15.81c1.87.03 3.28 2.17 4.95 2.79-.04.34.27.69.31.93.18 1.1.05 3.28 0 4.49-.05 1.13-.56 2.81-.62 3.88l-4.89-3.62.25-8.47zm-4.33-13.32c.97.71 4.16 2.74 4.64 3.41.09.12.06.49.31.62l-.3 7.31c-.02.4-.32.71-.32.75-.85.22-4.78-2.64-4.9-3-.68-2.01.44-6.84.57-9.09zM19.95 20.29c.11.08.2.38.62.62.01 2.8.12 5.64-.62 8.37L15 26.18l.31-8.68c1.88-.09 3.29 1.87 4.64 2.79zM74.41 48.5c-.15.99.35 3.23-.3 3.88-.55.55-6.2 1.43-7.44 1.7.31-1.07-4.13-3.09-3.4-3.72l11.14-1.86z" fill="#251802"/><path d="M52.13 43.23L37.09 32.41l-.74.75-.31 7.59-5.26-3.1c-.66 2.75.28 5.77-.93 8.37-.22-.28-4.7-3.05-4.95-2.79l-.31 8.06c-1.16.35-4.68-3.3-5.26-2.79l-2.17 35.33c-.41.4-5.15-2.76-5.25-3.88l2.47-44.47c.63-.65 4.12 3.14 5.26 2.79l.62-8.06c1.18-.31 4.63 3.44 5.26 2.79-.1-2.55.26-5.04.32-7.6.01-.48.3-.43.3-.46.99-.36 4.58 3.23 4.95 2.79l.62-8.37 1.1.29 24.91 17.82c.26.27.26.59.3.94.1.77-.26 7.59-.47 7.93-.24.39-.41.32-.78.15-1.2-.54-3.42-2.4-4.64-3.26z" fill="#ee7c55"/><path d="M26.14 24.94s-.29-.02-.3.46l-.32 7.6c-.63.65-4.08-3.1-5.26-2.79l-.31-.93c.74-2.72.63-5.57.62-8.37.15.09.67-.02 1.1.28.83.59 4.54 3 4.47 3.75zm8.66 34.71c1.18-.02 4.94 2.74 5.2 3.63.1 2.45-.06 4.95-.24 7.39-.07.95.14.8-.93.76-.57-.56-2.42-1.4-3.24-2.18-1.65-1.58-1.15-3.47-1.11-5.74.02-1.21.59-2.55.32-3.86zm-4.64-12.7c.97-.14 5.03 2.77 5.2 3.31-.29 2.34 0 5.11-.28 7.36-.06.52-.13 1.28-.9 1.11-.59-.6-4.28-2.75-4.34-3.01v-6.46c0-.79.4-1.53.32-2.31zm13.92 37.5c-1.06-.4-4.62-2.7-4.89-3.63-.63-2.16.65-5.7.25-8.15 1.07-.26 5.01 2.68 5.2 3.32.46 1.56-.14 5.79-.23 7.71-.02.4-.32.7-.32.75z" fill="#62491d"/><path d="M52.13,43.23l-.31,8.68c-.1-.09-1.33-.36-1.55-.31-1.19-1.58-3.51-2.34-4.95-3.41-.03-.02.04-.4-.1-.51-2.92-2.18-5.94-4.71-9.18-6.31.01-.21-.01-.41,0-.62.17-2.51.18-5.08.31-7.59l.74-.75c5.08,3.52,10,7.26,15.04,10.82Z" fill="#2e120b"/><path d="M36.04,41.37c3.24,1.61,6.26,4.13,9.18,6.31.14.11.07.48.1.51l-9.9,1.86c.18-2.63.14-5.31.29-7.93.02-.41.32-.7.32-.75Z" fill="#251802"/></svg>