<svg xmlns="http://www.w3.org/2000/svg" viewBox="0 0 97.76 166.11" xmlns:v="https://vecta.io/nano"><path d="M89.1,141.48h.31v3.1c-.71,1.84-.5,3.99-.62,5.89l-13.3,2.79c-.13-.06-.22-.27-.31-.31l.62-8.68,13.3-2.79Z" fill="#251902"/><path d="M88.79 150.47l-.62 9.3-13.3 2.79h-.31c.03-.19-.05-.46 0-.62.43-1.39.36-8.26.93-8.68l13.3-2.79z" fill="#010a07"/><path d="M22.58 28.97v.62l-.62 8.37c-.95-.1-4.74-3.63-5.26-3.1-.26 2.98-.13 6.02-.31 8.99-.09 1.58-.62 4.18-.62 5.73v5.27c0 2.22-.49 5.22-.62 7.59l-.62 8.99-.25 8.46c.23.8 4.75 4.06 5.19 3.63l.62-8.68.31-9.61c.01-.19.29-.61.31-1.07l.67-15.77c.12-.31.36-.59.71-.51.27.06 3.83 2.95 4.49 3.4l-1.86 35.95c-.61.63-4.76-3.68-5.26-3.1l-.31 8.37c-.1 0-.15.39-.82.09-.35-.16-4.17-2.95-4.29-3.19-.95-1.96.71-6.93.02-9.01-.48-1.45-4.9-3.14-5.04-4.51l2.4-44.28c.33-1.71 4.13-1.34 5.52-2.06-.07-1.26.26-2.45.35-3.68l5.26 3.1z" fill="#061915"/><path d="M31.87 54.7v.31l-.26 9.09 4.9 3.61v.31c-.11 3.03-.59 6.24-.02 9.17.71.38 1.35 1.27 1.88 1.68l-.32 6.19c-.71.04-5.04.78-5.21.98-.33.41-.09 3.36-.65 3.84-.62.53-11.49 2.53-13 2.63l.31-8.37c.5-.58 4.65 3.72 5.26 3.1l1.86-35.95c.07.05.24-.05.31 0 1.63 1.14 3.17 2.51 4.95 3.41z" fill="#010a07"/><path d="M73.94,25.25l-12.99,2.48c-.72-.04-1.2-.52-1.77-.86-7.01-4.26-14.99-10.49-21.71-15.44-.78-.57-2.21-1.41-2.5-2.3.64-.22,1.37-.22,1.86-.62.1-.02.21.02.31,0,3.67-.63,7.38-1.69,11.04-1.94,7.72,5.72,16.15,10.98,23.71,16.88.67.53,1.66,1.07,2.07,1.8Z" fill="#11312a"/><path d="M78.89,38.89c.11.92-.3,1.74-.32,2.62-.03,1.29.3,4.7-.32,5.57-.23.33-4.72,1.56-5.55,1.73-.05.01-.39-.27-.71-.21-2.13.42-4.22,1.05-6.41,1.14-.15,1.86,2.8,1.98,3.1,3.72-2.36.51-7.43,2.13-9.59,1.86l.31-8.68c1.24-.34,4.95,3.73,5.57,3.1-.02-2.73.11-5.6.61-8.22l13.31-2.62Z" fill="#03211b"/><path d="M34.96 9.13c.29.89 1.72 1.73 2.5 2.3 6.73 4.94 14.7 11.17 21.71 15.44.57.35 1.05.83 1.77.86-.85 2.03-.55 4.22-.62 6.35-.04 1.29-.59 1.38 0 2.95.06.16-.13.37.2.64.45.36 3.4 1.82 3.93 1.82 1.89-.01 8.95-1.66 11.09-2.25.52-.14 1.01-.08.86-.83.05.04.33-.05.51.1.58.48 1.88 1.7 1.96 2.38l-13.31 2.62c-.5 2.62-.64 5.49-.61 8.22-.62.63-4.33-3.43-5.57-3.1l-.31 8.68c-1.34-.17-1.71-1.49-3.09-1.24-.14-.77-1.51-1.99-2.17-2.48.15-2.98.14-6.01.31-8.99.8.39 5.05 3.94 5.57 3.41-.2-2.47.92-6.46.25-8.77-.3-1.03-3.92-2.92-4.89-3.63l-4.64-3.41-11.45-8.37c-.72-.5-4.74-3.63-5.26-3.1l-.31 8.37c-1.55-1.16-3.52-2.22-5.26-3.1.01-.21-.01-.41 0-.62.19-2.98.51-6 .62-8.99.64.08 4.99-.71 5.2-1 .45-.61.35-3.23.36-4.09.05-.37.46-.13.63-.18z" fill="#0b342c"/><path d="M73.94,25.25c.06.1.29.16.31.46l-.62,8.52-13.3,2.79c-.6-1.56-.04-1.66,0-2.95.07-2.13-.23-4.33.62-6.35l12.99-2.48Z" fill="#03211b"/><path d="M79.51 115.44c.99 2.05-.55 6.52 0 8.99l-12.99 2.79c-.15-.26-.51-.08-.64-1.06-.32-2.43.73-5.38.33-7.93l13.3-2.79zM60.64 63.68c1.01 2.51-.6 6.07 0 8.68-4.13 1.65-8.76 1.72-12.99 3.1-.21-.08-.41-.24-.62-.31l.31-8.99 13.3-2.48zm9.59 26.04c.03.08.27.15.27.44l-.58 8.24c-4.22 1.25-8.65 1.96-12.99 2.79-.03-.04-.77.17-.65-.45l.65-8.22 13.3-2.79zm14.23 38.74l-.31 8.99-12.99 2.79c-.21-.07-.41-.24-.62-.31l.62-8.68 13.3-2.79zM65.59 76.7l-.31 8.99-12.99 2.79c-.06-.09-.44-.12-.56-.51l.56-8.79c4.46-.68 8.82-2.05 13.3-2.48zm8.97 34.72l-12.99 2.79c-1.05-2.61.36-6.03 0-8.68l13.3-3.1c.59 1.22.02 1.3 0 2.33-.03 2.24.06 4.44-.31 6.66z" fill="#251902"/><path d="M17.64 16.88l.61-9.15.52-.72 12.92-2.53c1.02.13 3.66 2.37 4.67 3.11.37.27.92.22.77.92-.1.02-.21-.02-.31 0-4.06.7-8.36 1.1-12.37 2.17-.19.05-.44 0-.63.14-.68.57-.51 7.1-.6 8.41-.03.4-.32.7-.32.75-1.66-1.01-3.2-3.04-5.26-3.1z" fill="#62491e"/><path d="M53.83,51.6c.65.48,2.02,1.71,2.17,2.48.19,1.03,0,4.24-.31,5.27-.04.14-.36.54-.55.61l-12.13,2.49c-.14-.24-.51-.08-.64-1.06-.33-2.57.59-5.33.33-7.93,2.71-.75,5.52-1.12,8.25-1.8.51-.13,1.14.02,1.34-.68.29.21,1.26.41,1.55.62Z" fill="#251902"/><path d="M64.66 146.44c1.85-.39 3.04 1.65 4.25 2.48.33.23.85.19 1.01.3 1.79 1.25 3.26 2.75 5.26 3.72.09.04.18.25.31.31-.57.42-.5 7.29-.93 8.68-.63.09-.99-.24-1.47-.54-1.02-.64-8.37-6.09-8.58-6.59-.84-2 .43-6.12.15-8.36zm-18.87-62.3c.14.17.59.79.62.93.41 2.03-.73 6.11-.49 8.4.13.73 3.96 3.17 4.82 3.69-.04.34.27.69.31.93.4 2.49-.58 5.32-.3 7.86-.09.32-.6.17-.62.2-.84-.44-4.2-2.5-4.49-3.1-.9-1.84.77-6.77.09-9.08-.3-1.04-4.01-2.91-4.89-3.85-.49-2.71.69-6.25.31-8.77 1.28.14 3.84 1.86 4.64 2.79z" fill="#191308"/><path d="M84.15 137.45c1.33 1.12 2.78 2.09 4.18 3.11.37.27.92.22.77.92l-13.3 2.79-4.64-3.72v-.31l12.99-2.79zm-4.64-13.02l4.95 4.03-13.3 2.79c-1.13-1.1-3.15-2.04-4.19-3.1-.39-.4-.3-.68-.45-.93l12.99-2.79zm-4.64-22l-13.3 3.1c-.02-.17.07-.35-.06-.55-.25-.35-3.4-2.2-4.13-2.86-.4-.36-.35-.8-.45-.93 4.34-.83 8.77-1.54 12.99-2.79 1.11 1.43 4.24 2.58 4.95 4.03zm4.64 13.01l-13.3 2.79c-1.16-1.56-3.94-2.29-4.64-4.03l12.99-2.79c1.15 1.17 4.29 2.66 4.95 4.03zM65.28 85.69c1.3 1.17 4.38 2.49 4.95 4.03l-13.3 2.79c-1.37-1.63-3.39-2.23-4.64-4.03l12.99-2.79zm-4.64-13.33c.3 1.29 4.31 2.9 4.95 4.34-4.48.43-8.85 1.8-13.3 2.48-1.7-.81-3.3-2.1-4.64-3.41v-.31c4.24-1.38 8.87-1.45 12.99-3.1zm0-8.68l-13.3 2.48c-1.67-1.26-3.29-1.88-4.33-3.72l12.13-2.49c.19-.06.51-.47.55-.61 1.05 1.74 4.25 2.6 4.95 4.34z" fill="#372914"/><path d="M70.54,139.93c.21.07.41.24.62.31v.31l-.63.2-.61,8.48c-.16-.11-.69-.08-1.01-.3-1.21-.84-2.4-2.88-4.25-2.48-.05-.38-.37-1.32-.62-1.55.8.23.85-.98.89-1.43.19-2.19-.1-4.44.35-6.63.16.11.68.12,1.02.36,1.19.83,2.94,2.31,4.24,2.74Z" fill="#8e6c2a"/><path d="M47.02 75.15c.21.07.41.23.62.31v.31c-.23-.03-.56-.1-.63.2-.47 2-.13 4.69-.34 6.74-.05.45-.09 1.65-.89 1.43-.8-.92-3.36-2.65-4.64-2.79-.06-.42-.32-.95-.62-1.24.76.17.83-.59.9-1.11.27-2.21-.19-4.67.34-6.95 2.03.54 3.27 2.43 5.26 3.1zm9.59 35.96c-.26-.06-.64.04-.93 0-.03-.28.11-.56-.07-.85-.19-.32-4.37-3.4-5.19-2.87-.01-.46-.35-1.19-.31-1.24.02-.03.54.12.62-.2-.28-2.54.71-5.37.3-7.86.97-.15 5.04 2.78 5.2 3.31.66 3.16-1.23 6.88.37 9.7z" fill="#62491e"/><path d="M55.38,119.47c1.13.83,2.52,2.18,3.63,3.11.29.24.92.22,1.01.3.04.03.3.85.31.93.22,1.52.02,4.09.01,5.75,0,1.42-.67,2.31.3,3.86-.2-.02-.42.02-.62,0-.28-1.87-4.32-3.16-5.19-4.87-.04-2.98.61-6.14.24-9.08.07.05.24-.05.31,0Z" fill="#1d170c"/><path d="M50.43 107.39c.82-.53 5 2.55 5.19 2.87.17.29.04.57.07.85.26 2.8-.47 5.57-.31 8.37-.07-.05-.24.05-.31 0l-4.9-3.62c-.07-2.84.32-5.62.26-8.47zM22.89 19.98v.62l-.31 8.37-5.26-3.1.31-8.99c2.06.06 3.6 2.09 5.26 3.1zm37.75 113.44c1.12.14 3 1.76 4.02 2.48.09.06.21.65.62.93-.45 2.19-.15 4.44-.35 6.63-.04.45-.09 1.66-.89 1.43-.79-.73-3.06-1.64-3.99-2.66-.21-.23-.43-.42-.52-.74l.5-8.07c.2.02.42-.02.62 0zM41.46 71.43l.31.62c-.53 2.28-.07 4.74-.34 6.95-.06.52-.13 1.28-.9 1.11-.4-.39-1.65-.84-2.17-1.24s-1.17-1.3-1.88-1.68c-.57-2.93-.09-6.14.02-9.17l4.95 3.41z" fill="#191308"/><path d="M76.41,36.41c.15.75-.33.69-.86.83-2.14.58-9.2,2.23-11.09,2.25-.53,0-3.48-1.46-3.93-1.82-.33-.26-.14-.48-.2-.64l13.3-2.79c.99.65,1.87,1.43,2.78,2.17Z" fill="#11312a"/><path d="M72.7,48.81c-.11.66.16,3.83-.02,4.01-.14.15-3.41.5-4.01.63-.3-1.73-3.25-1.86-3.1-3.72,2.19-.08,4.28-.72,6.41-1.14.31-.06.65.22.71.21Z" fill="#010a07"/><path d="M71.15,140.55l4.64,3.72-.62,8.68c-2-.97-3.47-2.47-5.26-3.72l.61-8.48.63-.2Z" fill="#3a2b10"/><path d="M50.43 30.21c-1.11-.04-.84-.18-.93.76l-.31 7.91c-2.7-1.94-5.63-4.24-8.38-6.02-.31-.2-1.99-1.29-2.14-1.11-.13 2.78-.44 5.59-.62 8.37l-5.26-3.1c0-.38-.14-.7-.45-.93-.45-.33-4.6-3.33-4.81-3.09.38 2.81-.66 5.77-.34 8.54 0 .06.6 1.02.64 1.07-1-.17-.53.51-.6 1.09-.34 2.55-.4 5.01-.32 7.59-.07-.05-.24.05-.31 0-.66-.46-4.22-3.34-4.49-3.4-.36-.08-.6.2-.71.51l-.67 15.77c-.03.46-.3.88-.31 1.07-1.96-.49-3.18-2.85-5.26-2.79.13-2.38.62-5.37.62-7.59v-5.27c0-1.55.52-4.15.62-5.73.71.28 4.83 3.88 5.26 3.41.03-3.09.15-6.21.31-9.3.15-2.78.47-5.64.62-8.37.88-.18 4.74 3.31 4.95 3.1.45-2.86.43-5.79.62-8.68 1.74.88 3.71 1.94 5.26 3.1.05.04.11.79.49.89l4.77 3.14.31-9.3c3.88 2.68 7.63 5.59 11.45 8.37z" fill="#2dc4a9"/><path d="M14.54 71.43l1.6.41 3.97 3-.62 8.68c-.44.43-4.96-2.83-5.19-3.63l.25-8.46z" fill="#31e5c6"/><path d="M21.97 37.96l-.31 9.3c-.43.48-4.55-3.13-5.26-3.41l.31-8.99c.52-.53 4.31 2.99 5.26 3.1zm-1.55 27.27l-.31 9.61-3.97-3-1.6-.41.62-8.99c2.08-.06 3.3 2.3 5.26 2.79z" fill="#2fd4b7"/><path d="M28.15 23.39v.62l-.62 8.68c-.21.21-4.06-3.28-4.95-3.1v-.62l.31-8.37c2.08-.06 3.3 2.3 5.26 2.79zm13.31 48.04l-4.95-3.41v-.31c.09-2.53.72-6.34.31-8.68 1.28.13 5.22 2.92 5.52 3.94-.48 2.81.14 5.75-.88 8.45z" fill="#8e6c2a"/><path d="M37.43 49.43v.62l-.3 6.99c-.06.56.11 1.16-.63 1.38-.79-1.08-3.61-2.32-4.64-3.41v-.31l.31-8.68c1.66.13 3.95 3.02 5.26 3.41z" fill="#62491e"/><path d="M36.51 58.42c.09.12.29.5.31.62.41 2.34-.22 6.15-.31 8.68l-4.9-3.61c-.21-3.04.15-6.06.26-9.09 1.03 1.09 3.85 2.33 4.64 3.41zm-8.67-15.81c1.06 1.17 3.16 1.93 4.33 3.1v.31l-.31 8.68c-1.78-.9-3.32-2.27-4.95-3.41-.08-2.58-.02-5.04.32-7.59.08-.58-.4-1.26.6-1.09z" fill="#191308"/><path d="M36.82,8.51c-.49.4-1.21.4-1.86.62-.17.06-.58-.19-.63.18,0,.86.09,3.48-.36,4.09-.21.29-4.56,1.08-5.2,1s-4.55-2.61-4.33-3.72c4.02-1.07,8.31-1.47,12.37-2.17Z" fill="#372914"/><path d="M49.19 38.89c1.58 1.14 3.11 2.66 4.95 3.41v.31l-.31 8.99c-.29-.21-1.26-.41-1.55-.62l-4.64-3.41c-.13-.09-.29-.52-.62-.76-2.97-2.14-6.12-4.06-8.97-6.37v-.31l.62-8.37c.15-.18 1.83.91 2.14 1.11 2.75 1.77 5.68 4.08 8.38 6.02z" fill="#061915"/><path d="M55.07 33.62c.96.71 4.58 2.6 4.89 3.63.67 2.3-.45 6.3-.25 8.77-.51.53-4.77-3.01-5.57-3.41v-.31c.03-.59.27-1.14.31-1.7.13-2.33-.18-4.72.62-6.97z" fill="#31e5c6"/><path d="M47.64 75.77c1.34 1.3 2.94 2.6 4.64 3.41l-.56 8.79c.12.39.49.42.56.51 1.25 1.8 3.27 2.4 4.64 4.03l-.65 8.22c-.12.63.62.42.65.45.1.13.05.57.45.93.73.66 3.88 2.51 4.13 2.86.14.19.04.38.06.55.36 2.65-1.05 6.07 0 8.68.7 1.74 3.48 2.46 4.64 4.03.41 2.55-.64 5.5-.33 7.93.13.98.48.8.64 1.06s.06.53.45.93c1.04 1.06 3.06 2 4.19 3.1l-.62 8.68c-1.3-.43-3.04-1.91-4.24-2.74-.35-.24-.87-.25-1.02-.36-.41-.28-.53-.86-.62-.93.81.28.86-1.68.89-2.05l.29-6.09c-.27-.92-4.31-3.81-5.51-3.94-.01-.08-.27-.9-.31-.93 1 .17.53-.51.6-1.09.23-1.74.7-5.85.26-7.37-.18-.61-3.64-3.18-4.27-3.32-1.6-2.82.29-6.54-.37-9.7-.16-.53-4.23-3.46-5.2-3.31-.04-.24-.35-.59-.31-.93.7-.22.61-.8.64-1.38l.3-7.39c-1.65-1.09-3.26-3.02-5.26-3.32-.03-.14-.47-.76-.62-.93.8.23.84-.97.89-1.43.2-2.05-.13-4.74.34-6.74.07-.3.4-.23.63-.2zm-4.95-22.31c.27 2.6-.65 5.36-.33 7.93.12.98.5.82.64 1.06 1.04 1.84 2.66 2.46 4.33 3.72l-.31 8.99c-1.99-.67-3.23-2.56-5.26-3.1l-.31-.62c1.02-2.7.4-5.64.88-8.45-.29-1.03-4.24-3.81-5.52-3.94-.02-.12-.22-.5-.31-.62.74-.23.58-.82.63-1.38.23-2.34.3-4.64.3-6.99.9-.1 5.17 3.03 5.26 3.41zM24.44 10.68c-.22 1.11 3.7 3.64 4.33 3.72l-.62 8.99c-1.96-.49-3.18-2.85-5.26-2.79v-.62c0-.04.3-.34.32-.75.09-1.31-.08-7.84.6-8.41.19-.14.44-.09.63-.14z" fill="#3a2b10"/><path d="M47.64 47.57l4.64 3.41c-.2.7-.83.55-1.34.68l-8.25 1.8c-.09-.38-4.36-3.51-5.26-3.41v-.62c.08.02.2 0 .31 0 2.81.16 6.95-1.74 9.9-1.86z" fill="#372914"/><path d="M46.41 85.07c2.01.3 3.61 2.23 5.26 3.32l-.3 7.39c-.03.58.07 1.16-.64 1.38-.86-.52-4.69-2.96-4.82-3.69-.24-2.29.9-6.37.49-8.4zm10.2 26.04c.62.14 4.09 2.71 4.27 3.32.44 1.53-.03 5.64-.26 7.37-.08.58.4 1.26-.6 1.09-.1-.09-.72-.06-1.01-.3l-3.63-3.11c-.16-2.8.57-5.57.31-8.37.29.04.66-.06.93 0z" fill="#8e6c2a"/><path d="M60.33,123.81c1.2.13,5.24,3.02,5.51,3.94.11.38-.23,5.22-.29,6.09-.03.37-.08,2.34-.89,2.05-1.03-.72-2.91-2.34-4.02-2.48-.96-1.55-.31-2.44-.3-3.86.01-1.66.21-4.23-.01-5.75Z" fill="#62491e"/><path d="M38.98 21.84l-.31 9.3L33.9 28c-.38-.1-.44-.85-.49-.89l.31-8.37c.51-.53 4.53 2.6 5.26 3.1zm-6.19 15.19v4.49c-.08 1.26-.54 2.97-.62 4.19-1.17-1.17-3.27-1.93-4.33-3.1-.04-.05-.64-1-.64-1.07-.33-2.77.71-5.73.34-8.54.2-.24 4.36 2.76 4.81 3.09.31.23.44.55.45.93zm17.64-6.82l4.64 3.41c-.8 2.25-.49 4.65-.62 6.97-.03.56-.27 1.11-.31 1.7-1.84-.75-3.37-2.27-4.95-3.41-.11-2.66.08-5.27.31-7.91.08-.94-.19-.81.93-.76z" fill="#2fd4b7"/><path d="M38.05 40.13v.31l-.31 8.99c-.11 0-.23.02-.31 0-1.31-.39-3.6-3.28-5.26-3.41v-.31c.08-1.22.54-2.93.62-4.19.09-1.49-.06-3 0-4.49l5.26 3.1z" fill="#3a2b10"/><path d="M47.64,47.57c-2.95.12-7.09,2.02-9.9,1.86-.02-2.99.13-6,.31-8.99,2.85,2.31,5.99,4.24,8.97,6.37.33.24.49.66.62.76Z" fill="#251902"/></svg>