<svg xmlns="http://www.w3.org/2000/svg" viewBox="0 0 97.76 166.11" xmlns:v="https://vecta.io/nano"><path d="M90.08,149.43c-.08,1.38-.22,8.55-.81,8.96l-16.72,3.67h-.31v-.31c.45-2.91.44-5.97.61-8.93l17.22-3.39Z" fill="#0c0802"/><path d="M20.59 29.62c-.17.83-.26 1.62-.31 2.46l-.31 6.47c-1.17.31-4.61-3.42-5.23-2.77-.39 2.86-.14 5.77-.31 8.62-.09 1.46-.61 3.96-.61 5.39v5.24c0 2.31-.48 5.38-.61 7.85l-.31 8.62c-.09 1.93-.55 4.33-.63 6.3-.04.9-.14 2.46.41 3.16.36.45 4.45 3.22 4.82 2.86l.62-8.32.31-9.55c.02-.4.28-.88.3-1.38.29-5.29.51-10.6.62-15.87.62-.49 4.24 2.73 5.07 3.08l.46-1.23c-.02.41.02.82 0 1.23-.39 6.59-1.16 13.47-1.53 20.18-.29 5.17-.35 10.38-.62 15.55-.72.74-4.77-3.61-5.22-3.08.04 2.71-.75 5.65-.31 8.31-.09 0-.11.37-.81.09-.43-.18-4.15-2.92-4.27-3.16-.98-1.99.8-7-.12-9.12-.57-1.3-4.86-2.92-4.92-4.26-.02-.4.29-.99.3-1.55.17-14.04 1.86-28.13 2.15-42.2.32-1.87 4.44-1.12 5.25-2.13.3-.38.53-2.86.58-3.57 1.91.35 3.27 2.77 5.23 2.77z" fill="#30220a"/><path d="M32.89 10.52C41.02 17.16 50.08 22.61 58.41 29c-.13 2.95-.63 6.04-.31 8.93.27.58 3.55 2.76 4.14 2.8 4.79-1.19 10.22-1.65 14.93-2.95.5-.14 1.02-.22 1.22-.78.05.04.36-.06.52.09 1.42 1.35 1.82 3.26 1.02 5.15-.01-.92.11-2.07 0-2.93-.06-.45.17-.51-.44-.44-5.14.62-10.65 2.52-15.85 3.23l-.56.67c.21.81-.37 2.2-.37 2.71v4.77c-1.32.61-4.76-3.56-5.53-2.77.09 2.43-.22 4.83-.31 7.25-.02.59.31 1.23-.62 1.06-1.19-.8-2.38-1.6-3.53-2.47-.39-.29-1.01-1.19-1.09-1.22l.31-8.32c1.14-.21 4.86 3.77 5.53 3.08-.26-2.49.93-6.39.25-8.71-.3-1.02-3.9-2.9-4.86-3.61-1.72-1.26-3.53-2.47-5.23-3.7l-10.76-7.7c-.65-.45-4.64-3.99-5.23-3.39l-.31 8.31c-1.45-1.05-3.65-2.12-5.23-3.08.01-.2-.01-.41 0-.62.08-1.35.27-8.16.69-8.56.15-.14.44-.02.54-.06.16.63 4.4 3.63 4.61 3.39.05-1.53-.06-3.09 0-4.62.05-1.28.08-2.53.31-3.79.05-.4.5-.15.62-.21z" fill="#876217"/><path d="M29.82 55.18l4.61 3.7c.12.09.18.7.61.92l-.63 6.61c-.27.84.35 1.97.32 2.63 0 .04-.3.36-.32.75-.1 2.57-.44 5.1-.24 7.67l4.87 3.28c.02.1.51.82.61.92-.56.68-.85 2.19-.92 3.08-1.34.43-3.02.36-4.3.62-.43.09-.93.42-1.47.53-1.31.26-9.53 1.61-9.91 1.94-.5.44.2.55.39.7.98.77 2.37 1.19 2.99 2.38-3.03.64-6.1 1.78-9.22 1.85-.44-2.66.35-5.61.31-8.31.45-.54 4.51 3.82 5.22 3.08l.62-15.55c.38-6.71 1.15-13.59 1.53-20.18.93 1.34 2.58 2.08 3.9 3.04.34.24.88.25 1.02.35z" fill="#1b1102"/><path d="M75.32 27.77c-.02-.57.34-2.31-.46-2.16L58.41 29c-8.33-6.39-17.39-11.84-25.52-18.48 1.45-.75 2.27-.59 3.69-.92 1.14-.27.37-.23 1.98-.32.71-.04 1.12-.54 1.41-.6 2.04-.43 7.46-1.77 9.13-1.76.22 0 .42 0 .61.14l24.84 17.65c1.01.64 1.6 1.98.78 3.07z" fill="#7a5a1f"/><path d="M56.26 55.8c.93.17.59-.47.62-1.06l.31-7.25c.77-.79 4.21 3.38 5.53 2.77v-4.77c0-.51.58-1.91.37-2.71l.56-.67c5.19-.71 10.71-2.61 15.85-3.23.61-.07.38-.02.44.44.11.87-.01 2.01 0 2.93.01 1.16.16 2.8.02 3.87 0 .07-.66 1.22-.71 1.27-.38.39-3.08.76-3.87.92-.47.1-1.1.7-1.28.71s-.71-.41-1.33-.29c-3.14.63-6.23 1.55-9.43 1.83-.84.83 3.38 3.09 4 3.39-3.27.72-6.66 1.51-9.84 2.46-.03-.06-.9-.4-1.23-.62z" fill="#614507"/><path d="M76.55 102l-.61 8.62c-5.36 1.69-11.11 2.35-16.6 3.7-1.11-2.75.59-6.96 0-8.93L76.56 102zM62.1 63.5c.97 2.66-.6 5.99 0 8.62l-16.6 3.7c-.15-.26-.5-.08-.63-1.05-.31-2.34.76-5.39.32-7.88L62.1 63.5zm23.68 64.06l-.31 8.93-16.6 3.39h-.31c-.5-2.75.02-6.1.31-8.93l16.91-3.39zm-4.92-4c-5.71 1.21-11.43 2.74-17.22 3.39l.31-8.62 16.91-3.7c1 1.83-.55 6.63 0 8.93zM67.02 76.43c.37 2.79-.53 5.81-.31 8.62l-16.6 3.7c-.06-.09-.44-.12-.55-.51l.55-8.42 16.91-3.39zm4.61 12.63l-.31 8.93-16.91 3.39c.05-.24-.16-.22-.31-.31l.61-8.32 16.91-3.7zm18.76 51.74l-.31 8.62-17.22 3.39v-.31l.61-8.62c5.07-.83 10.32-2.53 15.37-3.26.58-.08 1.02-.23 1.54.18z" fill="#251802"/><path d="M58.41,29l16.45-3.39c.8-.15.44,1.59.46,2.16.06,2.19-.23,4.3-.31,6.47l-16.91,3.7c-.32-2.89.18-5.98.31-8.93Z" fill="#614507"/><path d="M50.42 52.1c.28-.02 1.07-.06 1.23 0 .08.03.7.93 1.09 1.22l3.53 2.47c.33.22 1.2.55 1.23.62.23.46-.16 2.65 0 3.39l-17.22 3.08.31-8.62c2.96-.63 6.88-1.99 9.84-2.16z" fill="#251802"/><path d="M39.96,8.68c-.29.06-.7.56-1.41.6-1.61.09-.84.05-1.98.32.14-.97-.35-.57-.94-.48-4.63.73-9.2,2.04-13.83,2.78-.6.42-.51,6.57-.6,7.73-.07.95.15.79-.92.75-.71-.72-3.51-2.36-4.61-2.46.09-1.48.41-8.81.89-9.43l.57-.35,15.91-3.18c2.23.11,4.42,3.92,6.92,3.72Z" fill="#62491d"/><path d="M62.41 145.42l4.61 3.08c1.88 1.34 3.72 3.15 5.84 4v.31l-.61 8.93-9.99-7.09c-.62-3.09.33-6.17.15-9.24zM52.88 110c.14.17.59.78.61.92.51 2.6-.77 5.69-.16 8.33.31 1.35 3.22 2.78 4.46 3.69.04.03 0 .49.61.92-.58 1.83-.2 3.8-.31 5.69-.05.83-.58 2.06-.61 2.62l-4.86-3.6.47-8.22c-.18-1.66-4.32-3.14-5.08-4.72-.11-2.72.31-5.37.24-8.1 1.2-.23 3.89 1.62 4.61 2.46z" fill="#1b1409"/><path d="M80.86 123.56l4.92 4-16.91 3.39-5.23-3.39v-.31-.31c5.78-.65 11.51-2.18 17.22-3.39zm4.61 12.93l5.1 3.71c.28.37-.18.57-.18.6-.52-.41-.96-.26-1.54-.18-5.05.73-10.3 2.43-15.37 3.26-1.46-1.31-3.46-2.07-4.61-3.7v-.31l16.6-3.39zm-4.61-21.87l-16.91 3.7c-1.16-1.56-3.91-2.27-4.61-4 5.49-1.35 11.25-2.01 16.6-3.7 1.09 1.38 4.16 2.61 4.92 4zm-9.53-16.63c.82.89 5.02 3.17 5.23 4l-17.22 3.39c-.17-.55-4.26-2.93-4.92-3.7.01-.1-.01-.21 0-.31l16.91-3.39zM62.1 72.12c.27 1.2 4.33 2.96 4.85 3.77.14.21.04.37.07.54l-16.91 3.39c-1.61-1.5-3.5-2.11-4.61-4l16.6-3.7zm4.61 12.94l4.92 4-16.91 3.7c-1.33-1.68-3.37-2.21-4.61-4l16.6-3.7zM57.49 59.8c.26.06 4.15 2.8 4.4 3.07.3.32.15.44.21.63l-16.91 3.39c-.8-1.04-4.68-2.94-4.92-4l17.22-3.08z" fill="#372914"/><path d="M75.02,34.24c1.03,1.04,2.27,1.82,3.38,2.77-.2.56-.73.64-1.22.78-4.71,1.29-10.14,1.75-14.93,2.95-.6-.04-3.87-2.22-4.14-2.8l16.91-3.7Z" fill="#7a5a1f"/><path d="M44.27 85.37c.22.1.65-.03 1.09.28l4.14 3.02-.31 7.65c-.03.46-.3.87-.31 1.06-1.29-.23-2.23-1.39-3.28-2.11-.47-.32-1.26-.36-1.64-.66-.04-.03.01-.47-.61-.92 1.35-2.48.08-5.61.92-8.32zm18.75 51.12c.76.55 5.06 2.96 5.23 3.61-.26 2.31-.05 5.11-.3 7.34-.08.7-.1 1.07-.94 1.06l-4.61-3.08c-.12-.09-.2-.23-.31-.31 1.14-2.72.3-5.78.92-8.62z" fill="#8f6c2a"/><path d="M54.11 101.07c.15.09.36.06.31.31-.01.1.01.21 0 .31-.01.08-.31.32-.32.74l-.29 6.82c-.07.95.14.79-.92.75-.72-.84-3.42-2.7-4.61-2.46-.01-.46-.35-1.18-.31-1.23.02-.03.53.12.62-.2l.3-7.81c1.63.13 2.88 1.54 4.21 2.42.36.24.79.23 1.02.35zm9.53 26.18v.31l-.31 5.69c-.05.79-.26 1.91-.61 2.62-.08-.06-.39-.01-.6-.17-1.31-.93-2.53-2.69-4.32-2.61 0-.12-.33-.56-.31-.92.03-.56.56-1.79.61-2.62.11-1.9-.26-3.86.31-5.69.17.12.78.18 1.21.48l4.02 2.91z" fill="#62491d"/><path d="M62.72 135.88s-.18.27.31.62c-.62 2.84.22 5.91-.92 8.62l-4.93-3.61.62-8.4c1.79-.08 3.01 1.68 4.32 2.61.21.15.52.11.6.17zm-13.84-38.5c-.02.31.02.62 0 .92l-.3 7.81c-.08.32-.6.17-.62.2-.86-.41-4.35-2.62-4.55-3.29-.3-.96.07-2.57-.05-3.64l.61-4.78c.38.3 1.17.34 1.64.66 1.05.72 1.98 1.88 3.28 2.11zm-28.59-77c.09.09.59 1.09.61 1.23.4 2.44-.7 5.46-.31 8.01-1.96 0-3.31-2.42-5.23-2.77l.31-8.93c1.1.11 3.9 1.74 4.61 2.46zm23.36 64.06c.09.08-.08.6.61.92-.84 2.7.42 5.83-.92 8.32l-4.46-3.08c-.29-.48-.23-4.95-.16-5.85s.36-2.4.92-3.08c.93.88 2.86 1.8 4 2.77z" fill="#1b1409"/><path d="M74.09,49.02c-.13,1,.38,3.08-.43,3.72-.76.6-5.09.93-6.33,1.2-.62-.3-4.84-2.56-4-3.39,3.2-.28,6.3-1.2,9.43-1.83.62-.13,1.14.3,1.33.29Z" fill="#251802"/><path d="M26.44,90.91c-.62-1.19-2.02-1.6-2.99-2.38-.19-.15-.89-.26-.39-.7.38-.33,8.6-1.68,9.91-1.94.54-.11,1.04-.44,1.47-.53-.16.82-.17,3.83-.61,4.17-.72.55-6.07,1.1-7.39,1.38Z" fill="#0c0802"/><path d="M47.65 30.85a28.1 28.1 0 0 0-.61 4.47c-.08 1.48.05 2.98 0 4.46-2.7-1.94-5.59-4.16-8.33-5.98-.3-.2-1.97-1.28-2.12-1.1-.35 2.29-.15 4.64-.31 6.93-.04.5-.28.98-.3 1.38-1.49-.55-2.76-1.68-4.03-2.6-.3-.22-.8-.11-.89-.17-.08-.05-.31-.82-.81-1.19-.99-.72-2.43-1.9-3.39-2.46-1.22-.7-1.27-.16-1.35 1.01-.18 2.6-.16 5.26-.29 7.87l-.31 7.08-.46 1.23c-.84-.35-4.46-3.57-5.07-3.08-.11 5.27-.33 10.57-.62 15.87-.03.5-.28.98-.3 1.38-1.97-.55-3.18-2.83-5.23-3.08.13-2.47.61-5.54.61-7.85v-5.24c0-1.43.53-3.93.61-5.39.55.62 4.78 3.85 5.23 3.39-.04-3.08.14-6.17.31-9.24l.31-6.47c.65-.25-.23-2 1.08-1.55.11.04.16.48.38.61.5.3 3.59 2.29 3.77 2.17.38-2.71.46-5.55.62-8.31 1.58.96 3.77 2.03 5.23 3.08.25.18.61.88 1.08 1.23.56.4 3.75 2.88 4.14 2.47l.31-8.62c3.64 2.51 7.16 5.1 10.76 7.7z" fill="#f6c049"/><path d="M18.13 75.51l-.62 8.32c-.37.36-4.46-2.41-4.82-2.86-.55-.69-.45-2.26-.41-3.16.08-1.97.53-4.37.63-6.3l5.23 4z" fill="#e6e86f"/><path d="M19.98 38.55l-.31 9.24c-.44.46-4.67-2.76-5.23-3.39.17-2.86-.08-5.77.31-8.62.62-.65 4.06 3.08 5.23 2.77zm-1.54 27.41l-.31 9.55-5.23-4 .31-8.62c2.05.25 3.26 2.53 5.23 3.08z" fill="#e1e452"/><path d="M26.13 24.38c-.01.2.01.41 0 .62l-.62 8.31c-.18.13-3.27-1.87-3.77-2.17-.22-.13-.27-.57-.38-.61-1.3-.45-.42 1.3-1.08 1.55.04-.85.14-1.64.31-2.46-.4-2.55.71-5.56.31-8.01 2.07-.06 3.28 2.29 5.23 2.77z" fill="#8f6c2a"/><path d="M47.04 39.78c1.57 1.13 3.09 2.64 4.92 3.39-.01.2.01.41 0 .62l-.31 8.32c-.16-.06-.95-.02-1.23 0-.77-.96-4.2-3.64-5.23-3.7-.12-.97-1.32-1.55-2.05-2.1-2.18-1.64-4.67-3.72-7.17-4.68.01-.2-.01-.41 0-.62.03-.4.27-.88.3-1.38.16-2.29-.03-4.64.31-6.93.15-.18 1.83.91 2.12 1.1 2.74 1.81 5.63 4.03 8.33 5.98z" fill="#30220a"/><path d="M20.29,20.38c1.08.04.85.19.92-.75.09-1.15,0-7.3.6-7.73,4.64-.74,9.2-2.05,13.83-2.78.59-.09,1.07-.49.94.48-1.42.33-2.24.17-3.69.92-.12.06-.56-.19-.62.21-.22,1.27-.25,2.51-.31,3.79-1.55.55-3.07.52-4.61,1.23-.1.05-.39-.08-.54.06-.42.4-.61,7.21-.69,8.56-1.95-.48-3.16-2.83-5.23-2.77-.02-.14-.52-1.14-.61-1.23Z" fill="#3b2b0f"/><path d="M52.88,34.55c.96.7,4.56,2.59,4.86,3.61.68,2.33-.51,6.22-.25,8.71-.67.69-4.39-3.29-5.53-3.08.01-.2-.01-.41,0-.62.02-.4.28-.88.3-1.38.13-2.41-.21-4.92.62-7.24Z" fill="#e6e86f"/><path d="M52.88 34.55c-.83 2.33-.49 4.84-.62 7.24-.03.5-.28.98-.3 1.38-1.83-.75-3.35-2.25-4.92-3.39v-4.46c.07-1.31.31-3.19.61-4.47l5.23 3.7zm-15.99-11.4l-.31 8.62c-.39.41-3.59-2.07-4.14-2.47-.48-.34-.83-1.04-1.08-1.23l.31-8.31c.58-.61 4.58 2.94 5.23 3.39z" fill="#e1e452"/><path d="M31.97 14.53v4.62c-.21.24-4.45-2.76-4.61-3.39 1.54-.71 3.06-.68 4.61-1.23z" fill="#7a5a1f"/><path d="M39.35,71.81l-4.61-2.77c.03-.65-.59-1.79-.32-2.63l.63-6.61c.24.13.73.01,1.27.41.64.47,3.78,2.75,3.91,3.2-.34,1.93-.15,3.86-.27,5.78-.05.81-.59,2.1-.61,2.62Z" fill="#8f6c2a"/><path d="M39.66,72.74c1.18-.01,4.89,2.71,5.17,3.61.14.48-.21,5.42-.28,6.37-.03.4-.08,2-.88,1.73-1.14-.97-3.07-1.89-4-2.77-.11-.1-.59-.82-.61-.92-.35-1.72.48-5.94.61-8.01Z" fill="#62491d"/><path d="M40.58 54.26l-.31 8.62c.24 1.06 4.12 2.96 4.92 4 .44 2.49-.63 5.54-.32 7.88.13.98.48.79.63 1.05 1.11 1.9 3.01 2.5 4.61 4-.45 2.77-.43 5.65-.55 8.42.12.39.49.42.55.51 1.24 1.79 3.28 2.32 4.61 4l-.61 8.32c-.22-.13-.65-.12-1.02-.35-1.33-.87-2.58-2.29-4.21-2.42.02-.31-.02-.62 0-.92.01-.19.28-.61.31-1.06l.31-7.65-4.14-3.02c-.43-.31-.87-.18-1.09-.28-.69-.32-.53-.85-.61-.92.81.27.85-1.34.88-1.73l.28-6.37c-.27-.9-3.98-3.62-5.17-3.61 0-.05-.33-.34-.31-.92.02-.52.56-1.81.61-2.62.11-1.93-.07-3.86.27-5.78-.13-.44-3.27-2.73-3.91-3.2-.55-.4-1.03-.28-1.27-.41-.43-.22-.49-.83-.61-.92.94.17.58-.47.61-1.06l.31-6.94c.95-.04 5.1 2.88 5.23 3.39z" fill="#3b2b0f"/><path d="M35.35 50.25v.62l-.31 6.94c-.03.59.33 1.24-.61 1.06l-4.61-3.7c-.02-2.55.67-5.47.31-8.01 1.87-.33 3.95 2.72 5.23 3.08z" fill="#62491d"/><path d="M29.82 46.25l.31.92c.36 2.53-.33 5.46-.31 8.01-.14-.1-.68-.11-1.02-.35-1.32-.95-2.97-1.7-3.9-3.04v-1.23l.31-7.08c.96.37 4.15 2.13 4.61 2.77zm4.92 22.79l4.61 2.77c-.03.58.31.88.31.92-.14 2.06-.96 6.28-.61 8.01l-4.87-3.28c-.19-2.57.14-5.1.24-7.67.02-.39.32-.7.32-.75z" fill="#1b1409"/><path d="M59.33 105.38c.59 1.97-1.11 6.18 0 8.93.7 1.73 3.45 2.45 4.61 4l-.31 8.62v.31l-4.02-2.91c-.43-.3-1.04-.36-1.21-.48-.61-.44-.57-.89-.61-.92.98.17.54-.49.61-1.07.19-1.78.7-5.79.25-7.33-.25-.85-4.01-3.53-5.16-3.61-.03-.14-.47-.76-.61-.92 1.07.04.85.19.92-.75l.29-6.82c.01-.42.31-.66.32-.74.66.76 4.75 3.14 4.92 3.7zm9.54 25.57c-.28 2.83-.8 6.18-.31 8.93.08.12.23.2.31.31 1.15 1.63 3.15 2.39 4.61 3.7l-.61 8.62c-2.13-.85-3.96-2.66-5.84-4 .83 0 .86-.37.94-1.06.25-2.24.04-5.03.3-7.34-.17-.64-4.47-3.06-5.23-3.61-.49-.35-.28-.6-.31-.62.35-.72.56-1.84.61-2.62l.31-5.69 5.23 3.39z" fill="#3b2b0f"/><path d="M68.87,140.19c-.08-.11-.23-.19-.31-.31h.31v.31Z" fill="#8f6c2a"/><path d="M45.19,48.41c1.03.06,4.46,2.73,5.23,3.7-2.96.16-6.87,1.53-9.84,2.16-.12-.51-4.28-3.43-5.23-3.39v-.62c.08.02.2,0,.31,0,2.59.08,7.04-1.99,9.53-1.85Z" fill="#372914"/><path d="M53.49,110.93c1.15.07,4.92,2.76,5.16,3.61.45,1.54-.06,5.55-.25,7.33-.06.58.37,1.25-.61,1.07-1.24-.91-4.15-2.33-4.46-3.69-.61-2.64.66-5.73.16-8.33Z" fill="#8f6c2a"/><path d="M31.05 38.24c-.46 2.28-.33 4.57-.63 6.93-.07.58.39 1.25-.6 1.08-.47-.64-3.66-2.4-4.61-2.77l.29-7.87c.08-1.17.13-1.72 1.35-1.01.96.56 2.4 1.74 3.39 2.46.5.36.73 1.13.81 1.19z" fill="#e1e452"/><path d="M35.97 41.01c-.01.2.01.41 0 .62l-.31 8.62c-.11 0-.23.02-.31 0-1.28-.36-3.36-3.41-5.23-3.08-.01-.08-.28-.88-.31-.92.99.17.53-.5.6-1.08.3-2.36.17-4.65.63-6.93.09.06.59-.05.89.17 1.27.92 2.53 2.05 4.03 2.6z" fill="#3b2b0f"/><path d="M45.19,48.41c-2.5-.14-6.94,1.93-9.53,1.85-.11-2.88.13-5.75.31-8.62,2.5.95,4.99,3.03,7.17,4.68.73.55,1.94,1.13,2.05,2.1Z" fill="#251802"/></svg>