<svg xmlns="http://www.w3.org/2000/svg" viewBox="0 0 97.47 97.4" xmlns:v="https://vecta.io/nano"><path d="M22.41 0c-.03.11.04.4 0 .45-.02.03-.27-.13-.31.21-.13.98.22 1.37.32 2.09.13.95-.19 2.4-.02 3.29.04.18.43-.02.47.16.1.49-.09 1.27-.02 1.8.04.28.28.2.31.32.11.45-.09 1.16 0 1.61.04.18.43-.02.47.16.18.95-.23 2.64 0 3.55.12.5.64 1.89.74 2.42.09.44-.09 1.04 0 1.46.03.12.27.04.31.32.06.43-.11 1.09-.02 1.47.04.17.38.1.46.47.17.92-.14 2.33-.02 3.3.04.28.28.2.31.32.11.49-.1 1.27 0 1.76.03.17.38.03.44.09.12.12-.07 1.36.01 1.68.04.16.36.14.43.35.23.66-.1 2.57.01 3.43.04.28.28.2.31.32.1.44-.11 1.24 0 1.6.04.14.28.05.41.13.08.05.04.25.05.25.06.47-.1 1.11 0 1.54.03.12.27.04.31.32.06.49-.11 1.2-.02 1.65.04.18.43-.02.47.16.18.92-.15 2.44-.02 3.44.04.28.28.2.31.32.11.49-.1 1.27 0 1.76.04.18.43-.02.47.16.09.49-.12 1.27 0 1.76.03.12.27.04.31.32.12.92-.18 2.28-.02 3.15.07.37.41.31.46.47.12.46-.11 1.25 0 1.73.03.12.27.04.31.32.06.49-.11 1.2-.02 1.65.03.17.38.03.44.09.12.12-.08 1.34.04 1.69.07.2.39.19.43.35.23.88-.15 2.82-.02 3.86.04.28.28.2.31.32.1.44-.11 1.24 0 1.61.05.15.3.04.41.12.09.06.03.25.04.26.05.38-.08.89 0 1.24.03.12.27.04.31.32.06.45-.1 1.09-.02 1.5.04.18.43-.02.47.16.21 1.06-.25 2.98 0 4 .03.11.26.09.29.21.09.38-.09.94 0 1.29.04.16.36.14.43.35.15.42-.08 1.15.03 1.6.03.12.27.04.31.32.16 1.25-.25 3.18-.02 4.34.04.18.43-.02.47.16.07.37-.1.93 0 1.31.03.12.27.04.31.32.06.49-.11 1.2-.02 1.65.03.17.38.03.44.09.11.11-.05 1.35.02 1.68.03.13.25.12.3.21.4.8 0 2.6.14 3.56.05.33.26.51.3.75.06.43-.07.97 0 1.33.04.18.43-.02.47.16.09.45-.11 1.15 0 1.61.03.12.27.04.31.32.15 1.12-.23 2.85-.02 3.89.04.18.43-.02.47.16.08.41-.11 1.04 0 1.46.03.11.26.09.29.21.11.48-.08 1.22.01 1.76.08.49.62.82.44 1.43H4.59c-.07-.07.05-1.69.01-2.03-.04-.29-.29-.14-.32-.43-.14-1.13.22-2.85.02-3.89-.04-.18-.43.02-.47-.16-.24-1.23.19-3.29.02-4.63-.04-.29-.32-.16-.32-.43l.02-8.52c-.04-.18-.43.02-.47-.16-.24-1.23.19-3.29.02-4.63-.04-.29-.29-.14-.32-.43-.14-1.13.22-2.85.02-3.89-.04-.18-.43.02-.47-.16-.26-1.31.2-3.51.02-4.93-.04-.29-.29-.14-.32-.43-.09-.7.02-1.72.01-2.47.32-.06.71-.52.94-.75.12-.13.08-.35.14-.41.1-.08.34 0 .39-.05.09-.09-.03-.44.03-.62.16-.52 1-.37 1.04-.41.03-.03-.05-.5.14-.83.35-.61 1.39-1.04 1.47-1.14.1-.13 0-.42.1-.58.13-.21.53-.07.65-.17.07-.05.06-.36.17-.5.17-.21.54-.35.57-.4.07-.12.08-1.78 0-1.97-.07-.2-.39-.19-.43-.35-.2-.78.13-2.49.02-3.42-.04-.29-.29-.14-.32-.43-.12-.91.19-2.3.02-3.14-.04-.18-.43.02-.47-.16l-.28-10.14c-.04-.18-.43.02-.47-.16-.19-.96.21-2.61.02-3.57-.04-.18-.43.02-.47-.16-.17-.88.14-2.33.02-3.29-.04-.29-.29-.14-.32-.43-.11-.86.19-2.22.02-2.99-.03-.16-.33-.02-.43-.11-.11-.1.12-.54-.33-.42.27-.45.31-1.14.43-1.29.17-.2 1.08-.54 1.3-.79.29-.32.13-.6.22-.8.22-.46.63-.56.92-.87.12-.13.08-.35.15-.4.1-.08.34 0 .39-.05s.1-.99.53-1.35c.15-.13.46-.1.51-.15.12-.13-.05-.96.02-1.03.06-.06.63.09.73-.02.05-.05-.04-.31.05-.39.07-.07.29 0 .38-.07.12-.09-.15-.57.48-.41l-.01 3.97c.04.29.29.14.32.43.1.83-.17 2.08-.02 2.84.04.18.43-.02.47.16.12.61-.11 1.58-.02 2.24.05.35.27.53.31.88.11.76-.17 4.96 0 5.16l.45-.15c.1.12-.07 2.46-.01 2.92.04.29.29.14.32.43.1.79-.1 1.8-.01 2.62.18.09.18-.64.45-.3.09.12-.07 2.33-.01 2.77.04.29.29.14.32.43.19 1.51-.29 3.84-.02 5.23.04.18.43-.02.47.16.06.3-.09 1.78-.01 1.86 1.21.24.55-.52.77-.73.05-.04.29.03.39-.05.06-.05.03-.28.15-.4.22-.24.52-.28.59-.35.18-.18.38-.97.5-1.07.15-.14.85-.33 1-.57.13-.2.08-.64.34-.9.14-.14.38-.06.47-.19.11-.16.09-.59.15-.64.11-.08.46.06.56-.04.05-.05-.03-.3.05-.39.06-.07.3-.02.36-.08.15-.15.99-1.08 1.02-1.15.13-.29.15-2.93.09-3.37-.05-.35-.27-.53-.31-.88-.08-.54.11-1.28.01-1.81-.07-.37-.41-.31-.46-.47-.11-.44.08-1.23 0-1.76-.04-.24-.25-.41-.3-.75-.07-.53.11-1.3.02-1.79-.04-.18-.43.02-.47-.16-.23-1.2.26-3.27.02-4.47-.04-.18-.43.02-.47-.16-.09-.45.11-1.15 0-1.61-.03-.12-.27-.04-.31-.32-.08-.61.13-1.53.02-2.09-.04-.18-.43.02-.47-.16-.1-.49.09-1.26.02-1.79-.05-.35-.27-.53-.31-.88-.18-1.25.25-3.17.02-4.33-.04-.18-.43.02-.47-.16-.11-.57.1-1.48.02-2.09-.04-.29-.29-.14-.32-.43-.12-.92.5-2.15-.74-2.33-.16-.36.27-.46.3-.56.04-.19-.06-.54.03-.63.04-.05.29.03.39-.05.09-.08.61-1.19.78-1.36.13-.14.35-.07.46-.2.15-.18.58-1.02.63-1.06.1-.08.34 0 .39-.05.08-.08-.02-.54.05-.78.26-.89 1.05-.64 1.15-.73.03-.03 0-.24.07-.36.04-.07.21-.07.24-.17.06-.25-.07-.83.03-.92.05-.04.29.03.39-.05.09-.07.21-.81.74-.76l.79-1.6h.75zm1.18 67.39c-.77-.18-1.39-.25-1.18.73l-.74-.15c.23 1-.56.43-.74.6-.03.03-.03.52-.17.8-.06.12-.84.94-.94 1-.32.18-.58.08-.79.18-.12.06-1.82 1.67-1.94 1.79-.1.1-.06.41-.25.57s-1.07.31-1.25.62c-.07.13 0 .34-.05.44-.07.14-.23.12-.28.24-.05.14.03.44 0 .48-.05.05-1.03-.15-1.19.41-.05.18.03.6 0 .64-.06.06-.63-.09-.73.02-.04.05.03.29-.05.39-.05.06-.28.03-.4.15a26.51 26.51 0 0 0-.75.75c-.2.21-.63.97-.79 1.05-.27.12-.73-.04-.85.05-.32.26.37 1.4-1.21 1.03.25.26.08 1.1.17 1.19.06.06.41-.08.44.09.17.88-.19 2.39-.02 3.27.04.18.43-.02.47.16.16 2.08-.25 4.55-.01 6.57.04.37.27.62.3.9.07.75-.03 1.55 0 2.31.65.14.34-.26.58-.54.17-.2.48-.15.58-.26.16-.17.49-.72.79-.92.33-.21.58.17.29-.52.85.18.5-.33.61-.43.08-.08.35.02.46-.03.13-.06.13-.2.19-.23.3-.18.5.09.38-.66 1.05.59.7-.47 1.09-.85.03-.03.71-.35.84-.41.11-.04.3.08.31.06.06-.1-.05-.55 0-.6.06-.06.56.09.73-.02.07-.04.09-.41.25-.58.11-.12.94-.48.98-.54.11-.16.09-.59.15-.64.13-.11.74.08.87-.04.04-.04-.02-.26.06-.37.36-.5.95-.53 1.11-.69.11-.11.21-.74.37-.83.23-.13.72.06.85-.06.03-.03 0-.24.07-.36.04-.07.21-.07.24-.17.05-.19-.03-.6 0-.64.07-.07.93.1 1.16-.03.17-.1 1.06-1.43 1.45-1.61.11-.25.15-2.43.09-2.75-.04-.18-.43.02-.47-.16-.1-.49.09-1.26.02-1.79l-.31-2.5c-.03-.12-.3-.1-.38-.39-.12-.43-.29-1.89-.37-2.47-.09-.62.13-4.09 0-4.25zM.3 28.98c-.08.94 0 2.02 0 2.99H0v-2.99h.3z" fill="#9c735c"/><path d="M22.41.45c.4.25.93.31 1.38.46.1.03.11.26.22.28.46.11 1.13-.09 1.61 0 1.16.23 2.8 1.26 3.76 1.49.27.06.99-.08 1.08.02.06.06-.08.41.09.44.28.06 1.3-.09 1.41 0 .02.02-.01.23 0 .3.08.56.54.42 1.05.45.46.03 1.15-.09 1.54 0 .09.02.74.24 1.04.32.27.08.26.32.85.42-.11.68.23.4.75.45.82.07 2.49.74 3.32 1.08.22.09.33.33.52.39.81.25 1.82-.05 2.92.36l4.85 1.91c.19.05.55-.06.64.02.06.06-.08.41.09.44.64.13 1.69-.11 2.39-.02.03 0 .5.28.52.31.03.08-.06.36.01.43.09.08.54 0 .73.02.79.07.73.27.85.3.22.05.7-.06.79.02.06.06-.08.41.09.44.36.07.91-.09 1.3 0a3.81 3.81 0 0 1 .41.29c.03.08-.06.36.01.43.09.07.54.01.73.02h.15c.24.29.77.1 1.13.14.2.02.32.15.36.16.06.59-.09 1.29 0 1.86s.87 1.41 1 2.28c.09.62-.08 1.39.02 1.9.03.17.38.03.44.09.08.08-.03.7.02.95.02.11.25.79.29.88.1.21.43 0 .46.19.15.83.14 2.13.29 2.8.03.12.28.12.34.28.16.41.04.81.14 1.2.11.43.61 1.03.67 1.27.11.39-.03.86.06 1.28.19.82.87 2.08 1.13 2.91.34 1.1.37 1.88.75 2.98.1.29-.02.71.19 1 .17.24.47.18.56.27s-.04.39.11.42c.28.06.69-.07 1.03 0 .31.06.53.25.9.3.41.06.98-.09 1.34-.01.17.03.03.39.09.44.08.08.45-.03.64.02.12.03.09.27.21.29.33.08.75-.05 1.14.03.44.09.79.63 1.23.71.34.06.75-.06 1.03 0 .16.03.02.37.09.44.08.07.36-.02.55.06.07.03 1.01.71 1.16.71h2.46s-.05.2.1.3c.1.07.73.37.79.44.13.13.83 1.19.86 1.3.17.58.16 1.49.36 2.18s.63.95.72 1.9c.05.52-.23.86.45.75.05 1.18.26 1.73.71 2.8l.33.74c.1.42-.09.98.04 1.43.09.31.69.75.71.81.17.66.38 1.2.45 1.83.06.51-.24.86.45.75.01.34-.07.8 0 1.09.03.11.27.09.29.2.07.3-.06.65.03.99.08.3.7.76.71.81.11.53-.05 1.11.13 1.79.13.49.82 1.53 1.04 2.11.38 1.02.35 2.09.79 3.21.13.32.21.02.29.86.05.52-.23.86.45.75.01.34-.06.83-.01 1.11.03.17.38.03.44.09.09.09-.04.69.02.93.03.11.62 1.17.71 1.41.38 1.02.36 2.08.79 3.21l1.03 2.9c.07.3-.06.65.03.99.08.31.69.74.71.81.13.51.41 1.08.45 1.31.08.4-.09.91.03 1.31.05.18.7 1.18.71 1.25.06.28-.05.61 0 .86.03.17.39.03.44.09.07.08-.03.45.02.64.03.12.27.09.29.21.12.48-.1 1.28 0 1.76.03.17.39.03.44.09.08.08-.03.45.02.64.03.12.26.09.29.21.38 1.54.64 2.96 1.21 4.42.13.32.21.02.29.86.05.52-.23.86.45.75.06.71.29 1.4.45 2.14.02.11.26.09.29.21l.78 3.38c.12.37.69.7.42 1.45H83.15c-.04-.46-.61-.75-.71-1.16s.02-.8-.02-1.17c-.03-.27-.28-.2-.31-.32-.06-.27.07-.99-.02-1.08-.06-.06-.41.08-.44-.09-.14-.71.03-1.5-.33-2.34-.18-.43-.67-.51-.71-.67-.14-.54.13-1.62.01-2.2-.03-.17-.38-.03-.44-.09-.08-.08.02-.46-.02-.65-.13-.51-.71-1.6-.74-1.69-.19-.83-.3-.59-.3-.64V83.1s-.5.02-.6 0l.15-1.34c-.24-.06-.1.21-.18.26-.16.09-.38.03-.57.04-.15-.4.27-.24.3-.39.11-.54-.42-1.09-.32-1.69-.73.13-.34-.71-.44-1.27-.05-.3-.24-.53-.3-.9s.08-.86.01-1.19c-.03-.17-.39-.03-.44-.09-.07-.08.03-.45-.02-.64-.03-.12-.27-.09-.29-.21-.22-.89.09-1.1-.38-2.29-.23-.59-.24-1.09-.39-1.55-.07-.2-.39-.19-.43-.35-.05-.2.05-.47-.02-.7-.07-.2-.39-.19-.43-.35-.13-.51.1-1.4-.03-2.03s-.89-1.3-1-2.13c-.09-.64.13-1.68 0-2.2-.04-.16-.36-.13-.43-.35-.08-.24-.21-1.38-.35-1.53-.08-.08-.4.06-.43-.1-.06-.32-.04-1.57-.32-1.83-.06-.06-.3.01-.38-.06-.09-.08.03-.31-.14-.42-.49-.3-1.21-.19-1.6-.32-.2-.07-.18-.39-.35-.43-1.2-.3-2.18-.86-3.26-1.04-.93-.16-.78 0-1.72-.37-1.11-.43-1.95-.59-3.02-.86-.3-.08-.65-.52-1-.65-.23-.08-.68-.03-.74-.09-.07-.07.08-.41-.1-.44-.2-.04-.45.04-.7-.02-.53-.14-.95-.42-1.6-.26.23.73.19 1.7.46 2.43.18.47.78 1.6.89 2.13.1.48-.07 1.11 0 1.63.13.85.91 1.92 1.03 2.7.11.71-.13 1.73 0 2.37.03.17.38.03.44.09.1.1-.04.94.02 1.23.02.07.64.99.71 1.26.1.39-.04.8.04 1.13.03.11.27.09.29.2.16.66-.15 1.81 0 2.48.02.07.72 1.01.74 1.1.08.35-.08.77.03 1.14.07.21.35.31.42.63.1.48-.1 1.18 0 1.63.03.17.38.03.44.09.1.1-.05.95.02 1.23.03.11.26.09.29.21.1.42-.09 1.06 0 1.46.03.17.38.03.44.09s0 .42.06.62c.06.18.22.31.25.5.09.63-.11 1.52 0 2.08.03.17.38.03.44.09s-.01 1.04.06 1.37c.09.4.6.86.67 1.12.15.51-.05 1.24.02 1.77.04.28.28.2.31.32.07.31-.07.71 0 .99.04.15.36.14.43.34.12.36.19 1.66.32 2.19.04.17.38.1.45.48.1.51-.13 1.27.03 1.77.06.21.32.3.39.51.15.47.07 1.21.31 1.78.12.29.59.42.47.95H36.85c.18-.61-.36-.93-.44-1.43-.09-.54.1-1.28-.01-1.76-.03-.11-.26-.09-.29-.21-.1-.42.09-1.05 0-1.46-.04-.18-.43.02-.47-.16-.2-1.04.17-2.76.02-3.89-.04-.28-.28-.2-.31-.32-.11-.45.09-1.16 0-1.61-.04-.18-.43.02-.47-.16-.07-.36.07-.9 0-1.33-.04-.24-.25-.41-.3-.75-.14-.96.26-2.77-.14-3.56-.04-.08-.27-.08-.3-.21-.07-.33.09-1.57-.02-1.68-.06-.06-.41.08-.44-.09-.09-.45.09-1.16.02-1.65-.04-.28-.28-.2-.31-.32-.09-.38.08-.94 0-1.31-.04-.18-.43.02-.47-.16-.23-1.16.19-3.08.02-4.34-.04-.28-.28-.2-.31-.32-.11-.45.12-1.18-.03-1.6-.07-.2-.39-.19-.43-.35-.09-.35.09-.91 0-1.29-.03-.11-.26-.09-.29-.21-.24-1.02.21-2.94 0-4-.04-.18-.43.02-.47-.16-.08-.41.08-1.05.02-1.5-.04-.28-.28-.2-.31-.32-.08-.36.05-.86 0-1.24.4.27 1.37.08 1.86.16 1.21.19 2.98 1.13 4.16 1.64 1.25.54 2.79 1.11 4.21 1.35.32.05.76-.08 1.05-.02.17.03.03.37.09.44.04.04.59.04.85.13.35.14.68.54.89.6.47.13 1.08 0 1.61.33.41-.46-.36-.94-.37-1l-.31-1.61c-.09-.67.13-1.61.01-2.25-.07-.37-.41-.31-.46-.47-.18-.7-.15-2.06-.3-2.81-.06-.33-.38-.42-.44-.75-.12-.59.13-1.5 0-2.06-.03-.11-.27-.09-.29-.2-.08-.34.09-.82-.03-1.15-.07-.2-.39-.19-.43-.35-.15-.59-.12-2.02-.29-2.78-.04-.16-.38-.1-.46-.47-.12-.64.13-1.6 0-2.24-.06-.32-.67-1.67-.74-1.97-.09-.38.08-.9 0-1.29-.03-.12-.3-.1-.38-.39l-.36-1.46c-.17-.7.14-1.93 0-2.67-.07-.37-.41-.31-.46-.47-.08-.3.06-.76 0-1.09-.66.29-1.36-.03-1.99-.3-.08-.04-.08-.27-.21-.3-.31-.07-.73.07-1.01 0-.17-.03-.02-.38-.09-.44-.06-.06-1.36-.29-1.63-.39-.43-.16-.95-.54-1.45-.64-.29-.06-1.17 0-1.23-.05-.06-.06.08-.41-.09-.44-.41-.08-1.04.11-1.46 0-.11-.03-.08-.23-.21-.29-.97-.38-1.96-.41-2.86-.84-.42-.2-1.29-.48-1.36-.51-.01 0 .03-.2-.05-.25-.13-.08-.37.01-.41-.13-.11-.37.11-1.16 0-1.6-.03-.12-.27-.04-.31-.32-.11-.86.22-2.76-.01-3.43-.07-.2-.39-.19-.43-.35-.08-.32.11-1.56-.01-1.68-.06-.06-.41.08-.44-.09-.1-.48.12-1.27 0-1.76-.03-.12-.27-.04-.31-.32-.13-.97.19-2.39.02-3.3-.07-.37-.41-.31-.46-.47-.1-.38.07-1.04.02-1.47-.04-.28-.28-.2-.31-.32-.1-.42.08-1.02 0-1.46-.1-.53-.62-1.92-.74-2.42-.22-.91.19-2.6 0-3.55-.04-.18-.43.02-.47-.16-.09-.45.11-1.15 0-1.61-.03-.12-.27-.04-.31-.32-.07-.53.12-1.31.02-1.8-.04-.18-.43.02-.47-.16-.17-.88.15-2.33.02-3.29-.1-.72-.45-1.11-.32-2.09.04-.34.29-.18.31-.21zM37.3 14.24c-.31-.14-1.09-.06-1.45.03.55.39.18 1.1.3 1.62.03.11.26.09.29.21.11.45-.1 1.13 0 1.59.03.12.66 1.25.74 1.83.09.72-.13 1.74 0 2.37.04.18.43-.02.47.16.09.45-.11 1.16 0 1.61.03.11.27.09.29.2.06.25-.07.85.02.94.05.05.36-.04.41.02.1.1-.04.68.02.74.19.2 1.53-.47 1.2.6.5-.33.73-.01 1.16.12.19.06.43-.01.54.03.2.06 0 .44.17.47.21.04.49-.06.73 0 1.02.24 1.75.13 2.52.3.05.01.47.57.85.67.34.1 1.28.03 1.34.09s-.09.34.11.43a18.16 18.16 0 0 0 .88.29l2.05.49c.3.09.73.76 1.31.35s-.2-1.15-.27-1.39c-.36-1.11-.13-2.75-.35-3.38-.07-.19-.34-.19-.39-.28-.1-.16.03-.47-.05-.55-.06-.07-.41.07-.44-.09-.06-.28.07-.69 0-1.03-.21-1.1-.13-1.95-.3-2.84-.09-.48-.78-1.23-.76-1.86-.7.15-1.28-.55-1.92-.17.17-.96-.42-.49-1.11-.61-.31-.05-.53-.25-.9-.3-.41-.06-.98.09-1.34.01-.17-.03-.03-.38-.09-.44-.1-.1-.86.04-1.1 0-.17-.03-.03-.38-.09-.44-.08-.08-.58.03-.81-.02-.85-.21-1.79-.89-2.41-1.03-.29-.06-.64.05-.88 0-.16-.03-.02-.38-.09-.44-.09-.08-.36.03-.47-.03-.14-.07-.13-.23-.16-.24z" fill="#955f42"/><path d="M68.12 97.4c.12-.54-.35-.66-.47-.95-.24-.57-.16-1.31-.31-1.78-.07-.21-.32-.3-.39-.51-.15-.5.07-1.25-.03-1.77-.07-.37-.41-.3-.45-.48-.13-.53-.2-1.83-.32-2.19-.07-.2-.39-.19-.43-.34-.07-.28.07-.68 0-.99-.03-.12-.27-.04-.31-.32-.07-.53.13-1.26-.02-1.77-.07-.25-.59-.72-.67-1.12-.07-.32 0-1.3-.06-1.37s-.41.08-.44-.09c-.11-.56.09-1.44 0-2.08-.03-.19-.19-.33-.25-.5-.06-.19 0-.55-.06-.62s-.4.07-.44-.09c-.08-.4.11-1.04 0-1.46-.03-.11-.27-.09-.29-.21-.07-.28.08-1.13-.02-1.23-.06-.06-.41.08-.44-.09-.09-.45.1-1.15 0-1.63-.06-.32-.35-.41-.42-.63-.11-.37.04-.79-.03-1.14-.02-.09-.72-1.04-.74-1.1-.15-.67.15-1.82 0-2.48-.03-.11-.27-.09-.29-.2-.08-.34.07-.74-.04-1.13-.07-.27-.69-1.19-.71-1.26-.07-.29.08-1.13-.02-1.23-.06-.06-.41.08-.44-.09-.13-.64.11-1.66 0-2.37-.12-.78-.9-1.85-1.03-2.7-.08-.52.09-1.15 0-1.63-.1-.53-.71-1.66-.89-2.13-.27-.72-.23-1.69-.46-2.43.66-.16 1.07.13 1.6.26.25.07.5-.01.7.02.17.03.03.37.1.44.06.06.51 0 .74.09.34.12.7.57 1 .65 1.07.27 1.91.43 3.02.86.94.37.79.22 1.72.37 1.08.18 2.06.74 3.26 1.04.17.04.14.36.35.43.39.13 1.11.02 1.6.32.17.1.05.33.14.42.08.08.31 0 .38.06.28.27.26 1.51.32 1.83.03.16.35.02.43.1.14.14.28 1.29.35 1.53.07.21.39.19.43.35.14.52-.09 1.56 0 2.2.12.83.87 1.49 1 2.13s-.1 1.52.03 2.03c.04.16.37.14.43.35.07.23-.03.5.02.7.04.16.36.14.43.35.15.46.16.96.39 1.55.47 1.19.16 1.4.38 2.29.03.11.27.09.29.21.05.19-.06.55.02.64.06.06.41-.08.44.09.07.33-.07.83-.01 1.19s.24.6.3.9c.09.56-.3 1.4.44 1.27-.09.6.44 1.15.32 1.69-.03.15-.45 0-.3.39.18-.01.4.06.57-.04.08-.05-.07-.32.18-.26l-.15 1.34c.1.02.6-.03.6 0v2.24s.11-.19.3.64c.02.09.6 1.17.74 1.69.05.19-.05.57.02.65.06.06.41-.08.44.09.12.58-.16 1.66-.01 2.2.04.15.53.24.71.67.36.85.19 1.64.33 2.34.03.17.38.03.44.09.09.09-.04.82.02 1.08.03.12.28.04.31.32.04.37-.08.76.02 1.17s.67.7.71 1.16H68.11zm-8.36-85.6a9.94 9.94 0 0 0 .7.42c.29.08 1-.03 1.08.05.06.06-.08.41.09.44.29.06.7-.08 1.01 0 .34.08 1.74.94 2.15 1.04.19.05.55-.06.64.02.06.06-.08.41.09.44.68.13 1.82-.16 2.5 0 .11.02 1.68.87 1.94.99.22.1.47.03.7.13.29.13.74 1.1.92 1.44.51.98.77 2.47 1.09 3.57l.4 1.37c.08.19.63.72.7.97.19.67-.08.92.27 1.74s.34 1.01.51 1.79c.03.11.27.09.29.2.1.41-.1.99.03 1.43.11.37 1.13 1.89 1.16 2.01l.78 3.37c.08.25.67 1.37.71 1.55.1.4-.03 1.02.07 1.55.15.87.81.96.68 1.78-.07-.07-.69-.37-.79-.44-.15-.11-.09-.3-.1-.3h-2.46c-.15 0-1.09-.68-1.16-.71-.18-.08-.47 0-.55-.06-.07-.06.07-.41-.09-.44-.28-.06-.7.07-1.03 0-.44-.08-.8-.62-1.23-.71-.39-.08-.81.04-1.14-.03-.11-.03-.09-.27-.21-.29-.19-.05-.55.06-.64-.02-.06-.06.08-.41-.09-.44-.37-.07-.93.07-1.34.01-.37-.05-.59-.24-.9-.3-.34-.06-.75.06-1.03 0-.15-.03-.03-.32-.11-.42s-.38-.03-.56-.27c-.21-.29-.09-.71-.19-1-.38-1.11-.41-1.88-.75-2.98-.25-.83-.94-2.08-1.13-2.91-.09-.42.05-.89-.06-1.28-.07-.24-.56-.84-.67-1.27-.1-.39.02-.79-.14-1.2-.07-.17-.32-.16-.34-.28-.15-.67-.14-1.97-.29-2.8-.03-.18-.37.03-.46-.19-.04-.09-.27-.77-.29-.88-.05-.25.06-.88-.02-.95-.06-.06-.41.08-.44-.09-.1-.51.07-1.28-.02-1.9-.13-.88-.91-1.71-1-2.28s.05-1.27 0-1.86c.23.03.51-.02.75 0z" fill="#87553a"/><path d="M4.18 23.6c.45-.12.22.32.33.42.1.09.4-.04.43.11.16.77-.13 2.13-.02 2.99.04.29.29.14.32.43.12.95-.19 2.41-.02 3.29.04.18.43-.02.47.16.19.96-.21 2.61-.02 3.57.04.18.43-.02.47.16l.28 10.14c.04.18.43-.02.47.16.16.84-.14 2.23-.02 3.14.04.29.29.14.32.43.12.93-.22 2.63-.02 3.42.04.16.36.14.43.35.07.19.06 1.85 0 1.97-.03.05-.4.19-.57.4-.11.14-.1.44-.17.5-.13.1-.52-.04-.65.17-.1.15 0 .45-.1.58-.08.1-1.11.53-1.47 1.14-.19.33-.11.8-.14.83-.04.04-.88-.11-1.04.41-.06.19.06.53-.03.62-.04.05-.29-.03-.39.05-.07.05-.02.28-.14.41-.22.24-.62.69-.94.75v-6.12-1.87c-.04-.46.07-.38-.45-.37V49.9v-2.32c-.04-.46.07-.38-.45-.37 0-.62.08-1.45.01-2.03-.04-.29-.29-.14-.32-.43-.31-2.48.04-6.25.01-8.9v-2.32c-.04-.46.07-.38-.45-.37v-1.2-2.99c.07-.81.41-.28.46-.53.15-.77-.33-.88.71-1.38.14-.07.44 0 .47-.04.06-.06-.05-.47.05-.71.26-.63 1.72-1.91 2.2-2.72z" fill="#8a6652"/><path d="M.3 33.16c.52-.02.41-.09.45.37.06.74 0 1.57 0 2.32-.52.02-.41.09-.45-.37-.06-.74 0-1.57 0-2.32zm.75 14.05c.52-.02.41-.09.45.37.06.74 0 1.57 0 2.32-.52.02-.41.09-.45-.37-.06-.74.01-1.57 0-2.32zm.44 4.63c.52-.02.41-.09.45.37.05.6 0 1.26 0 1.87-.52.02-.41.09-.45-.37-.05-.6 0-1.26 0-1.87zM57.51 11.5c.56.01 1.72-.11 2.14 0 .17.04.08.29.1.3-.24-.02-.51.03-.75 0-.04 0-.16-.14-.36-.16-.36-.04-.9.15-1.13-.14zM31.97 3.44c.56.06 1.21-.28 1.05.45-.5-.03-.97.11-1.05-.45zm4.48 1.19c.49.08.86-.26.75.45-.52-.05-.86.23-.75-.45zm15.99 4.93c.54.02.86-.2.75.45-.2-.02-.64.06-.73-.02-.07-.06.02-.35-.01-.43zm4.18 1.49c.54.02.86-.2.75.45-.19 0-.65.05-.73-.02-.07-.06.02-.35-.01-.43zm23.6 32.42c.65-.11.43.21.45.75-.68.11-.4-.23-.45-.75zm2.69 8.37c.65-.11.43.21.45.75-.69.11-.39-.23-.45-.75zm3.73 11.8c.65-.11.43.21.45.75-.68.11-.4-.23-.45-.75zm8.37 25.84c.67-.11.41.22.45.75-.68.11-.4-.23-.45-.75z" fill="#9c735c"/><path d="M27.04 33.01c.07.04.94.31 1.36.51.9.43 1.9.47 2.86.84.14.05.11.26.21.29.42.1 1.05-.09 1.46 0 .17.03.03.38.09.44s.93 0 1.23.05c.5.1 1.02.48 1.45.64.28.1 1.57.33 1.63.39.07.06-.07.41.09.44.28.06.7-.08 1.01 0 .12.03.12.26.21.3.62.27 1.33.58 1.99.3.05.33-.08.79 0 1.09.04.16.38.1.46.47.14.74-.17 1.97 0 2.67l.36 1.46c.08.28.35.26.38.39.08.39-.08.91 0 1.29.07.3.68 1.65.74 1.97.13.65-.12 1.6 0 2.24.07.37.42.31.46.47.18.76.14 2.19.29 2.78.04.16.36.14.43.35.12.33-.05.81.03 1.15.03.11.27.09.29.2.13.56-.11 1.47 0 2.06.06.33.38.42.44.75.14.74.12 2.11.3 2.81.04.16.38.1.46.47.12.64-.1 1.58-.01 2.25l.31 1.61c.01.06.78.54.37 1-.54-.34-1.14-.2-1.61-.33-.21-.06-.54-.47-.89-.6-.26-.1-.81-.1-.85-.13-.07-.07.07-.4-.09-.44-.29-.06-.73.07-1.05.02-1.41-.24-2.96-.81-4.21-1.35-1.18-.51-2.95-1.45-4.16-1.64-.49-.08-1.46.11-1.86-.16-.01 0 .04-.2-.04-.26-.11-.09-.37.03-.41-.12-.11-.37.11-1.16 0-1.61-.03-.12-.27-.04-.31-.32-.14-1.04.24-2.98.02-3.86-.04-.16-.36-.14-.43-.35-.12-.35.08-1.57-.04-1.69-.06-.06-.41.08-.44-.09-.09-.45.09-1.16.02-1.65-.04-.28-.28-.2-.31-.32-.11-.48.12-1.28 0-1.73-.04-.16-.38-.1-.46-.47-.17-.88.14-2.23.02-3.15-.04-.28-.28-.2-.31-.32-.11-.49.1-1.27 0-1.76-.04-.18-.43.02-.47-.16-.09-.49.12-1.27 0-1.76-.03-.12-.27-.04-.31-.32-.13-1 .2-2.52.02-3.44-.04-.18-.43.02-.47-.16-.09-.45.09-1.16.02-1.65-.04-.28-.28-.2-.31-.32-.1-.43.06-1.07 0-1.54z" fill="#87553a"/><path d="M15.24 9.26c1.23.18.62 1.41.74 2.33.04.29.29.14.32.43.08.61-.13 1.53-.02 2.09.04.18.43-.02.47.16.23 1.16-.19 3.08-.02 4.33.05.35.27.53.31.88.07.53-.11 1.3-.02 1.79.04.18.43-.02.47.16.11.57-.1 1.48-.02 2.09.04.28.28.2.31.32.11.45-.09 1.16 0 1.61.04.18.43-.02.47.16.23 1.2-.26 3.27-.02 4.47.04.18.43-.02.47.16.1.49-.09 1.26-.02 1.79.05.33.26.51.3.75.08.53-.11 1.31 0 1.76.04.16.38.1.46.47.1.52-.09 1.26-.01 1.81.05.35.27.53.31.88.06.43.05 3.08-.09 3.37-.03.07-.88 1-1.02 1.15-.06.06-.3 0-.36.08-.08.09 0 .34-.05.39-.1.1-.46-.05-.56.04-.07.05-.05.48-.15.64-.09.13-.33.05-.47.19-.25.26-.21.71-.34.9-.15.24-.85.43-1 .57-.11.1-.32.89-.5 1.07-.07.07-.37.12-.59.35-.12.13-.08.35-.15.4-.1.08-.34 0-.39.05-.22.22.43.97-.77.73-.08-.08.07-1.56.01-1.86-.04-.18-.43.02-.47-.16-.27-1.39.21-3.72.02-5.23-.04-.29-.29-.14-.32-.43-.06-.44.1-2.65.01-2.77-.27-.34-.26.39-.45.3-.09-.82.11-1.83.01-2.62-.04-.29-.29-.14-.32-.43-.06-.46.11-2.8.01-2.92l-.45.15c-.16-.2.11-4.4 0-5.16-.05-.35-.27-.53-.31-.88-.09-.66.14-1.63.02-2.24-.04-.18-.43.02-.47-.16-.15-.76.13-2.01.02-2.84-.04-.29-.29-.14-.32-.43-.13-1.05-.01-2.85.01-3.97 0-.23-.05-.95.02-1.03.04-.04.29.04.44-.11s.58-1.02.62-1.06c.1-.08.35 0 .39-.05.07-.07 0-.45.07-.7.02-.07.9-.57.99-.9.06-.18-.04-.6 0-.64.05-.05.7.05.75 0s-.04-.5-.01-.67.38-.03.44-.09c.1-.1-.08-.61.04-.73.04-.04.28.03.39-.05.14-.11.12-.81.78-.71zm8.35 58.13c.14.16-.08 3.62 0 4.25l.37 2.47c.08.28.35.26.38.39.12.53.21 1.8.31 2.5.07.53-.11 1.3-.02 1.79.04.18.43-.02.47.16.06.32.03 2.5-.09 2.75-.39.18-1.28 1.52-1.45 1.61-.23.14-1.1-.04-1.16.03-.04.04.04.45 0 .64-.03.1-.2.11-.24.17-.08.12-.04.33-.07.36-.13.12-.62-.07-.85.06-.15.09-.26.72-.37.83-.16.16-.75.2-1.11.69-.08.11-.03.33-.06.37-.13.12-.74-.07-.87.04-.06.05-.04.48-.15.64-.04.06-.87.42-.98.54-.16.17-.18.53-.25.58-.17.11-.67-.04-.73.02-.05.05.06.5 0 .6 0 .01-.2-.11-.31-.06-.13.05-.81.37-.84.41-.39.38-.04 1.44-1.09.85.11.75-.08.47-.38.66-.06.03-.06.17-.19.23-.11.05-.38-.05-.46.03-.11.1.24.61-.61.43.29.7.04.31-.29.52-.3.2-.63.75-.79.92-.1.11-.41.06-.58.26-.24.27.07.68-.58.54-.04-.76.06-1.55 0-2.31-.03-.28-.25-.53-.3-.9-.23-2.02.18-4.5.01-6.57-.04-.18-.43.02-.47-.16-.17-.88.19-2.39.02-3.27-.03-.17-.38-.03-.44-.09-.09-.09.08-.93-.17-1.19 1.58.37.89-.77 1.21-1.03.11-.09.58.07.85-.05.16-.07.58-.83.79-1.05l.75-.75c.13-.12.35-.08.4-.15.08-.1 0-.34.05-.39.11-.11.68.04.73-.02.04-.04-.05-.46 0-.64.16-.56 1.14-.36 1.19-.41.04-.04-.05-.34 0-.48.05-.12.21-.09.28-.24.05-.09-.03-.31.05-.44.18-.31 1.06-.47 1.25-.62s.15-.47.25-.57l1.94-1.79c.21-.11.47 0 .79-.18.1-.06.88-.88.94-1 .15-.28.14-.77.17-.8.18-.18.97.39.74-.6l.74.15c-.2-.99.41-.91 1.18-.73z" fill="#8a6652"/><path d="M37.3,14.24s.02.17.16.24c.11.06.38-.05.47.03.07.06-.07.41.09.44.25.05.59-.07.88,0,.62.14,1.56.82,2.41,1.03.22.06.73-.06.81.02.06.06-.08.41.09.44.25.05,1-.1,1.1,0,.06.06-.08.41.09.44.36.07.93-.07,1.34-.01.37.05.59.24.9.3.7.12,1.29-.35,1.11.61.65-.38,1.22.32,1.92.17-.02.62.67,1.38.76,1.86.17.89.08,1.74.3,2.84.07.34-.06.75,0,1.03.03.16.38.02.44.09.08.08-.04.39.05.55.05.08.32.08.39.28.22.63,0,2.27.35,3.38.08.24.85.98.27,1.39s-1.01-.26-1.31-.35c-.82-.26-1.21-.32-2.05-.49-.09-.02-.8-.26-.88-.29-.2-.09-.05-.37-.11-.43s-.99,0-1.34-.09c-.38-.11-.79-.66-.85-.67-.77-.16-1.5-.06-2.52-.3-.24-.06-.52.04-.73,0-.18-.03.03-.4-.17-.47-.12-.04-.36.03-.54-.03-.43-.13-.66-.45-1.16-.12.33-1.06-1.01-.4-1.2-.6-.06-.06.08-.64-.02-.74-.05-.05-.36.04-.41-.02-.09-.09.04-.69-.02-.94-.03-.11-.27-.09-.29-.2-.11-.45.09-1.16,0-1.61-.04-.18-.43.02-.47-.16-.12-.63.09-1.65,0-2.37-.07-.58-.71-1.71-.74-1.83-.1-.46.1-1.14,0-1.59-.03-.11-.27-.09-.29-.21-.12-.51.24-1.22-.3-1.62.36-.09,1.14-.17,1.45-.03Z" fill="#87553a"/></svg>