<svg xmlns="http://www.w3.org/2000/svg" viewBox="0 0 97.76 166.11" xmlns:v="https://vecta.io/nano"><path d="M75.65 24.94l-17.02 3.41c-4.29-2.71-8.53-5.6-12.66-8.54-3.58-2.55-8.68-7.13-12.28-9.08-.55-.3-1.04-.41-1.66-.35.03-.21-.02-.45.14-.63.63-.74 5.68-.89 6.05-1.54V7.9c3.97.29 7.83-1.94 11.77-1.41l24.71 17.4.95 1.06z" fill="#393939"/><path d="M24.28,51.91c1.03-.11,4.8,2.45,5.1,3.1.95,2.1-.75,6.79-.09,9.07.36,1.23,4.11,2.49,4.73,3.94.87,2.06-.7,6.66-.08,8.76.33,1.12,4.14,3.06,5.13,4-.02,1.22-.17,2.43-.25,3.66-.68.04-4.44.75-4.59.98-.46.7.1,3.44-.88,3.92-5.34.71-11.17,2.85-16.5,3.16l.31-8.37,5.26,3.41,1.86-35.64Z" fill="#030303"/><path d="M15 26.18c.62-.08 1 .23 1.47.54 1.35.88 2.65 2.09 3.79 2.87l-.35 6.31c-.03.38-.08 2.33-.89 2.05-.43-.45-4.28-3.16-4.64-2.79l-.31 9.3-.62 5.73v5.27c0 2.01-.5 4.83-.62 6.97-.14 2.52.25 7.44 0 9.3l-.93 8.06c-1.06-.26-5.19-2.97-5.23-3.85l2.44-44.61 5.54-1.49.35-3.68z" fill="#101110"/><path d="M24.28 50.98c-.02.31.01.62 0 .93l-1.86 35.64-5.26-3.41-.31 8.37c-.19.01-.38.4-.91.16-.46-.21-4.19-3.14-4.29-3.48-.48-1.63.14-7 .25-9.08l5.56-.94c-.01-1.45.2-2.89.32-4.33l.31-6.98c0-1.61.26-.9.31-1.7.31-5.96.29-12.01.93-17.98l4.95 2.79z" fill="#0e0e0e"/><path d="M80.6 38.58c-.64 1.97.21 6.57-.79 8.05-.3.45-4.49 1.38-5.4 1.56-.46.09-1.11-.08-1.66.03l-9.48 1.83c-.84.74 3.9 2.77 3.71 3.72-3.18.68-6.57 1-9.59 2.17-.01-.04-.58-.6-.62-.62l.62-8.68c.39-.46 4.61 3.64 5.26 3.1l.62-8.06 17.33-3.1zm-4.95-13.64l-.31 8.68c-.69.17-1.17.53-1.9.73-3.17.86-11.43 2.78-14.43 2.92-.51.02-.84-.16-1.31-.24l.93-8.68 17.02-3.41z" fill="#282828"/><path d="M62.34 63.06c.09.18.44.38.34.76l-.65 8.23-17.02 3.41c-.05-.1-.29-.15-.31-.46l.62-8.53 17.02-3.41zm4.95 13.02c.5 2.07-.89 6.28-.31 8.68-5.73 1.25-11.5 2.79-17.33 3.41a244.6 244.6 0 0 0 .31-8.99c5.84-.64 11.49-2.6 17.33-3.1z" fill="#251902"/><path d="M90.5,149.85c-.08,1.37-.23,8.29-.82,8.71l-15.79,3.36c-.6.29-1.02-.21-1.33-.29l.62-8.68,17.33-3.1Z" fill="#0c0802"/><path d="M80.91 123.5l-16.4 3.41c-.2-.02-.43.04-.62 0l.31-8.68 17.02-3.72c.4.79.36 1.11.32 2.03l-.63 6.96zm5.26 4.03l-.31 8.99-17.02 3.41c-.47-2.78.05-6.13.31-8.99l17.02-3.41zm-9.6-25.72l-.31 8.68c-.48.25-.87.47-1.42.59-5.17 1.14-10.43 1.99-15.59 3.13h-.31v-.31c.16-2.88.49-5.79.62-8.68l17.02-3.41zm-4.64-13.02l-.31 8.99-16.71 3.41c-.04-.07-.45-.14-.56-.51l.56-8.47 17.02-3.41zm18.88 52.07l-.31 8.99-17.33 3.1v-.31l.62-8.68c5.11-.8 10.39-2.55 15.47-3.28.58-.08 1.02-.23 1.55.18zM51.82 51.91l3.92 3.06c.35.25.85.23 1.03.35.04.02.61.58.62.62.24.77-.17 2.49 0 3.41l-16.71 3.1c-.06-.12-.55-.1-.55-.69l.55-7.98c.32-.7 8.48-1.48 9.59-2.48.33.22 1.23.4 1.55.62z" fill="#251902"/><path d="M38.21 7.89v.31l-16.58 3.07-.43.81-.32 7.14c-.07.95.15.8-.93.76-1.34-1.09-2.74-2.86-4.64-2.79.02-.41.27-.89.31-1.39.09-1.43-.04-7.29.59-8.1l.57-.35 16.01-3.2c.95.05 5.23 2.98 5.42 3.74z" fill="#62491d"/><path d="M62.65 145.51l5.26 3.41c1.67 1.18 3.21 2.97 5.26 3.72v.31l-.62 8.68c-.54-.14-.7-.1-1.28-.41-2.89-1.57-6.02-4.8-8.9-6.61l-.25-.61.53-8.49z" fill="#1a1409"/><path d="M75.34,33.62c.25,1.05,5.01,3.01,5.26,4.96l-17.33,3.1c-.23-.95-4.05-3.63-5.26-3.72-.04-.24-.35-.59-.31-.93.47.08.8.26,1.31.24,3-.13,11.26-2.06,14.43-2.92.73-.2,1.22-.56,1.9-.73Z" fill="#393939"/><path d="M85.86 136.52l5.23 3.92c.06.23-.28.39-.28.42-.53-.41-.97-.26-1.55-.18-5.08.73-10.36 2.48-15.47 3.28-1.59-1.39-3.73-2.24-4.95-4.03l17.02-3.41zm-4.65-22.01l-17.02 3.72-4.95-4.03c5.17-1.14 10.43-1.99 15.59-3.13.55-.12.94-.34 1.42-.59.93 1.47 4.26 2.66 4.95 4.03zm4.96 13.02l-17.02 3.41c-1.63-.86-3.41-2.03-4.64-3.41.06-.06-.04-.45 0-.62l16.4-3.41 5.26 4.03zM66.98 84.76l4.95 4.03-17.02 3.41-5.26-3.41v-.31-.31c5.83-.62 11.6-2.16 17.33-3.41zm-4.95-12.71c.88.79 5.06 3.19 5.26 4.03-5.83.5-11.48 2.46-17.33 3.1-.7-.12-4.58-3.02-4.95-3.72l17.02-3.41zm9.59 25.73c1.54 1.47 3.66 2.32 4.95 4.03l-17.02 3.41c-1.63-1.46-3.6-2.08-4.64-4.03l16.71-3.41zM57.39 59.34c.36.05 3.52 2.26 4 2.66.39.33.72.58.95 1.06l-17.02 3.41c-1.77-1.35-3.54-2.01-4.64-4.03l16.71-3.1z" fill="#362914"/><path d="M63.27 136.52c2 .8 3.55 2.39 5.27 3.63l-.62 8.77-5.26-3.41c-.07-.05-.25-.02-.31-.16 0-.15-.02-.31 0-.46.08-.68.55-1.75.61-2.64.14-1.91-.15-3.83.31-5.73z" fill="#8f6c2a"/><path d="M63.89,126.91c.19.04.42-.02.62,0-.04.17.06.56,0,.62-.22.22-.61-.29-.84,1.16-.36,2.27.21,4.96-.7,7.21-1.67-.55-3-2.85-4.95-2.79,0-.12-.33-.58-.31-.93.06-1.07.57-2.75.62-3.88.05-1.21.18-3.39,0-4.49,2.07.03,3.69,2.75,5.57,3.1Z" fill="#62491d"/><path d="M49.65 88.48v.31c-.15 2.72-.13 5.84-.93 8.37l-4.95-3.41v-.31l.31-8.37c2.15.32 3.8 2.28 5.57 3.41zm9.29 25.41v.31l-.3 7.3c-.06.56.11 1.16-.63 1.38-1.36-.7-2.56-1.72-3.81-2.59-.45-.32-.24-.63-1.14-.19v-1.24c0-.05.3-.35.32-.75l.3-7.31c2.01.3 3.36 2.45 5.26 3.1z" fill="#8f6c2a"/><path d="M53.37 110.18c-.55-.76-3.55-2.75-4.64-2.79-.36-.21-.57-1.19-.62-1.24 1.12-1.13.58-3.84.61-5.44.02-.89.43-1.69.32-2.62 1.18-.02 4.93 2.73 5.2 3.63l-.23 7.08c-.03.58.07 1.16-.64 1.38z" fill="#62491d"/><path d="M25.52 42.92c.96.98 2.92 1.69 4.02 2.79.12.12-.08.62.62.93.01 2.27-.86 6.37-.25 8.46.31 1.05 3.41 2.33 4.27 3.32.14.16.59.79.62.93.44 2.17-.94 6.05-.25 8.46.37 1.26 3.85 2.76 4.58 3.63a9.21 9.21 0 0 1 .31.93c.36 2.45-.84 6.11-.25 8.15.27.93 3.82 3.23 4.89 3.63-.02.31.02.62 0 .93l-.31 8.37c-.99-.36-4.76-2.66-5.1-3.41-.43-.96.07-4.24.15-5.58l.25-3.66c-.99-.94-4.81-2.88-5.13-4-.61-2.1.95-6.7.08-8.76-.61-1.46-4.37-2.71-4.73-3.94-.66-2.29 1.04-6.97.09-9.07-.3-.66-4.07-3.21-5.1-3.1V51l.62-6.99c.02-.6-.31-1.24.62-1.07zm18.26 50.83l4.95 3.41c-.05.33.28.71.31.93.11.93-.31 1.74-.32 2.62-.03 1.6.52 4.31-.61 5.44-.2-.19-1.88-1-2.44-1.43-.61-.46-2.28-1.56-2.46-2.21l.57-8.76zm19.18 42.15l.31.62c-.46 1.9-.18 3.82-.31 5.73-.06.89-.54 1.96-.61 2.64l-4.9-3.3c-.07-2.83.42-5.67.57-8.47 1.95-.06 3.28 2.24 4.95 2.79zM19.95 19.98c.17.14.18.39.62.62.06 3-.14 6-.31 8.99-1.14-.77-2.45-1.98-3.79-2.87-.47-.31-.85-.62-1.47-.54l.31-8.99c1.9-.08 3.3 1.7 4.64 2.79zm33.11 100.11c.9-.44.69-.12 1.14.19 1.25.87 2.45 1.89 3.81 2.59-.04.34.27.69.31.93.18 1.1.05 3.28 0 4.49-.05 1.13-.56 2.81-.62 3.88l-4.89-3.62.25-8.47zm.31-9.91c.09.12.06.49.31.62l-.3 7.31c-.02.4-.32.71-.32.75-.85.22-4.78-2.64-4.9-3-.61-1.79.28-6.46.57-8.47 1.09.04 4.09 2.03 4.64 2.79z" fill="#1a1409"/><path d="M74.41,48.19c-.15.99.35,3.23-.3,3.88-.46.45-5.99,1.45-7.13,1.7.19-.95-4.55-2.98-3.71-3.72,3.21-.31,6.33-1.19,9.48-1.83.55-.11,1.2.06,1.66-.03Z" fill="#0e0e0e"/><path d="M17.78 74.84l-.32 4.33-5.56.94v-.31c.15-2.8.58-5.47.93-8.06l4.95 3.1z" fill="#030303"/><path d="M58.63 28.35l-.93 8.68c-1.39-.7-2.67-1.82-3.92-2.75-.34-.25-.89-.25-1.03-.35l-4.95-3.72-10.83-7.75c-.78-.54-4.6-3.86-5.26-3.41-.57 2.62-.18 5.39-.62 8.06-.13-.07-.59.03-.9-.17-1.26-.81-2.57-2.08-4.05-2.31.03-.33-.14-.66-.31-.93l.75-8.7c.39-.55 4.21-.56 5-1.19s.28-2.47.44-3.44a2.67 2.67 0 0 1 1.66.35c3.61 1.96 8.7 6.53 12.28 9.08 4.13 2.94 8.37 5.84 12.66 8.54z" fill="#3d3d3d"/><path d="M38.21 8.2c-.37.65-5.42.8-6.05 1.54-.15.18-.1.42-.14.63-.15.97.38 2.79-.44 3.44s-4.61.64-5 1.19l-.75 8.7c-1.52-.68-2.81-1.86-4.16-2.82-.43-.3-.92-.19-1.1-.28-.44-.23-.45-.48-.62-.62 1.08.04.86.19.93-.76l.32-7.14.43-.81L38.21 8.2z" fill="#3a2b0f"/><path d="M47.8 30.21c-1.18 2.64-.39 5.83-.93 8.68-.17-.12-.63-.17-.97-.41-1.13-.8-8.54-6.52-9.08-6.41-.38.08-.45.73-.49 1.07-.25 2.18-.13 5.01-.29 7.3l-5.26-2.79c-.31-1.51-3.94-3.46-5.26-4.34-.57 2.68-.18 5.51-.65 8.24-.09.2.59 1.31.64 1.36-.93-.17-.6.47-.62 1.07-.09 2.37-.47 4.74-.62 6.99l-4.95-2.79c-.64 5.96-.62 12.02-.93 17.98-.89.11-.54-.78-1.24-1.39-.89-.77-3.14-2.15-4.33-2.33.12-2.14.62-4.96.62-6.97V50.2c0-1.55.52-4.11.62-5.73 1-.29 4.86 3.56 5.26 3.1l.33-8.54c-.19-.17-.6-1.02-.64-1.07.81.28.86-1.67.89-2.05.16-2.08.23-4.23.35-6.31.57.38 5.05 3.32 5.26 3.1-.09-2.45.17-4.86.3-7.31.02-.4.32-.69.32-.75 1.49.23 2.79 1.5 4.05 2.31.31.2.77.1.9.17.29.16.53 1.06 1.08 1.55.43.38 4.23 3.07 4.49 2.79l.31-8.99c3.68 2.53 7.22 5.13 10.83 7.75z" fill="#c9c9c9"/><path d="M12.83 62.44c1.18.18 3.44 1.56 4.33 2.33.7.61.35 1.5 1.24 1.39-.04.79-.31.08-.31 1.7l-.31 6.98-4.95-3.1c.25-1.86-.14-6.78 0-9.3zm6.19-24.48s.45.9.64 1.07l-.33 8.54c-.4.46-4.26-3.39-5.26-3.1l.31-9.3c.36-.37 4.21 2.34 4.64 2.79z" fill="#d5d5d5"/><path d="M63.27 41.68l-.62 8.06c-.64.54-4.86-3.56-5.26-3.1l-.62 8.68c-.18-.11-.68-.1-1.03-.35l-3.92-3.06.31-9.3c.76.11 4.69-.44 5.25-.78.76-.47.76-3.04.62-3.87 1.21.09 5.03 2.76 5.26 3.72z" fill="#3d3d3d"/><g fill="#3a2b0f"><path d="M40.68 53.77l-.55 7.98c0 .6.48.58.55.69 1.1 2.02 2.87 2.68 4.64 4.03L44.7 75c.02.31.26.36.31.46.37.7 4.25 3.6 4.95 3.72l-.31 8.99v.31c-1.77-1.13-3.42-3.09-5.57-3.41.02-.31-.02-.62 0-.93 0-.06.27-.25.29-.49.11-1.95.73-6.38.27-7.97-.19-.64-4.12-3.58-5.2-3.32a9.21 9.21 0 0 0-.31-.93c.71-.22.6-.8.64-1.38l.3-7.39c-1.66-1.15-3.19-2.94-5.27-3.32-.03-.14-.48-.77-.62-.93.8.23.84-.97.89-1.43l.35-6.63c1.94.53 3.65 2.25 5.26 3.41zm23.52 64.46l-.31 8.68c-1.88-.35-3.5-3.07-5.57-3.1-.04-.24-.35-.59-.31-.93.74-.23.58-.82.63-1.38.25-2.49.16-4.86.3-7.3h.31l4.95 4.03zm.31 9.3c1.23 1.38 3.01 2.55 4.64 3.41-.26 2.86-.77 6.21-.31 8.99 1.22 1.79 3.36 2.64 4.95 4.03l-.62 8.68c-2.05-.75-3.53-2.5-5.26-3.72l.62-8.77c-1.71-1.24-3.26-2.83-5.27-3.63l-.31-.62c.91-2.25.34-4.94.7-7.21.23-1.45.63-.94.84-1.16z"/><path d="M54.91 92.2l-.56 8.47c.11.37.52.45.56.51 1.05 1.95 3.01 2.57 4.64 4.03l-.62 8.68c-1.9-.65-3.25-2.8-5.26-3.1-.25-.13-.22-.5-.31-.62.71-.22.6-.8.64-1.38l.23-7.08c-.26-.89-4.01-3.64-5.2-3.63-.02-.22-.36-.6-.31-.93.8-2.53.78-5.65.93-8.37l5.26 3.41z"/></g><path d="M46.87 38.89c.12.08.29.52.63.75.9.62 3.85 2.85 4.63 2.97l-.31 9.3c-.32-.22-1.22-.4-1.55-.62-1.42-.96-3.5-3.38-5.26-3.41 0-.66-.39-.85-.82-1.19-2.61-2.08-5.63-3.74-8.15-5.94v-.31c.16-2.29.04-5.12.29-7.3.04-.34.1-1 .49-1.07.54-.11 7.95 5.61 9.08 6.41.34.24.79.29.97.41z" fill="#0e0e0e"/><path d="M45.01 47.88c1.76.03 3.84 2.45 5.26 3.41-1.11 1-9.27 1.78-9.59 2.48-1.61-1.16-3.32-2.88-5.26-3.41v-.62c.08.02.2 0 .31 0 2.46.06 6.67-1.9 9.28-1.86z" fill="#362914"/><path d="M57.7 37.03c-.04.34.27.69.31.93.14.83.14 3.4-.62 3.87-.56.34-4.5.89-5.25.78.02-.41.27-.89.31-1.39l.31-7.29c.14.1.69.1 1.03.35 1.25.93 2.53 2.05 3.92 2.75z" fill="#c9c9c9"/><path d="M44.08,84.14c-1.06-.4-4.62-2.7-4.89-3.63-.59-2.04.61-5.7.25-8.15,1.07-.26,5.01,2.68,5.2,3.32.47,1.59-.16,6.01-.27,7.97-.01.24-.28.43-.29.49Z" fill="#62491d"/><path d="M25.83 23.7c.17.27.34.6.31.93 0 .06-.3.35-.32.75l-.3 7.31c-.21.23-4.69-2.71-5.26-3.1l.31-8.99c.18.09.67-.02 1.1.28 1.35.96 2.64 2.13 4.16 2.82z" fill="#8f6c2a"/><path d="M52.75 33.93c-.23 2.41-.16 4.88-.31 7.29-.03.5-.28.98-.31 1.39-.79-.12-3.73-2.35-4.63-2.97-.33-.23-.51-.67-.63-.75.54-2.85-.25-6.04.93-8.68l4.95 3.72zM36.97 22.46l-.31 8.99c-.26.29-4.06-2.41-4.49-2.79-.56-.49-.79-1.39-1.08-1.55.44-2.67.05-5.44.62-8.06.66-.45 4.48 2.87 5.26 3.41zm-6.19 15.19c-.46 2.27-.06 4.69-.34 6.95-.06.52-.13 1.28-.9 1.11-1.11-1.1-3.06-1.81-4.02-2.79-.05-.05-.73-1.16-.64-1.36.46-2.74.08-5.56.65-8.24 1.32.88 4.95 2.83 5.26 4.34z" fill="#d5d5d5"/><path d="M34.8 59.34c2.08.38 3.61 2.17 5.27 3.32l-.3 7.39c-.04.58.07 1.16-.64 1.38-.72-.86-4.21-2.37-4.58-3.63-.7-2.4.68-6.29.25-8.46z" fill="#8f6c2a"/><path d="M35.42 49.74v.62c0 1.85-.16 4.78-.35 6.63-.05.45-.09 1.65-.89 1.43-.86-.99-3.96-2.27-4.27-3.32-.61-2.09.26-6.19.25-8.46.3.13.78.03 1.34.36 1 .58 3.09 2.53 3.92 2.74z" fill="#62491d"/><path d="M36.04 40.44v.31l-.3 4.51c-.08 1.52-.8 3.02-.01 4.48-.11 0-.23.02-.31 0-.83-.22-2.93-2.16-3.92-2.74-.56-.33-1.03-.22-1.34-.36-.7-.31-.5-.81-.62-.93.76.17.83-.59.9-1.11.28-2.26-.12-4.68.34-6.95l5.26 2.79z" fill="#3a2b0f"/><path d="M45.01 47.88c-2.61-.05-6.82 1.92-9.28 1.86-.78-1.46-.06-3.03.01-4.48l.3-4.51c2.53 2.2 5.54 3.86 8.15 5.94.44.35.83.53.82 1.19z" fill="#251902"/></svg>