<svg xmlns="http://www.w3.org/2000/svg" viewBox="0 0 97.76 166.11" xmlns:v="https://vecta.io/nano"><style><![CDATA[.Q{fill:#341a57}.R{fill:#4f2d7c}.S{fill:#3e1f6b}.T{fill:#301842}.U{fill:#674eaa}.V{fill:#533188}.W{fill:#482b70}.X{fill:#9974e5}.Y{fill:#271232}.Z{fill:#975494}.a{fill:#7e51b2}]]></style><path d="M86.47,127.84l-16.99,3.44c-.17,2.87-.64,5.82-.51,8.67l.9.28,15.45-3.08c.25-.07.78-1.83.84-2.17-.17,1.05.1,2.1.93,2.79.1,1.23.04.76-.75.94-5.06,1.13-10.26,1.89-15.2,3.39-.61.93.12,9.16.94,10.24.18.24,1.16.88,1.39.93l-.31,9.3h-.62c-.81-1.11-2.01-1.99-3.09-2.79.4-.35.54-.92.59-1.42.33-3.21.95-6.8-1.83-9.12.46-2.69.48-5.7.55-8.46-.31-1.03-4.03-3.48-5.2-3.94-.14-.11-.33-.46-.31-.62,0-.02.24.05.25-.21.12-2.44.66-5.34.63-7.72,0-.34-.13-.48-.27-.75h.31l16.65-3.46c.5-.86.32-1.81.36-2.74.01-.26.01-.54.31-.62-.02.87-.18,2.74.15,3.41.41.84,4.54,2.64,4.8,3.72Z" class="V"/><path d="M90.81,151.4c-.04.59-.27,1.14-.31,1.7-.12,1.92.3,3.95-.5,5.77l-16.52,3.69h-.31l.31-9.3c.1.02.21-.01.31,0l16.22-3.38.79,1.52Z" class="S"/><path d="M91.12,140.86h.31v2.79c-.83,2.5-.46,5.19-.62,7.75l-.79-1.52-16.22,3.38c.03-1.46-.14-8.33.74-9.02l16.58-3.38Z" class="R"/><path d="M75.95 25.25L59.23 28.5c-.51.4-1.16 8.01-.61 9.15h-.31l-12.9-9.24c-.9-.64-2.23-1.15-2.88-1.61-.19-.13-1.66-1.81-2.17-2.17l-1.55-10.54c.51.09 1.09-.03 1.61-.09 4.13-.43 9.49-1.86 13.7-2.71.53-.11 1.08-.05 1.4-.62 6.07 4.23 12.47 8.24 18.35 12.76.51.39 1.94 1.29 2.07 1.8z" fill="#4a2959"/><path d="M29.54 64.3c.28 1.22 4.22 2.83 4.89 4.25.69 2.34-.94 6.88-.09 8.77.32.7 4.19 3.09 5.1 3.72v.31l-.31 3.41c-.8.12-4.23.62-4.57 1-.71.8-.02 3.66-.68 4.12-5.05.61-10.44 2.64-15.42 3.16-.52.05-1.09.18-1.61.09l.62-8.68 5.26 3.41c-.04-2.38.14-4.77.31-7.13.13-1.8.62-4.37.62-6.04v-5.58c0-.89.24-2.73.31-3.87l5.57-.93z" fill="#15041e"/><path d="M13.14 61.82l-.94 17.21c-.02.61.19 1.19.31 1.78.95.17 4.34 3.61 4.96 3.01.41-1.64.2-3.31.31-4.96l5.26 1.86-.31 7.13-5.26-3.41-.62 8.68c-.49-.09-4.61-3.01-4.79-3.41-.96-2.12.77-7.61-.17-9.36-.5-.94-4.67-2.87-4.89-3.87.58-7.04.82-14.11 1.19-21.17 3.35.21 3.01 4.59 4.95 6.51z" class="Y"/><path d="M53.37,110.18c.1.07.19.66.62.93.39,2.47-.92,6.15-.25,8.46.41,1.4,3.81,2.71,4.58,3.63.03.04.3.84.31.93.36,2.44-.81,6.48-.17,8.39.33.99,3.76,3.01,4.82,3.7-.02.16.17.51.31.62l-.56,8.14c.25,1.18,3.2,3.09,4.27,3.95-.33,2.29-.15,4.65-.35,6.94-.04.45-.09,1.66-.89,1.43-.74-.56-3.44-1.91-3.67-2.7.16-2.9.58-5.89.41-8.76-.8-1.36-4.66-2.99-5.03-4.25-.54-1.84.84-6.56.33-8.69l-4.98-4.02c-.23-2.46.29-4.75.25-7.23.49-.2.49-1.35,0-1.55-.01-.11.03-.23,0-.31l-.31-.31c-.71-.74-4.38-2.68-4.59-3.31-.2-2.83.13-5.65.26-8.47,1.65,0,3.27,1.53,4.64,2.48Z" class="Q"/><path d="M50.89,7.27c-2.3.59-16.11,2.49-17.02,3.41-1.35,1.36.99,7.87.62,9.92-.6-.43-1.47-1-2.17-1.24,0-.14-.33-.62-.31-.93.05-.72-.05-1.45,0-2.17.14-2.14.52-4.33.65-6.48,1.66-.46,3.43-.55,5.09-.95.53-.13.9.3.75-.63l-16.84,3.37-.8,8.71c-.38-.45-2.22-1.17-2.78-1.55-.25-.17-1.8-2.01-2.16-1.55.31.69-.27,1.49-.31,1.86l.61-10.7.53-.71,16.34-3.18c1.89.09,4.5,3.44,6.21,3.73,2.46.42,9.03-2.43,10.89-1.62.41.18.55.62.69.7Z" class="V"/><path d="M75.95,25.25l-.31,8.99-17.02,3.41c-.55-1.15.1-8.75.61-9.15l16.72-3.25Z" class="T"/><path d="M67.6 76.39c.35 1.51-.4 4.83-.31 6.82-.67.54.11 1.81-.83 2.11l-16.5 3.16.31-8.68 17.33-3.41z" class="Q"/><path d="M86.47 127.84c-.08 2.2.08 4.99-.31 7.13-.06.34-.59 2.1-.84 2.17l-15.45 3.08-.9-.28c-.13-2.85.34-5.79.51-8.67l16.99-3.44zM63.58 50.36c-.92-2.75.18-5.83 0-8.68l16.56-3.1c.81-.12.45 1.86.46 2.48.03 1.35.2 4.87-.48 5.88-.62.92-4.28.84-5.4 1.56l-11.14 1.86z" class="S"/><path d="M14.69 30.52c-.08 1.42.11 3.4 0 5.27l-.31 8.68-.62 9.3-.62 8.06c-1.94-1.92-1.6-6.3-4.95-6.51l1.28-23.67c.23-.67 4.28-1.14 5.22-1.13z" class="T"/><path d="M54.6,99.64c0-.14.29-.63.31-1.07.04-1.02.05-5.44.61-5.91,4.98-.9,10.38-2.61,15.36-3.21.95-.11,1.57-.38,1.35.89,0,2.28-.22,4.54-.31,6.82l-17.02,3.41c-.01-.12-.31-.35-.31-.93Z" class="S"/><path d="M52.13 51.91c.56.38 1.58 1.53 2.38 2.11s1.85 1.51 2.88 1.61c.02.43.31.59.31.62.08 1.02-.05 2.08 0 3.1l-16.71 3.41c-.2-.02-.43.04-.62 0l.62-8.68c2.67-1.02 5.84-1.05 8.53-1.84.61-.18 1.09-.04 1.06-.95.6.4 1.42.53 1.55.62z" class="Q"/><path d="M81.52 120.71c-.3.08-.3.36-.31.62l-17.02 3.41v-.31l.61-6.05 16.72-3.56c.72 1.32.03 4.19 0 5.89z" class="S"/><path d="M62.65 65.54v3.41l-17.33 3.1v-.31c.04-1.4.58-3.83.31-4.96l16.27-3.39c1.04.02.71 1.43.74 2.15zm14.23 39.99v1.55c-.5.26-.29 1.05-.31 1.55-.08.7.05 1.46 0 2.17-5.55 1.62-11.37 2.43-17.02 3.72-.34-1.4.25-4.01 0-5.58.1.03.21-.02.31 0l17.02-3.41z" class="Q"/><path d="M76.88 103.98v-1.86l-16.5 3.16c-.99.37-.36 2.76-.52 3.66-.1-.02-.21.03-.31 0-2.57-.68-3.79-4.6-4.33-6.82l16.69-3.42c.07-.51 0-1.02.02-1.54.39.1.43 1.07.79 1.54 1.13 1.47 5.67 2.59 4.16 5.28zm3.72-62.92c-.01-.62.35-2.6-.46-2.48l-16.56 3.1c.18 2.85-.92 5.93 0 8.68v.31l-3.71-2.48.62-8.99c1.04.18 13.21-2.61 15.34-3.08.52-.11 1.16.1 1.37-.64 2.24 1.42 4.8 2.14 3.4 5.58z" class="V"/><path d="M18.09,18.74c.04,2.45.83,5.25,2.48,7.13-.23,4.11-.07,8.3-.62,12.4-.18-.08-.57.02-.9-.17-1.45-.81-2.62-2.43-4.36-2.31.11-1.87-.08-3.85,0-5.27.03-.51.62-1.92.62-2.32v-5.58c0-.66.22-2.73.31-3.56.04-.37.62-1.17.31-1.86.37-.46,1.91,1.38,2.16,1.55Z" class="Q"/><path d="M62.34 72.36c.93.8 5.04 3.08 5.26 4.03L50.27 79.8l-4.95-4.03 17.02-3.41zM57.7 59.34c.72 1.02 4.81 3.13 5.19 3.78.2.34.24 2.06-.24 2.41-.03-.73.3-2.13-.74-2.15l-16.27 3.39c-.23-.93-4.52-2.5-4.64-4.03l16.71-3.41zM50.89 7.27c1.74 1.06 3.06 2.31 4.64 3.41-.31.57-.87.51-1.4.62-4.22.85-9.57 2.28-13.7 2.71-.52.05-1.09.18-1.61.09-1.31-.24-3.64-2.75-4.95-3.41.91-.92 14.72-2.82 17.02-3.41z" class="W"/><path d="M91.12,140.86l-16.58,3.38c-.89.69-.71,7.56-.74,9.02-.1-.01-.21.02-.31,0-.23-.05-1.21-.69-1.39-.93-.82-1.08-1.55-9.31-.94-10.24,4.94-1.5,10.14-2.25,15.2-3.39.79-.18.85.3.75-.94,1,.83,3.57,1.59,4.02,3.1Z" class="U"/><path d="M72.24,90.34c.22-1.27-.4-1-1.35-.89-4.98.6-10.38,2.31-15.36,3.21-.56.48-.57,4.89-.61,5.91-.02.44-.31.93-.31,1.07-2.41-1.71-2.51-5.77-2.8-8.54-.07-.7.32-.72.32-.76l16.71-3.72c1.03.75,3.42,1.44,3.67,3.03.07.46-.27.65-.27.69Z" class="V"/><path d="M62.65 68.95c-.05 1.16-.36 2.24-.31 3.41l-17.02 3.41v-3.72l17.33-3.1z" class="T"/><path d="M59.86 108.94c.17-.9-.47-3.29.52-3.66l16.5-3.16v1.86 1.55l-17.02 3.41z" class="S"/><path d="M76.57 110.8l2.48 2.17c.18.85-.42.6-.97.72-5.23 1.07-10.45 2.24-15.74 3-.44-.07-2.7-1.84-2.78-2.17 5.65-1.29 11.46-2.1 17.02-3.72z" class="W"/><path d="M49.34 98.4c1.18-.02 4.93 2.74 5.2 3.63l-.25 7.39c-.08.95.15.8-.93.76-1.37-.95-2.99-2.49-4.64-2.48.02-.35-.32-.87-.31-.93.45-2.54.58-3.59.61-6.37 0-.7.36-1.39.32-2z" class="U"/><path d="M44.39 84.45c-.02.31.02.62 0 .93l-.24 8.15c.16.7 2.3 2.43 3.03 3.01l-.31 8.99c-.8-.58-3.09-1.79-3.35-2.71l.59-8.88c-.93-.55-4.77-2.84-5.12-3.6-.38-.85.08-4.31.15-5.58l.31-3.41 4.95 3.1zm15.47-36.26l3.71 2.48c.09.07.2.43.46.61l3.56 2.49c-.04 0-.32.28-.7.36-3.05.65-6.31 1.04-9.2 2.12 0-.03-.29-.19-.31-.62-.14-2.79.16-5.59.31-8.37.74-.02 1.54.51 2.17.93z" class="T"/><path d="M81.52,114.82l-16.72,3.56c-.31.23-.56,5.08-.61,6.05-.72.15-.67-.35-.88-.81-1.02-2.2-1.06-4.54-.98-6.94,5.29-.77,10.51-1.93,15.74-3,.55-.11,1.15.14.97-.72.75.59,1.88.76,2.48,1.86Z" class="V"/><path d="M74.72 48.5c-.15.99.35 3.23-.3 3.88-.78.78-5.55 1.11-6.82 1.39l-3.56-2.49c-.26-.18-.36-.55-.46-.61v-.31l11.14-1.86z" fill="#15041e"/><path d="M68.84 86.62l-16.71 3.72c0-.12-1.78-1.15-2.17-1.24v-.31-.31l16.5-3.16c.94-.3.16-1.58.83-2.11.09 1.95-.15 2.18 1.55 3.41zm6.81-52.38c.64.16 1.16 1 1.55 1.24-.21.75-.85.53-1.37.64-2.13.46-14.3 3.25-15.34 3.08-.47-.08-1.31-1.21-2.17-.93v-.62h.31l17.02-3.41z" class="W"/><path d="M68.22 149.23c2.78 2.32 2.16 5.9 1.83 9.12-.05.5-.2 1.07-.59 1.42l-3.4-2.48c.8.23.85-.98.89-1.43l.35-6.94c.26.21.82.22.93.31z" class="R"/><path d="M49.04 97.47l.31.93c.04.61-.32 1.31-.32 2-.02 2.78-.16 3.83-.61 6.37-.58-.32-1.02-.86-1.55-1.24l.31-8.99c.22.18 1.74.81 1.86.93z" class="Q"/><path d="M76.57,108.63c.02-.5-.19-1.28.31-1.55-.04.75-.28,1.27-.31,1.55Z" class="S"/><path d="M53.37 121.64c0-.5.06-1.08 0-1.55.49.2.49 1.35 0 1.55zm0-1.86l-.31-.31.31.31z" class="U"/><path d="M52.13 90.34s-.4.06-.32.76c.29 2.77.39 6.83 2.8 8.54 0 .58.29.81.31.93.08.65.16.95.31 1.55.54 2.22 1.76 6.14 4.33 6.82.25 1.57-.34 4.17 0 5.58.08.33 2.35 2.1 2.78 2.17-.08 2.39-.04 4.73.98 6.94.21.46.16.96.88.81v.31 2.79h-.31c-.46-.9-4.06-3.35-5.26-3.41a9.21 9.21 0 0 0-.31-.93c1.08.28.54-1.91.62-2.95.04-.49.29-1.01.31-1.39.04-1 .18-3.58-.16-4.34-.43-.94-2.99-2.16-3.86-2.79-.71-.52-.94-.44-1.24-.62-.43-.26-.52-.86-.62-.93 1.08.04.85.19.93-.76l.25-7.39c-.26-.89-4.02-3.65-5.2-3.63a10.14 10.14 0 0 0-.31-.93c.8-2.53.78-5.65.93-8.37.39.09 2.17 1.11 2.17 1.24z" class="R"/><path d="M68.22 149.23c-.11-.09-.66-.1-.93-.31-1.08-.86-4.02-2.76-4.27-3.95l.56-8.14c1.17.46 4.89 2.9 5.2 3.94l-.55 8.46z" class="X"/><path d="M63.89,127.53c.14.26.26.41.27.75.03,2.39-.52,5.28-.63,7.72-.01.26-.25.19-.25.21-1.05-.69-4.49-2.71-4.82-3.7-.63-1.91.54-5.95.17-8.39,1.2.06,4.8,2.51,5.26,3.41Z" class="U"/><path d="M81.21 121.33c-.05.93.14 1.88-.36 2.74l-16.65 3.46v-2.79l17.02-3.41z" class="Q"/><path d="M58.32 37.65v.62c0 2.8-.44 5.61-.62 8.37-1.87-.91-3.58-2.21-5.26-3.41-2.65-1.9-5.32-4.43-8.35-5.58-.31-.87-1.36-1.54-2.17-2.17l.62-8.68c.65.46 1.99.97 2.88 1.61l12.9 9.24z" fill="#ac93d0"/><path d="M34.49 20.6l5.88 4.03c.51.36 1.98 2.04 2.17 2.17l-.62 8.68-2.17-1.55c1.05.28.64-1.85.55-2.25-.24-1.11-1.17-1.66-1.54-2.48-.56-1.22-.26-3.69-1.79-3.32.05 1.87-.22 3.71-.31 5.58-.27.01-.45-.23-.62-.31l-4.02-10.54c-.12-.42.29-.97.31-1.24.69.24 1.57.81 2.17 1.24z" fill="#896ec4"/><path d="M38.82 14.09l1.55 10.54-5.88-4.03c.37-2.05-1.97-8.55-.62-9.92 1.31.66 3.64 3.17 4.95 3.41z" class="R"/><path d="M24.59 51.29c-.02.31.02.62 0 .93l-.62 13.02-.31 3.87v5.58c0 1.67-.49 4.24-.62 6.04l-5.26-1.86 1.24-22.01.62-8.37 4.95 2.79zm10.52 7.43v.93l-.31 8.77c.13.48 3.78 2.48 4.34 3.01.16.16.27.76.62.93l-.31 8.68c-.91-.64-4.78-3.02-5.1-3.72-.85-1.88.77-6.43.09-8.77-.66-1.41-4.61-3.03-4.89-4.25-.05-2.9.19-5.79.31-8.68 1.89.73 3.27 2.75 5.26 3.1z" class="T"/><path d="M29.85 55.01v.62l-.31 8.68-5.57.93.62-13.02c2.12.09 3.3 2.23 5.26 2.79z" class="Y"/><path d="M45.01 75.77c.41 2.99-.45 5.81-.62 8.68l-4.95-3.1v-.31l.31-8.68c1.67 0 4.08 3.1 5.26 3.41z" class="Z"/><path d="M19.02 56.87l-1.24 22.01c-.11 1.65.1 3.32-.31 4.96-.61.6-4-2.84-4.96-3.01-.13-.59-.33-1.17-.31-1.78.15-5.58.64-11.59.94-17.21.14-2.57.47-5.38.62-8.06 2.06.27 3.37 2.42 5.26 3.1z" fill="#ac93d0"/><path d="M55.22,111.72c.02,2.15,1.57,4.6,2.9,6.24.33.41.43.93,1.13.89-.01.38-.26.9-.31,1.39-.09,1.04.46,3.23-.62,2.95-.77-.91-4.17-2.23-4.58-3.63-.68-2.31.64-5.99.25-8.46.3.18.53.1,1.24.62Z" class="U"/><path d="M20.88 20.29l.8-8.71 16.84-3.37c.15.93-.22.5-.75.63-1.67.41-3.44.5-5.09.95l-.65 6.48-3.09.31c.7.88 1.87 2.03 3.09 1.86-.02.31.32.79.31.93-.02.27-.43.81-.31 1.24l-.62 7.13-8.74-5.96-1.47-.54c-.21-.21-.21-.82-.31-.93z" class="a"/><path d="M20.88,20.29c.1.11.09.72.31.93-.49,1.29-.23,2.58-.3,3.9-.02.4-.32.7-.32.75-1.64-1.87-2.43-4.68-2.48-7.13.57.38,2.4,1.1,2.78,1.55Z" class="R"/><path d="M32.02,16.26c-.05.72.05,1.45,0,2.17-1.22.17-2.4-.98-3.09-1.86l3.09-.31Z" class="U"/><path d="M50.27 79.8l-.31 8.68v.31c-1.76-1.05-3.46-3.24-5.57-3.41.02-.31-.02-.62 0-.93.17-2.87 1.02-5.69.62-8.68.1.02.21-.02.31 0l4.95 4.03z" class="R"/><path d="M19.33 47.57c.06.08-.05.74.31.93l-.62 8.37c-1.89-.68-3.2-2.83-5.26-3.1l.62-9.3c.93.54 4.47 2.49 4.95 3.1z" class="X"/><path d="M19.95 38.27c.46.2.32.44.31.93l-.93 8.37c-.48-.61-4.03-2.56-4.95-3.1l.31-8.68c1.74-.12 2.91 1.5 4.36 2.31.33.19.72.09.9.17z" fill="#896ec4"/><path d="M71.93,97.16c-.02.51.05,1.03-.02,1.54l-16.69,3.42c-.15-.6-.23-.9-.31-1.55l17.02-3.41Z" class="W"/><path d="M36.35 40.44c-.08 1.42-1.07 8.94-.55 9.55.12.14.52.02.55.05.11.14.05.59.45.93.87.76 4 2.26 4.19 3.1.02 2.9-.44 5.8-.62 8.68.19.04.42-.02.62 0 .12 1.53 4.42 3.1 4.64 4.03.27 1.13-.27 3.56-.31 4.96-2.23-.46-3.08-3.4-5.26-3.72l.31-5.27c-1.43-.28-3.46-3.1-5.26-3.1v-.93c0-.05.31-.5.33-1.05.06-1.56.19-4.71-.17-6.09-.32-1.24-3.37-4.44-4.81-4.64 0-.07-.57-1.19-.62-1.24.81.28.86-1.67.89-2.05.16-2.01-.18-4.03.35-6 .62-.54 3.96 3.38 5.26 2.79z" class="R"/><path d="M52.44,43.23l-.31,8.68c-.12-.08-.94-.22-1.55-.62-1.17-.78-2.8-2.24-3.71-2.79,0-3-1.31-5.68-2.25-8.44-.26-.78-.31-1.77-.54-2.41,3.04,1.15,5.71,3.68,8.35,5.58Z" class="Y"/><path d="M45.94,48.19c.06,0,.89.28.93.31.92.55,2.54,2.01,3.71,2.79.03.91-.45.78-1.06.95-2.7.79-5.86.81-8.53,1.84-.19-.84-3.32-2.34-4.19-3.1-.4-.35-.34-.8-.45-.93,2.61-.46,7.07-2.17,9.59-1.86Z" class="W"/><path d="M57.7 46.64v.62l-.31 8.37c-1.03-.09-2.06-1-2.88-1.61s-1.82-1.73-2.38-2.11l.31-8.68c1.68 1.2 3.39 2.5 5.26 3.41zm-12.38 25.1v.31 3.72c-.1-.02-.21.02-.31 0-1.18-.3-3.59-3.42-5.26-3.41-.35-.17-.45-.77-.62-.93.23-.04.87.07.93 0 .11-.13-.04-2.79 0-3.41 2.18.32 3.03 3.26 5.26 3.72z" fill="#4a2959"/><path d="M60.48 39.2l-.62 8.99c-.62-.42-1.43-.95-2.17-.93v-.62l.62-8.37c.86-.28 1.7.85 2.17.93z" class="R"/><path d="M36.04,31.14c-1.75-.79-2.81-2.26-4.64-2.48l-.31,8.06c-1.09.47-4.76-3.35-5.26-2.79l-.62,8.37-4.95-3.1c0-.49.15-.73-.31-.93.55-4.1.39-8.29.62-12.4,0-.05.3-.35.32-.75.06-1.32-.2-2.61.3-3.9l1.47.54,8.74,5.96.62-7.13,4.02,10.54Z" class="X"/><path d="M49.96 88.79v.31c-.15 2.72-.13 5.84-.93 8.37-.11-.12-1.64-.75-1.86-.93-.73-.58-2.87-2.31-3.03-3.01.26-2.7.1-5.45.24-8.15 2.11.17 3.81 2.36 5.57 3.41z" class="Z"/><path d="M59.25,118.85c-.7.05-.8-.48-1.13-.89-1.33-1.65-2.88-4.1-2.9-6.24.88.64,3.44,1.85,3.86,2.79.34.75.2,3.33.16,4.34Z" class="a"/><path d="M39.75 33.93l2.17 1.55c.81.62 1.86 1.3 2.17 2.17.23.64.27 1.63.54 2.41.94 2.76 2.25 5.44 2.25 8.44-.04-.03-.87-.3-.93-.31-.82-1.22-3.82-2.3-4.47-3.42-.49-.84-.65-3.11-1.18-4.4-.59-1.45-1.94-3.55-2.76-5-.24-.42-.1-.99-.87-.82.04-.72-.04-1.45 0-2.17 1.01.1 2.22.96 3.09 1.55z" class="T"/><path d="M36.04 31.14c.17.08.35.32.62.31-.02.31.02.62 0 .93-.04.72.04 1.45 0 2.17l-.31 5.89c-1.3.59-4.64-3.33-5.26-2.79-.53 1.97-.2 3.99-.35 6-.03.38-.08 2.33-.89 2.05-.16-.17-3.19-2.18-3.62-2.42-.34-.2-.56-.47-1.02-.37l-.31 7.3c-.03.46-.3.87-.31 1.07l-4.95-2.79c-.36-.19-.25-.85-.31-.93l.93-8.37 4.95 3.1.62-8.37c.5-.56 4.17 3.26 5.26 2.79l.31-8.06c1.83.22 2.89 1.69 4.64 2.48z" class="a"/><path d="M36.66 31.45l.31-5.58c1.53-.36 1.23 2.11 1.79 3.32.38.82 1.3 1.38 1.54 2.48.09.41.5 2.54-.55 2.25-.88-.59-2.09-1.45-3.09-1.55.02-.31-.02-.62 0-.93z" class="X"/><path d="M29.85 45.71c.05.05.61 1.17.62 1.24 0 .1-.32.62-.31 1.07.04 2.46-.21 4.61-.31 6.99-1.96-.56-3.14-2.69-5.26-2.79.02-.31-.02-.62 0-.93.01-.19.28-.61.31-1.07l.31-7.3c.46-.1.68.17 1.02.37.43.24 3.46 2.25 3.62 2.42z" class="Q"/><path d="M40.37 62.75l-.31 5.27c-.04.62.11 3.28 0 3.41-.06.07-.7-.04-.93 0-.56-.53-4.21-2.53-4.34-3.01-.12-2.94.19-5.85.31-8.77 1.8 0 3.83 2.82 5.26 3.1zm-5.26-4.03c-1.99-.35-3.37-2.37-5.26-3.1V55l.31-6.99c0-.45.32-.97.31-1.07 1.44.2 4.48 3.4 4.81 4.64.36 1.38.22 4.53.17 6.09-.02.55-.33.99-.33 1.05z" class="Z"/><path d="M36.66 34.55c.77-.17.63.4.87.82l2.76 5c.53 1.29.69 3.56 1.18 4.4.65 1.12 3.65 2.21 4.47 3.42-2.52-.31-6.99 1.4-9.59 1.86-.03-.04-.43.09-.55-.05-.52-.61.47-8.13.55-9.55l.31-5.89z" class="Q"/></svg>