<svg xmlns="http://www.w3.org/2000/svg" viewBox="0 0 97.76 166.11" xmlns:v="https://vecta.io/nano"><path d="M90.5,150.16c-.09,1.38-.23,8.29-.82,8.71l-16.82,3.69h-.31c.03-.19-.05-.46,0-.62.4-1.32.39-8.35.93-8.68l17.02-3.1Z" fill="#0c0802"/><path d="M75.65 25.25l-17.02 3.41-26.3-18.6c.03-.09-.02-.21 0-.31l4.65-.78c.52-.13 1.09.04.92-.77.1-.02.21.02.31 0 .68-.11 1.52.08 2.28-.04 2.43-.37 7.38-2.01 9.49-1.37l24.71 17.4.95 1.06z" fill="#3f403f"/><path d="M29.54 55.01v.62l-.3 8.52c.28 1.48 4.37 2.85 4.81 4.17.35 1.08.18 4.14.15 5.46-.03 1.1-.61 2.16-.26 3.33.21.72 4.23 3.43 5.2 3.94v.31l-.31 3.41c-.68.04-4.44.75-4.59.98-.46.7.1 3.44-.88 3.92l-16.8 3.47.62-8.68 5.26 3.41 1.86-35.95c2.1.32 3.11 2.72 5.26 3.1z" fill="#030303"/><path d="M20.26 29.28v.93l-.62 8.06c-1.09.37-4.76-3.33-5.26-2.79l-.31 9.3-.62 6.04v5.27c0 1.9-.51 4.65-.62 6.66l-.31 8.99c-.14 2.63-.83 5.95-.93 8.37-.96-.61-4.88-2.87-4.93-3.85L9.1 31.65c.19-.78 4.67-.82 5.29-1.27.5-.37.54-3.42.6-4.2l5.26 3.1zm4.33 22.01c-.01.15-.26.42-.31.62l-1.86 35.95-5.26-3.41-.62 8.68c-.55-.02-4.74-3.12-4.89-3.63-.51-1.73.16-6.08.25-8.15 1.21-.53 4.66 3.11 5.26 2.48l.62-8.68.31-9.3c0-.05.3-.35.32-.75.32-5.52.26-11.1.92-16.61.53-.53 4.14 3.15 5.26 2.79z" fill="#0e0e0e"/><path d="M80.6 38.89c-.64 1.97.21 6.57-.79 8.05-.31.46-4.47 1.37-5.4 1.56-.45.09-1.11-.08-1.66.03-3.15.64-6.26 1.54-9.48 1.83-.68.58 3.77 3.33 4.33 3.41-3.4.74-6.92 1.44-10.21 2.48-.01-.04-.58-.6-.62-.62l.62-8.37c1.23-.44 4.54 3.48 5.26 2.79l.62-8.06 17.33-3.1zm-4.95-13.64l-.31 8.68c-5.58 1.82-11.57 2.47-17.33 3.72.19-2.99.26-6.01.62-8.99l17.02-3.41z" fill="#2d2e2e"/><path d="M62.34 63.37c.09.18.44.38.34.76l-.65 8.23-17.02 3.41c-.06-.1-.29-.16-.31-.46l.62-8.52 17.02-3.41zm4.95 13.02c.5 2.07-.89 6.28-.31 8.68-5.06.94-10.65 2.75-15.72 3.34-.6.07-1.08.15-1.61-.24.12-2.79.29-5.58.31-8.37l17.33-3.41zm4.64 12.71l-.31 8.99-16.71 3.41c-.04-.07-.45-.14-.56-.51l.56-8.47 17.02-3.41zm13.93 38.74c.98 2.69-.42 6.11 0 8.99l-17.02 3.41c-.84-1.79.34-6.81.31-8.99l16.71-3.41zm-9.29-25.72c.68 1.57-.54 6.69-.31 8.68-5.55 1.63-11.36 2.45-17.02 3.72h-.31v-.31c.16-2.88.49-5.8.62-8.68l17.02-3.41zm14.55 39.05c0 .38-.3.9-.31 1.39l-.31 7.6-17.02 3.1c-.12-.06-.22-.27-.31-.31l.62-8.68c5.18-.8 10.62-2.64 15.78-3.28.58-.07 1-.05 1.55.18zm-10.21-17.36c-4.96.9-10.45 2.77-15.41 3.32-.53.06-1.07.16-1.61.09.15-2.88.15-5.8.31-8.68l17.02-3.72c1.06 2.12-.89 6.44-.31 8.99zM51.82 52.22l3.92 3.06c.35.25.85.23 1.03.35.04.02.61.58.62.62.24.77-.17 2.49 0 3.41l-16.71 3.1c-.04-.07-.39-.13-.46-.32l.46-8.36c.2-.44 7.09-1.64 8.2-1.86.53-.11 1.08-.05 1.4-.62.32.22 1.23.4 1.55.62z" fill="#251902"/><path d="M15.31,17.5c.02-.41.27-.89.31-1.39.09-1.43-.04-7.29.59-8.1l.57-.35,16.01-3.2c1.17.06,3.56,2.06,4.65,2.82.39.27.92.24.76.92-.1.02-.21-.02-.31,0-1.88.31-3.72.9-5.57,1.24-1.73.31-9.82,1.45-10.7,2.14-.26.2-.39.49-.43.81,0,2.29-.24,4.54-.32,6.82-.02.6.31,1.24-.62,1.07-.51-.71-3.88-2.98-4.95-2.79Z" fill="#62491d"/><path d="M62.65 145.82l3.92 2.75c.47.33 1.26.29 1.34.35 1.76 1.3 2.67 2.97 5.26 4.03.09.04.19.25.31.31-.53.32-.52 7.36-.93 8.68-.63.09-.99-.24-1.47-.54-3.01-1.9-5.93-4.59-8.92-6.59l.48-8.98z" fill="#1a1409"/><path d="M75.34 33.93c.25 1.05 5.01 3.01 5.26 4.96l-17.33 3.1c-.22-.95-4.03-3.7-5.26-3.72v-.62c5.75-1.25 11.75-1.9 17.33-3.72z" fill="#3f403f"/><path d="M80.91 123.81c1.14 1.24 3.71 2.29 4.74 3.4.3.32.15.45.21.63l-16.71 3.41c-1.89-.9-3.58-2.42-5.26-3.72v-.31c.54.08 1.08-.03 1.61-.09 4.96-.56 10.45-2.42 15.41-3.32zm4.95 13.02c1.2 1.38 3.8 2.4 4.95 3.58.26.26.31.39.31.76-.55-.23-.96-.26-1.55-.18-5.16.64-10.6 2.49-15.78 3.28-1.22-1.37-4.18-2.37-4.95-4.03l17.02-3.41zm-4.65-22.01l-17.02 3.72-4.95-4.03c5.65-1.27 11.47-2.09 17.02-3.72.93 1.47 4.26 2.66 4.95 4.03zM66.98 85.07l4.95 4.03-17.02 3.41-5.26-3.41v-.31-.62c.53.39 1.01.31 1.61.24 5.07-.58 10.66-2.4 15.72-3.34zm-4.95-12.71c.88.79 5.06 3.19 5.26 4.03L49.96 79.8c-.17-.7-4.25-2.76-4.95-4.03l17.02-3.41zm9.59 25.73c1.08 1.25 4.35 2.66 4.95 4.03l-17.02 3.41c-1.68-1.46-3.55-2-4.64-4.03l16.71-3.41zM57.39 59.65c.36.05 3.52 2.26 4 2.66.39.33.72.58.95 1.06l-17.02 3.41c-1.74-1.47-3.48-2-4.64-4.03l16.71-3.1z" fill="#362914"/><path d="M12.52 71.74c2.07.53 3.42 2.47 5.26 3.41l-.62 8.68c-.6.63-4.05-3.01-5.26-2.48 0-.14-.33-.69-.31-1.24.1-2.42.79-5.74.93-8.37z" fill="#acacac"/><path d="M63.27 136.83c2 .8 3.55 2.39 5.27 3.63l-.62 8.46c-.09-.06-.88-.02-1.34-.35l-3.92-2.75c-.07-.05-.25-.02-.31-.16 0-.15-.02-.31 0-.46.08-.68.55-1.75.61-2.64.14-1.91-.15-3.83.31-5.73zM49.65 88.79v.31c-.15 2.72-.13 5.84-.93 8.37-1.78-.92-3.35-2.24-4.95-3.41-.3-.22-.48-.52-.62-.62 1 .17.53-.51.6-1.09.28-2.08.59-4.91.32-6.97 2.15.32 3.8 2.28 5.57 3.41zm9.29 25.41v.31l-.3 7.3c-.06.56.11 1.16-.63 1.38-1.67-.62-3.08-2.76-4.95-2.79v-1.24c0-.05.3-.35.32-.75l.3-7.31c2.01.3 3.36 2.45 5.26 3.1z" fill="#8f6c2a"/><path d="M63.89 127.22v.31c-.16 2.88-.29 5.87-.93 8.68-1.67-.55-3-2.85-4.95-2.79 0-.12-.33-.58-.31-.93.06-1.07.57-2.75.62-3.88.05-1.21.18-3.39 0-4.49 1.92.02 3.83 2.85 5.57 3.1z" fill="#62491d"/><path d="M43.78,94.06c1.6,1.17,3.17,2.49,4.95,3.41-.04.33.28.7.31.93.27,1.87-.76,4.62-.29,6.68l-.64,1.38c-1.02-.74-4.55-2.39-4.9-3.64l.57-8.76Z" fill="#1a1409"/><path d="M53.37 110.49c-.48-.67-3.67-2.7-4.64-3.41-.59-.43-.57-.59-.62-.62l.64-1.38c-.47-2.06.56-4.81.29-6.68 1.18-.02 4.93 2.73 5.2 3.63l-.23 7.08c-.03.58.07 1.16-.64 1.38z" fill="#62491d"/><path d="M62.96 136.21l.31.62c-.46 1.9-.18 3.82-.31 5.73-.06.89-.54 1.96-.61 2.64l-4.9-3.3c-.07-2.83.42-5.67.57-8.47 1.95-.06 3.28 2.24 4.95 2.79zM43.78 84.45c.19.23.27.63.31.93.26 2.06-.05 4.89-.32 6.97-.08.58.4 1.26-.6 1.09-.86-.63-4.08-2.21-4.48-3.1-.44-.98.08-4.21.15-5.58l.31-3.41c1 .7 4.02 2.33 4.64 3.1zm9.28 35.95c1.87.03 3.28 2.17 4.95 2.79-.04.34.27.69.31.93.18 1.1.05 3.28 0 4.49-.05 1.13-.56 2.81-.62 3.88l-4.89-3.62.25-8.47zm-4.33-13.32c.97.71 4.16 2.74 4.64 3.41.09.12.06.49.31.62l-.3 7.31c-.02.4-.32.71-.32.75-.85.22-4.78-2.64-4.9-3-.68-2.01.44-6.84.57-9.09zM20.26 20.29l.31.62c.4 2.11-.2 6.03-.31 8.37L15 26.18l.31-8.68c1.07-.19 4.44 2.08 4.95 2.79z" fill="#1a1409"/><path d="M74.41,48.5c-.15.99.35,3.23-.3,3.88-.7.69-5.29,1.12-6.51,1.39-.56-.07-5.01-2.83-4.33-3.41,3.22-.29,6.33-1.19,9.48-1.83.55-.11,1.2.06,1.66-.03Z" fill="#0e0e0e"/><path d="M58.63 28.66c-.36 2.98-.43 5.99-.62 8.99-1.45-.83-2.67-1.98-4.05-2.93-.43-.3-1.04-.36-1.21-.48l-4.95-3.41c-3.54-2.66-7.15-5.21-10.83-7.75-.03-.02.06-.43-.22-.62-.58-.4-4.76-3.41-5.04-3.1l-.62 8.06c-.18-.1-.75.02-1.15-.23-1.19-.76-2.32-2.12-3.81-2.25.03-.33-.14-.66-.31-.93l.75-8.7c.37-.52 4.44-.44 5.16-1.34.44-.55.26-2.73.59-3.91l26.3 18.6z" fill="#434343"/><path d="M32.33 9.44v.31c-.02.1.03.22 0 .31-.32 1.18-.15 3.35-.59 3.91-.72.9-4.79.82-5.16 1.34l-.75 8.7c-1.9-.67-3.25-2.79-5.26-3.1 0-.03-.29-.59-.31-.62.93.17.6-.47.62-1.07l.32-6.82c.04-.32.17-.61.43-.81.88-.69 8.97-1.83 10.7-2.14z" fill="#3a2b0f"/><path d="M37.9 8.2c.17.81-.4.64-.92.77-1.52.38-3.1.6-4.65.78v-.31L37.9 8.2z" fill="#362914"/><path d="M34.18 58.72c.13.13.59.81.62.93.44 2.17-.94 6.05-.25 8.46.27.94 3.62 2.99 4.58 3.63-.09.23.31.77.31.93l-.31 8.37c-.97-.51-4.98-3.22-5.2-3.94-.35-1.17.23-2.23.26-3.33.03-1.32.2-4.38-.15-5.46-.43-1.32-4.53-2.7-4.81-4.17l.3-8.52c1.3.82 3.62 2.06 4.64 3.1z" fill="#1a1409"/><path d="M35.42 49.74c.19.06.47.31.62.31v.31c-.23-.03-.56-.1-.63.2-.53 2.24 0 5.15-.38 7.33-.09.52-.17.99-.85.84-1.02-1.04-3.34-2.28-4.64-3.1v-.62l.62-8.06c2.15.27 3.15 2.16 5.26 2.79zm4.02 22.93c1.07-.26 5.01 2.68 5.2 3.32.46 1.56-.13 5.52-.25 7.39-.04.59.33 1.24-.62 1.07-.62-.77-3.64-2.4-4.64-3.1v-.31l.31-8.37z" fill="#62491d"/><path d="M25.52 43.23c.69.64 2.02 1.23 2.9 1.91.32.25.4.63.59.8.26.22.77.02.84.08.04.03-.05.76.31.93l-.62 8.06c-2.15-.38-3.16-2.78-5.26-3.1.05-.2.3-.47.31-.62l.31-6.99c.03-.6-.32-1.24.62-1.07z" fill="#1a1409"/><path d="M47.8 30.83c-.52.32-.58.84-.63 1.39-.18 2.3.06 4.68-.3 6.98-3.29-2.33-6.71-4.55-10.05-6.82-.45.29-.43.6-.49 1.07-.26 2.3-.13 4.99-.29 7.3-1.56-.52-3.02-1.67-4.36-2.61-.29-.2-.8-.11-.9-.17-.11-.07-.52-1.13-1.08-1.55-1.32-1-2.74-1.95-4.17-2.79-.57 2.68-.18 5.51-.65 8.24-.08.21.59 1.31.64 1.36-.94-.17-.59.47-.62 1.07l-.31 6.99c-1.12.36-4.73-3.32-5.26-2.79-.66 5.5-.6 11.09-.92 16.61-.02.4-.32.7-.32.75-1.83-.79-3.24-2.88-5.26-3.1.11-2.01.62-4.77.62-6.66v-5.27c0-1.67.51-4.27.62-6.04 1-.29 4.86 3.56 5.26 3.1.2-3.18.14-6.43.31-9.61.15-2.66.49-5.4.62-8.06 1.15-.28 4.61 3.46 5.26 2.79-.07-2.45.2-4.85.3-7.31.02-.4.32-.69.32-.75 1.48.12 2.62 1.49 3.81 2.25.39.25.96.14 1.15.23.25.13.57 1.07 1.08 1.55s4.03 2.92 4.49 2.48l.31-8.37c3.68 2.54 7.29 5.09 10.83 7.75z" fill="#8f8f8e"/><path d="M19.64 38.27l-.31 9.61c-.4.46-4.26-3.39-5.26-3.1l.31-9.3c.5-.55 4.17 3.16 5.26 2.79z" fill="#9a9a9a"/><path d="M25.83 24.01c.17.27.34.6.31.93 0 .06-.31.35-.32.75l-.3 7.31c-.65.67-4.11-3.07-5.26-2.79.02-.31-.01-.62 0-.93.11-2.34.71-6.25.31-8.37 2.01.31 3.36 2.43 5.26 3.1z" fill="#8f6c2a"/><path d="M18.09 65.85l-.31 9.3c-1.84-.94-3.19-2.88-5.26-3.41l.31-8.99c2.02.22 3.43 2.31 5.26 3.1z" fill="#9a9a9a"/><path d="M63.27,41.99l-.62,8.06c-.71.69-4.02-3.23-5.26-2.79l-.62,8.37c-.18-.11-.68-.1-1.03-.35-1.34-.94-2.63-2.15-3.92-3.06l.31-8.99c.07.05.24-.05.31,0,.65.46,4.5,3.73,4.95,3.41.46-2.72.46-5.59.62-8.37,1.23.02,5.04,2.77,5.26,3.72Z" fill="#434343"/><g fill="#3a2b0f"><path d="M36.04 50.36l4.64 3.72c-.32 2.76-.41 5.64-.46 8.36.07.19.42.25.46.32 1.16 2.03 2.9 2.56 4.64 4.03l-.62 8.52c.02.31.25.36.31.46.7 1.27 4.78 3.33 4.95 4.03l-.31 8.37v.62c-1.77-1.13-3.42-3.09-5.57-3.41-.04-.3-.12-.7-.31-.93.95.17.58-.48.62-1.07.12-1.86.7-5.83.25-7.39-.19-.64-4.12-3.58-5.2-3.32 0-.16-.4-.7-.31-.93.02-.05.49-.07.61-.77-.38-2.28.87-5.56.25-7.69-.26-.89-3.98-3.7-5.2-3.63-.02-.12-.49-.8-.62-.93.67.15.76-.32.85-.84.39-2.18-.15-5.09.38-7.33.07-.3.4-.23.63-.2zm18.87 42.15l-.56 8.47c.11.37.52.45.56.51 1.09 2.03 2.96 2.57 4.64 4.03l-.62 8.68c-1.9-.65-3.25-2.8-5.26-3.1-.25-.13-.22-.5-.31-.62.71-.22.6-.8.64-1.38l.23-7.08c-.26-.89-4.01-3.64-5.2-3.63-.03-.23-.35-.6-.31-.93.8-2.53.78-5.65.93-8.37l5.26 3.41zm14.24 38.74c.03 2.18-1.15 7.2-.31 8.99.77 1.66 3.73 2.66 4.95 4.03l-.62 8.68c-2.59-1.06-3.5-2.72-5.26-4.03l.62-8.46c-1.71-1.24-3.26-2.83-5.27-3.63l-.31-.62c.64-2.81.76-5.79.93-8.68 1.68 1.3 3.37 2.82 5.26 3.72z"/><path d="M59.25 114.51l4.95 4.03-.31 8.68c-1.74-.25-3.65-3.08-5.57-3.1-.04-.24-.35-.59-.31-.93.74-.23.58-.82.63-1.38.25-2.49.16-4.86.3-7.3h.31z"/></g><path d="M46.87 39.2l5.26 4.03-.31 8.99c-.32-.22-1.22-.4-1.55-.62-1.49-1.02-3.34-3.37-5.26-3.41 0-.66-.39-.85-.82-1.19-2.56-2.03-5.41-3.85-8.15-5.63v-.62l.29-7.3c.05-.47.04-.78.49-1.07l10.05 6.82z" fill="#0e0e0e"/><path d="M45.01 48.19c1.92.04 3.77 2.39 5.26 3.41-.31.57-.87.51-1.4.62l-8.2 1.86-4.64-3.72v-.31c2.3.06 6.44-1.91 8.97-1.86z" fill="#362914"/><path d="M58.01 37.65v.62l-.62 8.37c-.45.32-4.29-2.95-4.95-3.41l-.32-1.69.63-7.3c.18.12.78.18 1.21.48 1.37.95 2.6 2.1 4.05 2.93z" fill="#acacac"/><path d="M52.75 34.24l-.63 7.3.32 1.69c-.07-.05-.24.05-.31 0l-5.26-4.03c.37-2.3.12-4.68.3-6.98.04-.55.11-1.07.63-1.39l4.95 3.41zm-21.66-6.82l.62-8.06c.28-.31 4.46 2.7 5.04 3.1.27.19.19.6.22.62l-.31 8.37c-.45.44-3.96-1.98-4.49-2.48s-.83-1.42-1.08-1.55z" fill="#9a9a9a"/><path d="M39.13,71.74c-.96-.64-4.3-2.69-4.58-3.63-.7-2.41.68-6.28.25-8.46,1.22-.07,4.94,2.74,5.2,3.63.62,2.13-.63,5.41-.25,7.69-.12.71-.6.73-.61.77Z" fill="#8f6c2a"/><path d="M36.04 40.75c-.01.2.01.41 0 .62 0 .05-.3.34-.32.75l-.3 7.62c-2.11-.63-3.11-2.52-5.26-2.79-.36-.17-.27-.9-.31-.93 1.19-2.54.19-5.43.93-8.06.1.06.6-.03.9.17 1.35.94 2.8 2.09 4.36 2.61z" fill="#3a2b0f"/><path d="M45.01 48.19c-2.54-.05-6.68 1.92-8.97 1.86-.15 0-.42-.25-.62-.31l.3-7.62c.03-.41.32-.7.32-.75L44.19 47c.44.35.83.53.82 1.19z" fill="#251902"/><path d="M30.78,37.96c-.74,2.63.27,5.52-.93,8.06-.08-.06-.59.15-.84-.08-.19-.17-.27-.55-.59-.8-.88-.68-2.21-1.27-2.9-1.91-.06-.05-.72-1.16-.64-1.36.46-2.74.08-5.56.65-8.24,1.43.84,2.85,1.79,4.17,2.79.56.42.98,1.48,1.08,1.55Z" fill="#9a9a9a"/></svg>