<svg xmlns="http://www.w3.org/2000/svg" viewBox="0 0 97.76 166.11" xmlns:v="https://vecta.io/nano"><path d="M62.65 145.82l3.92 2.75c.47.33 1.26.29 1.34.35.04.03.05.66.45.93 1.42 1 3.27 2.6 4.81 3.1.08.03.19.25.31.31-.65 2.94-.66 5.98-.62 8.99v.31h-.31l-10.3-7.84.4-8.9z" fill="#1a1309"/><path d="M32.64 9.44c.07.12.27.22.31.31.55 1.26 3.28 3.11 4.64 3.72 6.68 5.36 13.92 10.11 21.04 14.88-.39 2.89-.66 6.13-.47 9.01.19.29.73.24.78.29.08.09.05.58.29.78 1.03.86 1.89 1.17 3.26 1.08 2.86-.19 10.85-1.87 13.68-2.74.6-.18 1.07-.16 1.03-.99 1.47.95 2.5.66 3.09 2.79l-16.98 3.45-.66 8.33c-.97-.16-4.61-3.76-5.26-3.1l-.31 8.37c-.2-.1-.6.02-1.08-.3-1.16-.76-2.26-1.7-3.41-2.5-.36-.25-.69-.87-.77-.92-.07-2.9.16-5.79.31-8.68 1.6.61 3.36 2.81 4.83 3.38.57.22.67-.77.71-1.08.18-1.54.31-3.95.36-5.54.11-3.55-2.23-3.66-4.66-5.44-1.74-1.28-3.52-2.46-5.26-3.72-3.69-2.66-7.51-5.21-11.14-7.75-.03-.02.06-.43-.22-.62-.55-.39-4.76-3.41-5.04-3.1-.42 2.77-.31 5.57-.31 8.37-.07-.06-.61.03-.89-.18-1.39-1.01-3.08-2.44-4.68-2.92v-.31c.01-.19.28-.61.31-1.07.17-2.55.08-5.17.35-7.72.31-.91 4.26-.69 5.07-1.43s.32-3.53.46-4.66c.19-.04.43.04.62 0z" fill="#261c0a"/><path d="M29.54 55.01v.62l-.25 8.77c.18.6 4.28 3.37 5.2 3.62v.31l-.55 8.77c.3 1.02 4.14 3.21 5.19 3.94v.31l-.31 3.41c-.68.04-4.44.75-4.59.98-.46.7.1 3.44-.88 3.92l-16.8 3.47.62-8.68 5.26 3.41 1.55-31.15.62-4.5c1.91.22 3.09 2.31 4.95 2.79z" fill="#060301"/><path d="M59.56,13.78c5.45,3.58,11.01,7.39,16.09,11.47l-17.02,3.1c-7.12-4.77-14.36-9.52-21.04-14.88.3.13,2.98,1.05,3.09.93.09-.44-.16-1.6.04-1.83.34-.4,9.04-1.01,10.34-1.53,2.87.78,5.52,2.44,8.5,2.74Z" fill="#251d0f"/><path d="M20.26 29.28v.62l-.62 8.37c-2.04-.04-3.17-2.65-5.26-2.48l-.31 8.99-.62 6.66v5.27c0 1.63-.21 4.25-.31 6.04l-.62 8.99c-.15 2.68-.8 5.92-.93 8.37-.96-.61-4.88-2.87-4.93-3.85L9.1 31.65c.19-.78 4.67-.82 5.29-1.27.5-.37.54-3.42.6-4.2 2.23-.06 3.31 2.44 5.26 3.1z" fill="#141009"/><path d="M24.28 51.29c-.02.37.32.82.31.93-.08 1.29-.45 3.09-.62 4.5l-1.55 31.15-5.26-3.41-.62 8.68c-.55-.02-4.74-3.12-4.89-3.63-.51-1.73.15-6.08.25-8.15 2.18-.24 3.27 2.35 5.26 2.48l.62-8.68.31-9.3.62-6.67c.2-3.38.21-6.79.36-10.18.25-.57.38-.51.89-.38 1.44.36 2.71 2.44 4.32 2.66z" fill="#120e06"/><path d="M80.29 38.58c.06.23.51.58.33 1.05l-.68 7.59c-1.87.25-3.7.9-5.53 1.28-3.65.76-7.45 1.23-11.14 1.86-.88.75 4.04 2.45 3.4 3.72l-9.28 1.86c0-.02-.29-.3-.31-.31l.31-8.37c.65-.67 4.28 2.94 5.26 3.1l.66-8.33 16.98-3.45zm-4.64-13.33l-.31 8.99-16.4 3.41c-.05-.06-.59 0-.78-.29-.19-2.88.08-6.11.47-9.01l17.02-3.1z" fill="#170f02"/><path d="M62.34 63.37c.09.18.44.38.34.76l-.65 8.23-17.02 3.41c-.05-.09-.28-.11-.28-.43l.59-8.56 17.02-3.41zm14.23 38.75l-.31 8.68-17.02 3.72c-.11-.2-.43-.38-.34-.76l.65-8.23 17.02-3.41zm9.29 25.72c.98 2.69-.42 6.11 0 8.99l-16.71 3.41c-.04-.08-.45-.14-.56-.51l.56-8.47 16.71-3.41zM67.29 76.39c.5 2.07-.89 6.28-.31 8.68-5.72 1.3-11.51 2.73-17.33 3.41.14-2.89.3-5.79.31-8.68l17.33-3.41z" fill="#251802"/><path d="M90.5,150.16c-.09,1.38-.23,8.28-.82,8.71l-16.82,3.38c-.04-3-.03-6.04.62-8.99,5.16-.67,10.42-2.51,15.53-3.22.55-.08.96-.12,1.48.12Z" fill="#0c0802"/><path d="M91.12 141.17c-.4 2.97-.43 6-.62 8.99-.53-.24-.94-.2-1.48-.12-5.12.71-10.37 2.55-15.53 3.22-.12-.06-.23-.28-.31-.31l.62-8.68 15.72-3.34 1.61.24zM71.62 89.1c.98 2.69-.42 6.11 0 8.99l-16.71 3.41c-.04-.07-.45-.14-.56-.51l.56-8.47 16.71-3.41zm9.29 34.71c-4.96.93-10.44 2.77-15.41 3.32-.53.06-1.07.16-1.61.09.15-2.88.15-5.8.31-8.68l17.02-3.72c1.06 2.12-.89 6.44-.31 8.99zm-29.09-71.9c.08.05.42.67.77.92l3.41 2.5c.48.32.88.2 1.08.3.02 0 .3.29.31.31.25.83-.18 2.72 0 3.72-.52-.08-1.1.01-1.61.08-4.52.58-10.75 2.99-15.09 3.02-.2 0-.45.03-.62 0l.62-8.68c.18-.41 7.56-1.78 8.69-2.01.39-.08.85-.46.91-.47.08 0 1.48.27 1.55.31z" fill="#251802"/><path d="M38.52,8.2c-.07.01-.32.26-.62.31-.04,0,.01-.11-.62,0-.19.03-.42-.03-.62,0-1.43.25-2.77.7-4.02.93-.19.04-.43-.04-.62,0-1.47.27-10.12,1.77-10.55,2.29-.53,2.59-.43,5.41-.61,8.08-.02.33-.27.64-.28.79l-3.5-2.53-1.76-.57c.02-.41.27-.89.31-1.39.09-1.43-.04-7.29.59-8.1l.57-.35,16.01-3.2c1.47.07,4.43,2.8,5.73,3.74Z" fill="#654c1d"/><path d="M59.56,13.78c-2.98-.3-5.63-1.96-8.5-2.74-1.3.52-10,1.13-10.34,1.53-.19.23.05,1.39-.04,1.83-.11.12-2.8-.8-3.09-.93-1.36-.61-4.09-2.46-4.64-3.72.6-.39,3.52-.49,3.71-.63.06-.05-.02-.44,0-.61.19-.03.42.03.62,0l.19.3.43-.3c.3-.05.55-.3.62-.31.58-.09,1.3.07,1.97-.04,3.06-.47,6.16-1.67,9.26-1.45l9.81,7.06Z" fill="#281f13"/><path d="M80.91 123.81c1.14 1.24 3.71 2.29 4.74 3.4.3.32.15.45.21.63l-16.71 3.41c-1.89-.9-3.58-2.42-5.26-3.72v-.31c.54.08 1.08-.03 1.61-.09 4.97-.56 10.45-2.39 15.41-3.32zm4.95 13.02c1.18 1.37 3.84 2.41 4.95 3.58.22.23.34.42.31.76l-1.61-.24-15.72 3.34c-1.62-1.43-3.55-2.16-4.64-4.03l16.71-3.41zm-4.65-22.01l-17.02 3.72c-.17-.7-4.25-2.76-4.95-4.03l17.02-3.72c.93 1.47 4.26 2.66 4.95 4.03zM66.98 85.07c.96 1.59 4.07 2.47 4.64 4.03l-16.71 3.41-5.26-3.41v-.31-.31c5.81-.68 11.61-2.11 17.33-3.41zm-4.95-12.71c.88.79 5.06 3.19 5.26 4.03L49.96 79.8c-.17-.71-4.27-2.76-4.95-4.03l17.02-3.41zm9.59 25.73c1.54 1.47 3.66 2.32 4.95 4.03l-17.02 3.41c-1.63-1.5-3.57-2.04-4.64-4.03l16.71-3.41zM57.39 59.65c.39.06 3.51 2.25 4 2.66.39.33.72.58.95 1.06l-17.02 3.41c-1.44-1.31-3.96-2.08-4.64-4.03 4.34-.03 10.57-2.44 15.09-3.02.52-.07 1.1-.16 1.61-.08z" fill="#362914"/><path d="M63.27 136.83c2 .8 3.55 2.39 5.27 3.63l-.62 8.46c-.09-.06-.88-.02-1.34-.35l-3.92-2.75c-.07-.05-.25-.02-.31-.16 0-.15-.02-.31 0-.46.08-.68.55-1.75.61-2.64.14-1.91-.15-3.83.31-5.73zM49.65 88.79v.31c-.15 2.72-.13 5.83-.93 8.37-1.78-.92-3.35-2.24-4.95-3.41-.3-.22-.48-.52-.62-.62 1 .17.53-.51.6-1.09l.63-6.97c1.99.61 3.56 2.26 5.26 3.41zm8.67 34.4c-1.88-.26-3.28-2.82-5.26-2.79v-1.24c0-.05.3-.35.32-.75l.3-7.31c1.45.77 2.81 1.31 4.17 2.49 1.6 1.39 1.19 3.35 1.09 5.41-.06 1.23-.55 2.99-.62 4.19zM17.78 75.15l-.62 8.68c-1.99-.13-3.08-2.72-5.26-2.48.01-.33-.33-.87-.31-1.24.12-2.45.78-5.69.93-8.37 2.01.54 3.42 2.56 5.26 3.41z" fill="#8d6b29"/><path d="M63.89 127.22v.31c-.16 2.88-.29 5.87-.93 8.68-1.75-.57-2.87-2.89-4.95-2.79 0-.12-.33-.58-.31-.93l.62-8.37c2-.03 3.79 2.85 5.57 3.1z" fill="#654c1d"/><path d="M43.78,94.06c1.6,1.17,3.17,2.49,4.95,3.41-.04.33.28.7.31.93.28,1.97-.77,5.1-.31,7.29-.12.63-.6.72-.61.77-1.05-.39-4.64-2.73-4.9-3.64l.57-8.76Z" fill="#1a1309"/><path d="M53.06,110.49l-4.03-3.22-.61.43c0-.33-.39-1.01-.31-1.24.02-.05.5-.14.61-.77-.46-2.2.6-5.32.31-7.29,1.21.13,4.91,2.64,5.2,3.63-.19,2.31.02,5.17-.23,7.39-.08.7-.11,1.07-.94,1.07Z" fill="#654c1d"/><path d="M62.96 136.21l.31.62c-.46 1.9-.18 3.82-.31 5.73-.06.89-.54 1.96-.61 2.64-1.07-.41-4.61-2.69-4.89-3.63-.05-2.72.41-5.45.55-8.15 2.08-.1 3.2 2.22 4.95 2.79zM44.08 84.45l.31.93c-.44 2.32-.32 4.61-.63 6.97-.08.58.4 1.26-.6 1.09-.86-.63-4.08-2.21-4.48-3.1-.44-.97.08-4.23.15-5.58l.31-3.41 4.95 3.1zm8.98 35.95c1.98-.03 3.38 2.53 5.26 2.79-.02.31.02.62 0 .93l-.62 8.37-4.89-3.62.25-8.47zm-4.64-12.7l.61-.43 4.03 3.22c.12.34.32.46.62.62l-.3 7.31c-.02.4-.32.7-.32.75-.85.22-4.78-2.64-4.9-3-.53-1.56.27-6.4.26-8.47zM15.31 17.5l1.76.57 3.5 2.53v.31l-.31 8.37c-1.95-.66-3.03-3.16-5.26-3.1l.31-8.68z" fill="#1a1309"/><path d="M75.34,34.24c.46.06,1.45,1.29,1.86,1.55.04.83-.43.8-1.03.99-2.83.87-10.82,2.55-13.68,2.74-1.36.09-2.22-.22-3.26-1.08-.24-.2-.21-.69-.29-.78l16.4-3.41Z" fill="#251d0f"/><path d="M74.41,48.5c-.15.99.35,3.23-.3,3.88-.55.55-6.2,1.43-7.44,1.7.64-1.27-4.28-2.97-3.4-3.72,3.68-.63,7.48-1.1,11.14-1.86Z" fill="#060301"/><path d="M69.15,131.25l-.56,8.47c.11.37.51.44.56.51,1.09,1.87,3.02,2.6,4.64,4.03l-.62,8.68c-1.54-.5-3.39-2.1-4.81-3.1-.39-.28-.41-.9-.45-.93l.62-8.46c-1.71-1.24-3.26-2.83-5.27-3.63l-.31-.62c.64-2.81.76-5.79.93-8.68,1.68,1.3,3.37,2.82,5.26,3.72Z" fill="#3a2b0f"/><path d="M48.11 30.83c-.76-.17-.83.59-.9 1.11-.28 2.26.08 4.92-.34 7.26-2.6-1.86-6.58-5.03-9.17-6.46-.44-.24-.81-.44-1.35-.35l-.31 8.06c-2.16.06-3.44-2.73-5.57-2.79-.25-1.62-3.79-2.95-4.95-4.03l-.66 7.6c0 .44.42 1.75.65 2.01-.96-.17-.57.48-.61 1.07-.17 2.32-.47 4.72-.62 6.98-1.61-.21-2.88-2.3-4.32-2.66-.52-.13-.64-.19-.89.38l-.36 10.18c-.13 2.19-.49 4.48-.62 6.67-1.76-.72-3.08-2.63-4.95-3.1.1-1.79.31-4.41.31-6.04v-5.27c0-1.9.5-4.63.62-6.66 1.17-.22 4.55 3.51 5.26 2.79.22-3.08.15-6.22.31-9.3.15-2.72.46-5.61.62-8.37.96.16 4.55 3.83 5.26 3.1.26-2.77.14-5.6.31-8.37 1.6.48 3.29 1.91 4.68 2.92.28.21.82.12.89.18.05.04.11.74.6 1.1.7.51 4.13 3.14 4.66 2.62l.31-8.37 11.14 7.75z" fill="#654c1d"/><path d="M46.87 39.2c1.73 1.24 3.27 2.83 5.26 3.72v.31l-.31 8.68c-.07-.04-1.47-.32-1.55-.31-1.16-1.1-3.7-3.38-5.26-3.41 0-.66-.39-.85-.82-1.19-1.93-1.53-4.61-3.46-6.69-4.77-.48-.3-.84-.63-1.47-.54.03-.41-.03-.83 0-1.24l.31-8.06c.53-.09.9.11 1.35.35 2.59 1.43 6.58 4.61 9.17 6.46z" fill="#120e06"/><path d="M32.02 9.44c-.14 1.13.37 3.9-.46 4.66s-4.76.52-5.07 1.43c-.27 2.55-.18 5.18-.35 7.72-.03.46-.3.88-.31 1.07-1.64-1.12-3.29-2.99-5.26-3.41v-.31c0-.15.26-.46.28-.79.18-2.66.08-5.49.61-8.08.43-.53 9.09-2.02 10.55-2.29z" fill="#3a2b0f"/><path d="M53.37 34.55c2.43 1.78 4.77 1.89 4.66 5.44l-.36 5.54c-.04.31-.14 1.3-.71 1.08-1.47-.56-3.23-2.77-4.83-3.38v-.31l.35-6.94c.05-.45.09-1.65.89-1.43z" fill="#8d6b29"/><path d="M48.11 30.83l5.26 3.72c-.8-.23-.84.97-.89 1.43l-.35 6.94c-1.99-.89-3.53-2.48-5.26-3.72.42-2.34.06-5 .34-7.26.06-.52.13-1.28.9-1.11zm-16.71-3.1c0-2.8-.11-5.6.31-8.37.27-.31 4.49 2.71 5.04 3.1.28.19.19.6.22.62l-.31 8.37c-.53.51-3.96-2.12-4.66-2.62-.49-.35-.55-1.06-.6-1.1z" fill="#755821"/><path d="M25.83 24.32v.31L25.52 33c-.71.73-4.3-2.94-5.26-3.1v-.62l.31-8.37c1.97.42 3.62 2.29 5.26 3.41z" fill="#8d6b29"/><path d="M36.66 8.51c-.02.17.06.57 0 .61-.19.14-3.11.23-3.71.63-.04-.09-.24-.19-.31-.31l4.02-.93z" fill="#3a2b0f"/><path d="M35.42 49.74c.19.06.48.31.62.31v.31l-.63.2c-.4 2.28 0 5.17-.38 7.33-.09.52-.17.99-.85.84-1.02-1.04-3.34-2.28-4.64-3.1v-.62l.62-8.06c2.11.13 3.22 2.17 5.26 2.79z" fill="#654c1d"/><path d="M40.06 62.75l-.29 7.61c-.04.58.07 1.16-.64 1.38-.75-.9-3.74-2.21-4.64-3.41v-.31l.31-8.37c1.97-.1 3.74 2.8 5.26 3.1z" fill="#8d6b29"/><path d="M44.08 84.45l-4.95-3.1v-.31c-.36-2.71.7-5.74.31-8.37 1.07-.26 5.01 2.68 5.2 3.32.25.86.11 3.53.06 4.58s-.31 2.8-.62 3.88z" fill="#654c1d"/><path d="M34.18 58.72c.23.24.41.65.62.93-.28 2.78-.19 5.59-.31 8.37-.93-.25-5.02-3.02-5.2-3.62l.25-8.77c1.3.82 3.62 2.06 4.64 3.1zm4.95 13.02l.31.93c.39 2.63-.67 5.66-.31 8.37-1.06-.72-4.89-2.92-5.19-3.94-.03-2.92.43-5.87.55-8.77.9 1.19 3.89 2.51 4.64 3.41zM25.52 43.23c.51.57 3.18 1.99 4.02 2.48l.62 1.24-.62 8.06c-1.86-.48-3.04-2.57-4.95-2.79 0-.11-.33-.56-.31-.93l.62-6.98c.04-.59-.35-1.25.61-1.07z" fill="#1a1309"/><path d="M19.64 38.27l-.31 9.3c-.71.73-4.09-3.01-5.26-2.79l.31-8.99c2.08-.17 3.22 2.44 5.26 2.48zm-1.55 27.58l-.31 9.3c-1.84-.85-3.25-2.87-5.26-3.41l.62-8.99c1.87.47 3.19 2.38 4.95 3.1z" fill="#755821"/><path d="M36.04 50.36l4.64 3.72-.62 8.68c.17.03.42 0 .62 0 .68 1.95 3.2 2.72 4.64 4.03l-.59 8.56c0 .32.24.34.28.43.68 1.27 4.78 3.32 4.95 4.03l-.31 8.68v.31c-1.7-1.15-3.27-2.8-5.26-3.41l-.31-.93c.31-1.07.56-2.78.62-3.88s.19-3.73-.06-4.58c-.19-.64-4.12-3.58-5.2-3.32a9.21 9.21 0 0 0-.31-.93c.71-.22.6-.8.64-1.38l.29-7.61c-1.52-.3-3.29-3.2-5.26-3.1-.21-.28-.39-.69-.62-.93.67.15.76-.32.85-.84.38-2.16-.03-5.05.38-7.33l.63-.2zm18.87 42.15l-.56 8.47c.11.37.52.45.56.51 1.07 1.99 3.01 2.53 4.64 4.03l-.65 8.23c-.09.38.23.56.34.76.7 1.27 4.78 3.33 4.95 4.03l-.31 8.68c-1.77-.25-3.56-3.13-5.57-3.1.02-.31-.02-.62 0-.93.07-1.2.56-2.95.62-4.19.1-2.07.51-4.03-1.09-5.41-1.36-1.18-2.72-1.72-4.17-2.49-.3-.16-.5-.28-.62-.62.84 0 .87-.37.94-1.07.25-2.22.04-5.08.23-7.39-.29-.98-3.98-3.5-5.2-3.63-.03-.23-.35-.6-.31-.93.8-2.53.78-5.65.93-8.37l5.26 3.41z" fill="#3a2b0f"/><path d="M45.01 48.19c1.56.03 4.1 2.31 5.26 3.41-.06 0-.51.39-.91.47l-8.69 2.01-4.64-3.72v-.31c2.36.02 6.43-1.91 8.97-1.86z" fill="#362914"/><path d="M37.9 8.51l-.43.3-.19-.3c.63-.11.58 0 .62 0zm-1.86 31.93c-.03.41.03.83 0 1.24 0 .05-.3.35-.32.75l-.3 7.31c-2.04-.62-3.15-2.66-5.26-2.79l-.62-1.24c.92.18.56-.45.66-1.03.3-1.8.54-5.27.27-7.03 2.13.06 3.41 2.85 5.57 2.79z" fill="#3a2b0f"/><path d="M30.47,37.65c.28,1.76.04,5.23-.27,7.03-.1.58.26,1.21-.66,1.03-.85-.49-3.51-1.91-4.02-2.48-.23-.26-.66-1.56-.65-2.01l.66-7.6c1.16,1.08,4.69,2.41,4.95,4.03Z" fill="#755821"/><path d="M45.01 48.19c-2.55-.05-6.61 1.88-8.97 1.86-.14 0-.43-.25-.62-.31l.3-7.31c.03-.4.32-.7.32-.75.63-.08.99.24 1.47.54 2.08 1.32 4.75 3.24 6.69 4.77.44.35.83.53.82 1.19z" fill="#251802"/></svg>