<svg xmlns="http://www.w3.org/2000/svg" viewBox="0 0 150 150" xmlns:v="https://vecta.io/nano"><style><![CDATA[.BK{fill:#121b22}.BL{fill:#052a32}.BM{fill:#0d1216}.BN{fill:#034150}.BO{fill:#111a21}.BP{fill:#019194}.BQ{fill:#101a21}.BR{fill:#032029}.BS{fill:#044554}.BT{fill:#101920}.BU{fill:#10161c}.BV{fill:#052931}.BW{fill:#09232b}.BX{fill:#03212b}.BY{fill:#024553}]]></style><path d="M28.5 65.99a.5.5 0 0 1 .04-.69c8.81-.22 18.16-.17 27.14-.07.47 0 .88.22.56.67.15 0 .37.04.38.13a106.14 106.14 0 0 1 0 8.74l-.38.22c.29-.16.61-.33.95-.36 1.3-.09 5.79-.28 6.65.09.16.07.32.17.47.27l1-.06c.18-.38.55.16.67.44l-.11 7.74c.39.64.16 1.28-.43.88l-.2.16c-3.21.3-6.36.18-9.46-.38-.46.15-.87.2-1.22.12.15.02.37.07.38.17.1 2.21.23 5.78 0 7.89.11.52-.02.83-.38.94.21-.15.43-.12.65.1.54-.48.87-.27 1 .64l.16.23c.95-.24 1.18.28.72 1.56.02-.15.06-.36.17-.37.8-.09 4.1-.14 4.81 0l.27.37c-.09-.29.03-.61.36-.95 0-.96 1.09-.7 1.69-.33-.2.59.06.82.78.71.67 1.1.06 1.4-.85 1.78.15.04.36.1.38.22.04.47.09 4.19 0 4.39-.06.14-.23.21-.38.27.29 1.3-1.56.91-2.3.28a108.82 108.82 0 0 0-5.99.04c-.84.61-.67.8.18 1.22-.23.66-.32 1.38-.25 2.17-.22.09-.47.08-.76-.03-.42.07-.55 5.09.07 5.49 1.22 0 .87 2.06.42 2.84.32.83.91.89 1.77.19.84-.17 5.91-.27 6.45.03s.77.73.81 1.34c-.06 1.5-.04 3 .05 4.49.66.09.78.21.78.9v1.41c.78.14 1.02.49.7 1.06a25.76 25.76 0 0 0 6.32.21c.46-.27 1.9-.96 2.29-.55.27.28.23 7.52 0 7.84s-1.75-.29-2.15-.47c-.7-.16-6.01-.25-6.44-.04s-.74 1.58-.81 2.05c.11.05.2.09.2.15.04 1.07.17 8.14-.16 8.45-2.81.24-5.66.25-8.48.22-.35.43-.45.32-.56-.19-.17-.03-.16-.1 0-.19l-.26-.53-.11-8.32c-.19-.17-.41-.28-.67-.33l-.03.15c-2.41-.07-4.83-.09-7.25-.05-.33.26-1.21.33-1.25-.1.46.05.51.29.12.74a141.57 141.57 0 0 1-.12 8.26c.2.25-.1.55-.38.37 0 .51-.87.53-1.04.18-.81-.14-7.28-.21-7.62.09-.19.17-.22.43-.23.67.08 2.75.15 5.56.07 8.31 0 .04-.08.09-.19.13H0v-18.75l.17-.37h8.79l.22.37c.16-.04.22.03.19.19l.27.27c.12 2.99.12 5.96 0 8.92l.17-.37h8.41l.22.37-.15-8.27c-.07-.59.28-1.04.81-1.1 2.74-.46 5.95-.54 8.78-.37l.22.37-.38-.17c-.06-2.99-.01-5.96.12-8.89l.25-.13.43-.19 7.82.19.1-.19c.6.07.94-.08 1.01-.44-.15-2.83-.13-5.85.02-8.74-.27-.24-.16-.31.19-.19.06-.16.13-.16.19 0l1.36-.12a65.07 65.07 0 0 0 7.82-.17c-.14-.02-.25-.04-.25-.06-.1-2.72-.15-5.81-.07-8.53l.32-.22c-.26.07-.52 0-.69-.22l-8.31.13c-.03.51-.21.48-.38 0-.3-.01-.46-.18-.19-.37-.37-.24-.36-.51 0-.75l.22-8.85 9.15.13-.38-.13V84.6l.38-.22-.13.37-7.97-.11c-.6.38-1.17.32-.9-.45q.26-.29 0 0c-.05.16-.12.16-.19 0l-.18-.11c.09-3.02.11-6.04.04-9.05-3.04-.18-6.09-.21-9.14-.1l-.09-.11c-.32-2.89-.31-5.93 0-8.81.05-.16.12-.16.19 0q.41 1.81 0 0zm65.44 36.93c2.6.11 5.2.08 7.81-.1 0-.15 1.05.15 1.1.19-.03.67 0 1.32.09 1.97l.04 6.88c.28.52.33.85.15.99.22.06.39.15.51.28l8.17.01.51-.29c.17-.03.28.02.28.17l.08 8.41c.18.03.22.12.11.27l8.38.11.15.23c.79-.21.86-.11.98.68l-.13 8.51.13-.37h8.56l.22.37v9.19c-.11.17-.31.19-.5.2l-17.69.4v8.74l-.37.22h-8.06c-.24-.39-.51-.38-.75 0h-.56l-.27-.1-.2-8.79c-2.41-.18-4.85-.2-7.32-.06l-.46-.42c-.41.34-.79.15-1.12-.56l-.17-.2c.07-.89.45-8.62.02-8.62-3.03.1-6.05.04-9.04-.18-.75 0-.93-.59-.56-1.78a34.15 34.15 0 0 1-.09-6.55l.46-.48c-.37-.3.06-.71.38-.37l.26-.27 8.74-.01c-.15-.02-.37-.07-.38-.17-.15-2.21-.24-6.28 0-8.41l.38-.22-8.35.14c-.36.04-.63-.14-.84-.43-.57.05-.63-.34-.19-.75l-.38-.13V97.64c-.02-1.33-.03-2.75.38-3.89 0-.15.02-.33.14-.38.42-.18 6.4-.11 7.27-.05 1.72-.05 2.53.03 2.37 2.01l.03 7.29-.26.31z" class="BM"/><path d="M131.06 0l.15 9.08c.28.24.34.32.13.66-.04-.16 0-.32.13-.31l8.09.04c.13 0 .19.12.22.28.04-.36 1-.91 1.22-.37a4.47 4.47 0 0 1 .59-.27c.96-.32 6.79-.28 7.8.03.21.06.4.15.6.24v18.37c-.05.1-.1.18-.15.18l-8.87.02-.2-.22c-.8 2.98-.58 6.29-.19 9.38l-.15.39c-.05.16-.12.16-.19 0l-.17.37h-8.6l-.22-.37-.38-.13v-8.56l.38-.22c-.6.11-1.29.1-2.05-.03-2.23.23-4.42.23-6.58-.01v-.43l.09-.25 6.29.06c.05-.59 1.62-.44 2.06-.19v-8.85l-8.1-.05c-.42.66-1.17-.17-1.27-.66.12-2.23.22-4.57 0-6.75l-.33-.33c.47-1.55-.06-1.66-1.42-1.35a109.23 109.23 0 0 0-7.24 0c-.05.16-.12.16-.19 0V0h18.56z" class="BK"/><path d="M37.31 0a50.23 50.23 0 0 1-.24 9.02l-7.85-.04-1.94.35c-3-.19-5.96-.22-8.86-.08.11.56.18 1.2.18 1.78l-.02 7.45-.12 9.5a477.78 477.78 0 0 0-17.63-.35l-.84-.26V0H37.3z" class="BM"/><path d="M84.38 0l.37.18-.18 8.98-.38.22.13-.37h8.75l.22.37-.14-8.55c-.04-.35.14-.62.43-.83h.38c.14 2.42.14 4.87.01 7.34-.01.7.08 1.41.27 2.04-.13-.02.59-.37.64-.37 2.38.23 5.24.41 7.77 0l.22.37c.32-.3.51-.09.28.28l.17.03.2 8.65-.38.22c0-.09 0-.17.02-.25.14-.39 7.57-.07 8.21.06l.21.38c-.06.1-.19.16-.38.19l-.39.33c-2.37.04-4.72.02-7.05-.08-.32.3-.43.82-.33 1.56l.14 5.26c-.16.85-.06 1.49.32 1.93l7.59.09c.15-.46.32-.33.48.1-.1.11-.21.21-.33.29-.75.5-6.27.38-7.56.28l-.73-.39c-.17.55-.59.36-.56-.19l-.37-.18.15-8.82H94.2l-.22-.37-.25.61c-.71.33-.82.94-.31 1.83.13.02.23.04.23.06.04 1.83-.05 3.8-.23 5.57l-.58.29a40.4 40.4 0 0 0-5.16-.09c-2.08-.59-2.24.81 0 .17 2.03-.16 4.01-.03 5.93.38.43-.17.74.12.56.56l.26.14c1.54-.19 1.71.96.19 1.25-.63 2.13-.39 4.58.03 6.75l-.29.3c.25.66-.29 1.35-.75.94l-.32-.36c.15-1.23.49-8.41.02-8.76a65.16 65.16 0 0 1-8.38.06l.05 8.83-.37.23c.08.29-.05.29-.38 0-.26.25-.36.15-.19-.19l-.45-.16c-.14-2.65-.14-5.31 0-7.97l-.2-.44-.22 6.79-.42.2c.26.61.22.79-.37 1.08-.64.33-5.41.31-6.13-.3-.18.51-.6.83-.84.24l-.19-.03V19.74l.19-.13-.12-.42c.63-.4.56-.78.24-1.39-.27 1.06-1.29.89-2.09.6 0 .11-.02.19-.03.19h-7.25c-.05 0-.09-.08-.13-.19-.35-.39-.18-.82.51-1.28.13-1.32.14-2.65.06-3.98-.42-.66-1.16-1.8-.37-2.24.02-.15.07-.37.17-.37h8.98l.22.37c-.41-.14-.66-.72-.56-1.12-.56-.05-.5-.34 0-.56a38.18 38.18 0 0 1 0-9.19h9.38z" class="BK"/><path d="M122.62 93.74c.21-.46.36-.47.56 0l17.5-.13.31.3.07 8.62 8.72.2.21.38v28.12l-.78.24c-1.89.44-6.09.28-8.17.11-.34-.3-.73-.5-1.18-.54-.38.36-.94.36-1.31 0-2.16.15-4.4.09-6.56 0-.01.39-.25.37-.38 0-.29.28-.44.23-.66-.12-.35-.55-.33-8.45.09-9.12.07-.11.31-.03.48.06l.13-.37h8.75l.22.37c-.15-.02-.37-.07-.38-.17v-8.98l.38-.22c-2.96.36-5.87.48-8.72.37l-.28-.37-.2-.28-.1-8.91-.2-.28c-2.91-.24-5.89-.2-8.8.07l-.32-.29.06-8.72.18-.16c-.43-.42.08-.78.38-.19zM0 46.87l.15-.18H8.6c.28-.36 1.24.78 1.32 1.04-.36 2.67-.38 5.49-.12 8.18l-.14.33c0-.15.04-.37.13-.37h7.53c.67-.13 1.09 0 1.25.37l.25.03-.25 18.34c.19.22.09.31-.19.19h-.19c.08-.62.02-.62-.19 0l-8.79.26-.13.55c-2.76-.38-5.62-.45-8.61-.21l-.48-.41V46.87z" class="BM"/><path d="M18.75 103.11l.37.17.1 8.83h7.74l.22.37a2.93 2.93 0 0 1-.56.28c-1.59.62-5.52.45-7.41.3l-.1 8.38-.38.22-.32.26c-1.29-.09-7.9-.53-8.53-.1-.09.06-.47.42-.48.45l.14 8.72-.37.23H0v-27.93l9.19-.09.19 8.9.22-.13c2.75.24 5.57.27 8.45.09l.28.28c-.26-2.96-.06-5.92.24-8.86-.1-.2-.1-.32 0-.37.03-.17.1-.16.19 0z" class="BO"/><path d="M65.25 0l.19.05c-.09 3.06 0 6.09.28 9.09l-.28.23c-1.22.46-2.51.47-3.8.44-7.9-.18-15.76-.18-23.56-.02l-.39-.23c-.2.35-.53-.1-.38-.37-.41-.06-.5-.22-.14-.42L37.5 0h27.75z" class="BK"/><path d="M75 131.98c.48 2.66.46 5.38.29 8.07l8.5.18.22.38.25.06-.06 9.19-.19.13h-.38l-.11-8.58c.1-.52-.44-1.04-.64-.34-2.46-.06-4.96 0-7.51.15v8.55l-.37.22H57c-.16-.16-.29-.16-.38 0h-.19v-9.37c.19-.01.42.17.56.19a62.28 62.28 0 0 0 8.55-.29l.2-8.91.21-.26h8.29c.56-.01.66.13.75.65z" fill="#101b21"/><path d="M132.56 55.87c1.98-.35 4.39-.33 6.38 0 .46-.24.84-.24 1.12 0 .25-.42.5-.3.75.37.54.07.5.39 0 .56-.22.09-.48.04-.78-.15l-8.78-.13c.09 0 .17-.01.25.01.37.12.21 6.98.12 7.69.11.51-.02.82-.38.92.56-.15.69.18.19.47l.13-.37h8.56l.22.37c-.2-.17-.16-.33-.09-.52l.18-7.89.38-.21.28.46.15 7.62c.02-.36.19-.55.51-.58l-.19-7.87c-.23-.24-.13-.31.19-.19h8.13l.12.19v18.37c-.02.15-.07.37-.17.37-2.39.18-6.43.22-8.79 0l-.22-.37c-.02.12-.05.2-.19.19l-.17.37h-8.98l-.22-.37c-.1-.16-.18-.31-.25-.48-.26-.67-.36-6.66-.07-7.61.24-.82.41-.89 1.35-.82a46.82 46.82 0 0 0 8.03.02l-9.26-.22-.37-.25.07-9.09.31-.48c-.08-.22.15-.53.38-.37.18-.14.56-.14 1.12 0zM18.94 27.56c.62.16 1.08.24 1.74.03l.32.35 6.19.19v.42l-8.04.24-.02 7.34c-.02.43-.08.86-.57.81.22.24.28.42.19.56-.04.16-.13.27-.29.31-1.2-.19-8.21-.45-8.76.02-.4.34-.24 7.64-.03 8.7l-.3.34c-.46.03-.91-.16-.54-.63-.46-2.58-.42-5.42-.32-8.07.03-.68.43-1.81 1.15-1.05l.03-.22c2.6-.21 5.38-.2 8.09-.08l.22.31c-.09-.02-.18-.05-.25-.09-.06-.03-.11-.07-.12-.11-.05-.27-4.55-.49-5.29-.39-.3.42-.76.44-1.37.05-.63.8-1.83.31-2.45-.34-.47.56-.39 7.68-.18 8.68.42.54.52 1.07.53 1.76-2.92-.01-5.83 0-8.74.01L0 46.5V28.13l.13-.37 15.09.02c1.14-.06 2.22.03 3.25.25v-8.18c-.06-.59.03-.95.28-1.08l.19 8.81z" class="BK"/><path d="M112.31 0c.17 5.94.16 12.33 0 18.38-.85.57-2.04-.35-.76-.47-.15-.02-.37-.06-.38-.17-.07-.88-.17-5.12 0-5.74l.38-.27-.41.16c-.13 1.49-.22 3-.27 4.51l-.44.11-.06.17-5.01-.17c.16.05.16.12 0 .19 1.45-.15 3.13-.15 4.59 0 .58-.43 1.59.24.84.75 0 .15-.04.37-.13.37-.8.05-6.39.17-6.68 0l-.22-.37c-.16.02-.28-.02-.33-.16l-.15-7.57c-.22-.81-.86-.72-1.55-.53-2.18.08-4.47.07-6.58-.12l.08-8.84.38-.22h16.69zM150 74.99v18.56l-7.5.19c-.51 1-2.64.17-1.88-.75-.49-.74-.65-1.67-.47-2.8-.02-1.98.03-4.38.66-6.2v-9H150zM9.19 84.55c.55.18.75.43.19.75a310.59 310.59 0 0 0-.21 16.8c-.01.14-2.47.3-2.64-.1-2.03-.07-4.07-.07-6.13.03l-.4-.41V84.37l.69-.34c1.33-.08 7.55-.31 8.26.08.19.1.26.21.24.45z" class="BM"/><path d="M142.5 93.74h7.5v9.37l-9.35-.21-.03-9.16c-5.8.13-11.64-.17-17.44 0-.16-.05-.16-.12 0-.19l.13-.37h16.33c.38-.34.7-.41.98-.19.12 1.13.87.73 1.88.75z" class="BT"/><path d="M131.06 140.42c.18.36.01.76-.45.76-2.79-.15-5.58-.13-8.36.04l-.11 8.67-.27.1h-9.38v-9.37l18.56-.19zM18 74.8c.05-.16.12-.16.19 0h.19l-.07.25-8.82.08-.11 9.23c.16.05.16.12 0 .19-.03.17-.1.16-.19 0-.13 0-.5-.17-.83-.2-2.68-.21-5.64.17-8.36 0v-9.37c2.54.25 5.7-.33 8.17-.01.41.05.52.19.83.39l.1-.58 8.9.01z" class="BK"/><path d="M140.25,140.6c.21-.25.61.12.73.38.34.75.06,7.09-.02,8.43l-.33.56h-9.38c-.46-3.06-.47-6.13,0-9.19l.17-.38,8.6-.18.23.37Z" class="BN"/><path d="M75 0v9.19l-.1.33-8.36.04c-.26-.01-.62-.06-.79-.25-.48-.52-.34-7.71-.3-9.04 0-.09.08-.18.17-.27H75zm75 28.12v9.37c-.05.1-.1.18-.15.18-1.14.04-8.64.2-9.02-.03-.66-.4-.78-8.71-.18-9.56.16-.23.41-.41.59-.17l8.63.01.13.2zm-18.75 112.67v9.19h-9.38c.24-1.31-.35-8.4.08-9.01.24-.34 2.95-.14 3.58-.17l3.74-.19c.5.01 1.6.55 1.78-.19.05-.16.12-.16.19 0 .36.11.36.27 0 .37zm18.75 0v9.19h-9.38c-.26-2.72.35-6.08 0-8.73-.04-.31-.03-.56-.38-.65-.46-.26-.31-.48.19-.37.17-.09.44 0 .82.26l8.5.03.23.27zM93.56 0c-.24 2.75.32 6.04 0 8.73-.02.19-.09.65-.29.65h-9.09l.19-9.37h9.19z" class="BL"/><path d="M140.81 0H150v9.37c-2.99.07-6.01-.09-9 0-.4-.01-.47-.23-.3-.56l-.07-8.68.19-.13z" class="BM"/><path d="M140.44,0l.19.03.05,9.06-.62.33c-2.92.23-5.83.22-8.72-.04-.27-3.11-.3-6.24-.08-9.38h9.19Z" class="BL"/><path d="M150,47.06v9.19c-2.68.29-5.53.2-8.25,0-.36.32-.74.62-.94,0-.48-.32-.54-.65-.16-.99.21-2.75.14-5.57,0-8.35,2.98-.24,6.19-.15,9.22-.03.04,0,.09.08.13.19Z" class="BM"/><path d="M150 131.23v9c-.04.19-.14.25-.3.25l-6.52.13c-.98.12-1.83-.05-2.53-.49l.09-7.74c-.06-.61-.12-1.08-.83-1.09l-.04-.25c.59 0 1.07.19 1.59.2H150z" class="BK"/><path d="M103.12,149.98h-8.06l-.19-.06c-.09-3-.03-5.98.19-8.94.01-.04-.11.8-.37.56-.59-.07-.67-1.22.19-.94,2.29.26,5.16-.29,7.41,0,.26.03.49.04.67.27.54.69-.06,7.74.17,9.11Z" class="BL"/><path d="M141.19 37.87c.23.04.44.14.61.3l7.18-.03c.38-.05.72.05 1.03.29v8.25l-.06.19-9.1-.15-.21-.19v-8.28c-.17-.05-.16-.11 0-.19-.1-.05-.1-.11 0-.19-.01-.54.36-.38.56 0z" class="BT"/><path d="M83.62,149.98h-.19c-.1-.08-.18-.16-.2-.26-.27-1.51.14-.96,0,.13,0,.05-.08.09-.18.13h-8.06v-9.19c2.04.13,4.06-.22,6.1-.2.49,0,.87.17,1.3.2.4.02,1-.48,1.19.12l.03,9.06Z" class="BL"/><path d="M45.56 149.98h-7.69c-.1-.19-.19-.39-.19-.58l.11-8.59c.14-.1.79-.15.92 0 2.1-.16 4.45-.15 6.56 0 .11-.12.4-.09.52.01.4.35.17 7.43.1 8.59l-.34.58z" class="BK"/><path d="M47.81 149.98l-.25-.02.03-8.55c.88-.12 7.51-.43 7.81-.17.34.29.25 1.21.1 1.61.35 2.29.28 4.83 0 7.12h-7.69z" class="BN"/><path d="M85.88 141.92c.03-.1.06-.19.09-.19h6.59c.36.19.03 7.06-.02 8.04 0 .13-.14.19-.28.21h-6.38c-.16.03-.28 0-.28-.13v-7.71l.28-.22z" fill="#29deeb"/><path d="M94.88 0h.75l-.19 9c1.88-.2 4.29.27 6.1 0 .45-.06.72-.39 1.12-.41.26-.01.36.5.78.44l.34 8.39h7.03c.16-.34-.64-.75-.84-.75h-4.59v-.19h5.06c.48-.82-.24-4.86.66-5.06.16-.07.47.22.47.28v6.19c0 .06-.26.26-.19.47h.94V-.01h.19v9.75a214.66 214.66 0 0 1 .11 8.42l-.29.39c-.14.43-.46.71-.75.19l-8.44-.19v-8.9l-.28-.28h-8.62c-.21 0-.27-.46-.29-.65-.32-2.68.25-5.98 0-8.73h.19c.18.54.43.54.75 0zM37.31 9.19l-.78.19h-8.41l-.57.38c-2.82-.05-5.63-.04-8.42.03-.18 2.82-.18 5.65-.02 8.5l-.37.47c-.48.43-.02 8.16-.19 9.37H0v-.75c5.92.08 11.88-.17 17.78.13.32.12.09.6.6.44l.01-7.79c0-2.83.44-6.04.18-9-.05-.55-.6-1.95-.57-2.05.16-.56 2.23-.11 2.71-.09 2.34.06 4.29.06 6.57.29.3.03 1.16-.42 1.68-.48 1.19-.13 7.73.27 8.05.02.59-2.88.18-5.9.3-8.83h.19l-.19 9.19z" class="BM"/><path d="M93.75 149.98h-.94c-.17.05-.28.02-.28-.13l.14-7.83c-.17-.04-.3-.13-.39-.29H86l-.12-.19c.02.18-.07.34-.28.48v7.74l-.28.22h-.94c-.1-.1-.17-.19-.18-.29-.04-1.24-.24-8.97.21-9.15.06-.03.15.01.25.07.02-.1.04-.18.06-.18l6.61-.06c.83-.08 1.54 0 2.15.24.16-.21.26-.13.36.09.25 3.11.23 6.21-.08 9.29z" fill="#2cdde8"/><path d="M46.69 18.75c.24-.46.4-.24.65.09.39.55.14 7.44.06 8.7l-.33.58c0-.15.04-.37.13-.37h7.53c.67-.13 1.09 0 1.25.37.4-.32.53-.17.28.28.15.02.37.07.38.17v7.49c.12.63 0 1.01-.38 1.15.41-.28.49-.16.28.28 0-.15.04-.37.13-.37 2.32-.12 5.03-.07 7.36 0 .81-.14 1.34-.01 1.6.37.41 3.05.6 6.3.19 9.19.52-.06.58.06.19.37.37.09.37.26 0 .37a6.87 6.87 0 0 1-.78-.55c-2.95-.09-5.95-.07-8.91.01-.1 0-.19.11-.28.26l-8.57.13c-.12.04-.22.15-.22.28-.04 1.06-.21 7.93.13 8.17l8.58.28c.58.31 1.24.44 1.98.38l6.81.02.12.21-.26.23-4.64-.11 5.28.15.37.3.08 17.79a8.2 8.2 0 0 0-1.39.02c-2.67-.12-5.39.09-8.06 0V65.9c0-.16-.45-.33-.65-.29-8.56.2-17.15-.2-25.7-.07-.44 0-1.59-.06-1.41.46h-.19c-.28-.33-.54-.79-.55-1.31.05-2.76 0-5.47-.14-8.14-2.8-.06-5.6 0-8.4.17-.12 2.74-.19 5.53-.22 8.36l-.25.73c.08 1.19.1 2.4.09 3.64.55.26.56.6.02.88l.08 3.86c-.05.24-.11.5-.37.43V56.25H9.65c-.21 0-.27-.46-.29-.65-.22-1.89-.04-4.94 0-6.95.01-.55.45-1.21-.07-1.6-.72-.56-7.89.07-9.3-.17v-.37h8.63c.21-.69-.42-.92-.61-1.36-.29-.65-.22-6.1-.15-7.18.02-.3.29-2.09.38-2.15.55-.37 1.31 1.43 2.21.9.09-.05.29-.69.5-.7.08 0 .55.57.93.56.1 0 0-.35.37-.4.59-.08 5.38.19 5.62.37.22.16.08.37.11.58H9.64c-.62 0-.76.53-.77 1.06-.03 2.54-.04 5.32.1 7.85.02.35-.04.7.39.83.47-.3.69-.09.38.37.58.05 1.25 0 1.99-.13l5.81.11c1.16.1 1.71-.24 1.64-1.03-.44-2.64-.44-5.42.06-8.07l-.13-.25c-.48.29-.67.09-.38-.37-.09-.16-.2-.38-.19-.56.22-.19.54-.13.96.18 2.37.12 4.74.1 7.12-.06.7.14 1.13.16 1.3.07.24-.28.3-.15.38.19l.36-.23c2.78.21 5.66.16 8.45.02.16-2.52.16-5.05.01-7.59l.37-.45c-.54-.01-.51-.44 0-.56-.26-.22-.14-.29.19-.19.15-.53.33-.98.75-.37l1.19-.2c2.31.19 4.58.15 6.81-.12 0-2.88.08-5.78.24-8.68-.16-.05-.16-.12 0-.19z" class="BK"/><path d="M18.38 92.8c-.07.26-.18.54-.47.43-.85-.34-.45-6.32-.27-7.47l-7.49-.11-.21 16.82c2.13-.16 4.28-.15 6.41-.11.61 0 1.99.19 2.21.75v.37a94.37 94.37 0 0 0-8.74.03l-.05 8.39-.39.2c-.69-.68-.19-.77-.18-1.59v-7.04l-9.19-.19v-.19l.16-.38 8.83-.2c-.09-.33-.01-.66.17-.97-.05-5.43.02-10.85.21-16.26-.01-.27-.03-.52-.19-.75h.19a218.86 218.86 0 0 1 9.21.09l-.04 7.74-.18.42z" fill="#12181d"/><path d="M9.38,85.3c.29,5.77-.19,11.8-.03,17.6l-9.35.21v-1.5c2,.21,4.56-.28,6.48,0,.45.06.74.41,1.12.41.55,0,.73-.65,1.4-.02.13-4.71-.16-9.45,0-14.16.01-.39.16-.74.19-1.12.03-.44-.35-.97.19-1.4Z" class="BM"/><path d="M150 46.68v.37h-9.1c-.16 2.58-.05 5.19-.08 7.79 0 .76-.19.3-.01 1.4-.19-.01-.57-.37-.75-.37-.33-.08-.5-.14-.19-.37-.01-.22.09-.36.3-.41.22-2.53.33-5.2-.08-7.72l.34-.3-.17.37h-8.6l-.22-.37c.37 2.81.37 5.63 0 8.44.43.03.42.27 0 .37-.24.03-.29.31-.38.37-.1.55-.29.67-.56.37-.34.3-1.34.3-1.5-.19-.52-.03-.9-.15-1.12-.37-.02-.16.02-.3.14-.39 1.11.26 2.04.23 2.8-.09-.12-1.49-.47-8.01.23-8.91.17-.21.35-.31.62-.33l8.44.08.03-8.11.48-.05c.36 2.37.16 4.84.36 7.24.03.34-.32.69 0 .92l9.01.27z" class="BU"/><path d="M46.5 140.6l.25.06-.06 9.19-.19.13h-.94c-.24-2.69.32-5.91 0-8.54-.02-.19-.09-.65-.29-.65h-6.56c-1.5 0-.85 1.29-.84 2.15v7.04h-.38v-9.37h9z" fill="#111c1c"/><path d="M150 27.75v.37l-8.88.02c-.42.14-.47 1.33-.5 1.75-.12 1.68-.16 4.74 0 6.38.03.28.15.99.37 1.13.7.46 7.64-.17 9.01.09v.37l-.06.25-8.53.04-.22-.29h-.56c-.2-.02-.29-.21-.19-.37-.36-2.29-.5-4.3-.38-6.66.03-.54.26-3.16.43-3.41.42-.62.57.15.7.23.72.47 7.44-.16 8.82.09z" fill="#0c1e24"/><path d="M132 131.04c2.09.15 4.47.21 6.56 0h1.31c1.96.38.95 3.26.93 4.77-.02 1.09.15 2.01.2 3.01.02.38-.43 1.04-.01 1.32.67.45 7.67-.17 9.01.08v.56c-2.66-.26-5.97.35-8.54.01-.52-.07-.64-.3-1.02-.57l-.37-.17-.03-8.17-8.56.09-.23-.37c-.24-.63-.32-.93.38-.56.1-.02.25 0 .38 0z" fill="#0b2127"/><path d="M94.12,149.98h-.38c-.24-2.75.32-6.04,0-8.73-.02-.19-.09-.65-.29-.65h-8.81c-.21,0-.27.46-.29.65-.32,2.68.25,5.98,0,8.73h-.38v-9.37c-.35-.43.18-.75.56-.37.09-.12.18-.22.28-.22,2.87-.12,5.85-.19,8.69.08.46.22,1,.5.77.99.17,2.86.11,5.87,0,8.75,0,.05-.08.1-.18.15Z" fill="#022831"/><path d="M56.25 149.98h-.38l-.19-.06-.04-8.72-.15-.22-.46.2a91.4 91.4 0 0 0-7.41.21l-.09 8.36-.28.22h-.38c-.1-.1-.17-.19-.18-.29l.18-9.17c.07-.03.17.02.28.09l.06-.21c2.96-.08 5.88-.01 8.75.21.36-.03.5.46.42 1.47l-.14 7.91z" class="BN"/><path d="M131.25,0l.03,8.97c.52.82,7.4.22,8.69.21l.44-.31.03-8.88h.38l.19,9.37c-.17,0-1.01.37-1.22.37h-8.44c-.21,0-.27-.46-.29-.65-.33-2.8.26-6.23,0-9.1h.19Z" fill="#0b1e24"/><path d="M55.5 140.98c.42.25.47 1.68 0 1.87-.02-.65.28-1.4-.52-1.46l-7.15.18-.03 8.41h-.56v-9h8.25z" fill="#044452"/><path d="M47.81 140.04c2.59-.16 5.58-.27 8.26.08l.37.3v.19 9.37h-.19c-.24-2.75.32-6.04 0-8.73-.02-.19-.09-.65-.29-.65h-8.81c-.21 0-.27.46-.29.65-.32 2.68.25 5.98 0 8.73h-.38v-9.37c.12-.1.26-.32.38-.37.06-.16.12-.16.19 0 .08-.57.43-.7.75-.19z" class="BK"/><path d="M92.25 139.67c.43-.01.8.05 1.12.19.36-.38.44-.32.38.19.48.24.38.48 1.12.56-.75.31-.2.7-.19.94.28.09.28.47 0 .56l-.19 7.87h-.38c-.23-1.41.38-8.79-.17-9.49-.18-.23-.4-.24-.67-.27-2.65-.34-6 .27-8.73 0-.48-.1-.51-.2-.19-.56l.26-.3 7.52.04.1.26z" fill="#001b24"/><path d="M65.62,0c.25,2.61-.33,5.82,0,8.35.1.78.5.97,1.22,1.03,2.01.19,5.06.07,7.15,0,.36-.01.71.02,1.02-.2v.56c-.29.16-.59.33-.93.36-1.26.09-5.68.27-6.49-.09-.16-.07-.31-.17-.45-.27-.6.27-.97.27-1.12,0-.11.31-.24.25-.38-.19-.27.28-.38.16-.19-.19l-.19-9.37h.38Z" fill="#0c1e25"/><path d="M92.81 149.98h-.56l.19-8.06h-6.56c-.39 0-.39-.3 0-.38h7.03l-.1 8.44z" fill="#26dbe8"/><path d="M94.88,0c-.26,2.59.34,5.84,0,8.35-.12.9-.68,1.19-.77,0-.2-2.69.17-5.63,0-8.35h.75Z" class="BM"/><path d="M104.44,149.98h-.75c.22-2.65-.3-5.76,0-8.35.1-.9.67-.87.77,0,.28,2.6-.23,5.7,0,8.35Z" fill="#0f0f16"/><path d="M150 37.87v.56c-2.91-.09-5.87.13-8.73.02l-.08-.58H150z" class="BU"/><path d="M85.88 141.54v.38 8.06h-.57v-8.44h.57z" fill="#28dbe3"/><path d="M83.44,149.98h-.38l-.09-9.19c.42,0,.44.33.48.65.32,2.61-.26,5.86,0,8.54Z" fill="#0a2d36"/><path d="M94.69 141.54l.37-.56v9h-.37v-7.87-.56z" fill="#072f36"/><path d="M57,149.98h-.38c.22-2.65-.3-5.76,0-8.35.03-.28.04-.58.38-.65v9Z" fill="#12171c"/><path d="M55.5 140.98h.37v9h-.37v-7.12c.37-.46.24-1.37 0-1.87z" fill="#064253"/><path d="M150 56.24v.37l-8.25-.19c-.16-.05-.16-.12 0-.19H150z" class="BO"/><path d="M94.69 149.98h-.19l.19-7.87v7.87z" class="BL"/><path d="M150,93.55v.19c-2.5-.04-5.01.06-7.5,0l7.5-.19Z" class="BM"/><path d="M19.12 129.92c.36-.03.72-.22 1.07-.57.47.19 6.49.11 6.38-.19-.29-.21-.43-.45-.41-.73-.04.15-.1.37-.22.37a31.32 31.32 0 0 1-4.11 0l-.27-.37-.4-.37c.27-1.93.12-3.74-.46-5.42-.04-.48.18-.68.57-.39 0-.11.02-.2.03-.2l6.31-.03c.04 0 .09.1.13.23.43.14.21 1.39-.38 1.03.15 0 .37.04.38.13.11 2.1.11 4.77 0 6.87l-.38.22c0 .14-.03.36-.13.37-1.08.19-4.74.11-5.93 0l-.22-.37c.25.47-.2.67-1.37.59l-.6.16c-.28.25-.32.13-.38.64-.3 2.47.31 5.6.02 8.08-.02.19-.09.65-.29.65H9.65c-.21 0-.27-.46-.29-.65-.31-2.63.25-5.85 0-8.54l.34-.26 8.79-.19c.14-.5.35-.85.62-1.05z" class="BK"/><path d="M65.44 83.99c.34.19-.25.56-.61.56l-8.48-.05.15 9.11-.25.13c.02-.49.23-.51.65-.08l8.26.08c.39-.05.64.51.61.89l-.14 8.02c.21.37.02.45-.37.28q-.33-.35 0 0c.08.26-.24.37-.98.31-2.68-.12-5.31-.07-7.88.15-.18 2.92-.2 5.87-.05 8.85a24.58 24.58 0 0 0 6.31.13l1.85.12c.37-.6 1.31-.54 1.5.17v8.86l7.56-.09c.83-.09 1.31.12 1.44.62.6 3 .57 6.18 0 9.19 2.91-.59 6.08-.55 9 0l.29.37.08 8.06c.11.17.16.36.19.56l-.56.37-9-.19v-8.44c-.29-.42-.29-.67 0-.75l-9.18.19c-.04.36-.17.55-.38.56-.19-.67-.06-2.17.69-2.4.53-.16 5.57-.13 6.34-.04.73.09 1.45.75 2.34.57v-7.12c-1.07-.37-1.64.48-2.33.57-2.13.29-5.07-.11-7.16-.33-.56-.06-1.17.58-1.01-.43.68.05 1.07.17 1.69-.19.16-.47-.5-.44-.57-.69-.11-.44.17-1.42-.08-1.76-.18-.25-.64-.1-.82-.21-.47-.3-.11-4.12-.22-4.94-.05-.37-.22-.76-.58-.92-.43-.19-5.64-.18-6.19-.01-.49.15-.73.74-1.55.45-.21-.07-.68-.78-.68-1 0-.26 1.01-1.88.55-2.34-.19-.18-1.13.28-1.31-1.22-.09-.8-.12-3.75.05-4.46.27-1.19 1.18-.41 1.27-.51-.09-.49.13-1.35.01-1.76-.06-.21-.53-.1-.68-.29-.35-.43.22-1.44.81-1.47 1.85.16 4.17-.3 5.97-.05.75.1.97.94 1.96.48a1.68 1.68 0 0 0 .38-.37v-4.87c0-.93.88-.6.94-.66a3.14 3.14 0 0 0 0-.75c-.05-.05-1.17.16-1.27-.49s.65-.56-.98-.82c.49.43-.45 1.5-.66 1.5h-5.25c-.56 0-.02-1.42-.09-1.5l-1.69.19c-.16-.71.85-.04.56-.84-.2-.54-.31-.15-.38-.05-.31.4-.93-.21-.93-.33v-9c0-.08.41-.34.55-.38 1.21-.4 1.42.37 2.35.48 1.65.2 3.89-.05 5.64-.01.78.02 1.46.31 2.34 0z" class="BM"/><path d="M65.81 57.18c.6 5.86.43 11.78.24 17.67l.57-.26c2.86.07 5.65.07 8.37.03.35-.41.65-.08.38.37a151.96 151.96 0 0 0 .04 8.8c.83.02 1.68.06 2.52.13l.06.44a13.88 13.88 0 0 1-1.5.19c-.04.38-.23.36-.38 0l-.26.35c-2.23-.65-4.57-.84-7.01-.59-1.42-.19-2.58.04-3.49.69-2.8-.09-5.64-.1-8.54-.04l.19 8.22 7.89-.02c.54.06 1.3.3 1.1.96.73.16.45 1.85-.19 1.97.15.04.36.1.38.22.15 1.35.16 4.74 0 6.07l-.38.27c1.12-.13.22 1.4-.47.66.02.15-.01.37-.13.37-2.53.1-5.78.17-8.28 0l-.22-.37c.28.41.16.49-.28.28.09 0 .17-.01.25.01.39.13.18 7.28.12 8.2l-.38.22.32-.15 7.45.17.29.46c-2.42-.09-5.5.29-7.79 0-.2-.02-.43 0-.57-.18l-.09-8.89c.05-.23.64-.29.85-.31 2.5-.22 5.45.28 7.9.01.26-.03.26-.02.45-.2.07-.07.22-.1.18-.28-.23-2.6.32-5.71.02-8.26-.02-.19-.09-.65-.29-.65h-8.91l-.02-9.3c.36-.47.91-.08 1.41-.07 1.64.02 6.33.27 7.59-.11.11-.03.15-.25.19-.28.06-.04.33.05.37 0s-.35-.64-.31-.86l.11-7.82c-.13-.39-.85-.29-1.29-.31l1.13-.19.19-17.62c.05-.15.12-.15.19 0z" fill="#10171d"/><path d="M28.31 65.99v8.81c.17.03.16.1 0 .19-.03.17-.1.16-.19 0-.54-.02-.66-.47-.19-.75 0-.36-.13-.55-.38-.56l-.02-7.38c.3-.06.47-.24.33-.35-.61-.46-.03-.31-.07-.31-3.09-.14-6.1-.08-9.05.17v-3.65c0-.91-.14-5.25.18-5.65.18-.23.4-.24.67-.27 1.89-.25 4.74.04 6.77.02.67 0 1.48-.52 1.77.46v7.69c.01.52.18 1 .2 1.59z" class="BV"/><path d="M37.88 84.17l.1.38.74-.3 8.17.1v9.09c0 .21-.46.27-.65.29-2.53.3-5.77-.17-8.36-.12-.57.4.23 7.96-.37 8.55-.13-5.99-.18-12.03.19-18h.19zm-9.57 37.31c.26-.25.36-.14.19.19l7.76.18.12.19c-2.7.15-5.53-.11-8.25 0v9.19h-9c.61-.54.88-.27 1.55-.42.21-.04.39-.33.42-.33h6.28v-7.22c0-.06.62-.59.38-1.03h-6.47c-.59 0 .23 1.37.29 1.78.17 1.36-.13 3.02 0 4.41h4.59c.23 0 1.23.65.54 1.1-.48.32-4.59.26-5.64.33-.29.02-.65-.18-.88-.13-.36.07-.06 1.56-1.06.2-.16-.05-.16-.11 0-.19l-.19-5.25c-.62-.32-.56-1.48.01-1.84-.2-.32-.2-.58-.01-.78-.04-.16 0-.29.12-.38l8.34-.13.34-7.91.38-.21.19 8.25z" class="BK"/><path d="M18.75 121.67c.19-.06.25 0 .19.19.82 1.06.04 1.11 0 1.25-.09.35.01.96 0 1.37l.19 5.25v.19c-.05.3.07.57-.1.93-.44.94-1.21.56-1.86.56-2.06.02-4.15-.01-6.19 0-.55 0-.93.36-1.6 0-.08-.04-.14-.11-.19-.19l-.15-9.35c.46.1.5-.37.8-.41 1.77-.24 6.21-.14 8.09 0 .32.02.54.03.83.2z" fill="#0b1f26"/><path d="M56.44 140.42c-2.61-.33-5.33-.19-7.98-.19-.27 0-.55-.19-.65-.19-.45-.32-.16-.59.32-.72l5.46-.07c.33-.53 1.03-.5 2.09.09l-.18-7.45-7.13-.13c-.2.35-.49.48-.87.36l-.06 7.9-.38.22c-.06.02-.14-.02-.19 0v-9h8.53c.07 0 .19-.23.46-.11.81.38.37.93.38 1.5l.2 7.79z" fill="#11181e"/><path d="M37.88 112.48c-.17-.54.29-.69.56-.19l.55-.41a41.4 41.4 0 0 0 7.23-.19l-.15-7.93-7.59.09-.23-.37c-.26.25-.36.14-.19-.19 1.49-.46 4.21-.14 5.91-.18.51-.01 3.09-.59 3.09.27v8.81c0 .16-.45.33-.65.29h-8.54z" class="BW"/><path d="M36.38 122.04l-7.88-.37c.02-.15.07-.37.17-.37 2.21-.15 6.28-.24 8.41 0l.22.37c-.09 0-.17.01-.25-.01-.39-.13-.21-7.37-.12-8.2l.38-.22-.24.41-8.27-.05-.1 7.68-.39.2c-.31-.19-.19-.71-.19-1.03v-7.22c-.5-.06-.48-.23 0-.37.05-.16.11-.16.19 0l9-.19c.06-.16.13-.16.19 0v7.23c.02 1.31.8 2.04-1.12 2.15z" fill="#02202b"/><path d="M75 131.23v.75c-.26-.36-.34-.52-.83-.58-2.49-.3-5.6.23-8.15.03-.53.36.15 8.55-.28 9.18-.13.19-.36.16-.57.18-1.67.2-6.49.19-8.17 0l8.35-.36c.36-.58-.09-7.06.09-8.45 0-.06.25-.76.3-.76l9.27.01z" fill="#11181e"/><path d="M38.06 103.3l.19.19c.15.01.37.06.38.17l.18 8.41-.37.23c-.35.03-.42.15-.56.19-.06.01-.13-.01-.19 0-.32-3.02-.29-6.16 0-9.19.12-.02.28.03.38 0z" fill="#02242f"/><path d="M37.69 84.17l-.19 18c-.05.17-.12.16-.19 0-.22-5.82-.22-11.63 0-17.43l.1-9.15c.02-.27-.11-.42-.29-.6-.07.49-.21.46-.38 0a178.14 178.14 0 0 1-7.31 0c0 .49-.25.54-.56.19-.11.48-.29.42-.56-.19v-.19c1.13.13 9-.25 9.29.18.26.38.08 8.01.08 9.2z" class="BW"/><path d="M37.5 102.92s.18.21.19.37v9.19c-.13.03-.17.18-.19.19-.06.01-.13-.01-.19 0a58.78 58.78 0 0 1-9 0c-.21.12-.3.03-.19-.19.06-.41.18-.52.28-.13.19.1 2.74.25 2.58-.31l5.67-.12c.03.33.25.45.66.36-.16-2.87-.16-6.09 0-9-3.03.02-6.03-.05-9-.19-.16-.05-.16-.12 0-.19l.06-.25 8.91-.12.22.37z" fill="#014750"/><path d="M37.5 102.92h-9.19c-.17.29-.3.34-.38 0-.34-.21-.19-.49.19-.37-.09-.3-.08-.38.19-.19 2.8-.14 5.62-.14 8.44 0 .11-.13.4-.2.56-.19.06-.03.16.03.19 0v.75z" fill="#04202c"/><path d="M37.88,84.17c.26-2.79-.35-6.19,0-8.91.03-.27.14-.58.37-.28-.26,2.79.35,6.19,0,8.91-.04.28-.15.58-.38.28Z" fill="#0d0c13"/><path d="M28.5 65.99c.23-.3.34 0 .38.28.33 2.6-.35 5.68.19 8.35h-.56V66z" fill="#0e0c14"/><path d="M93.38 74.99c.05-.16.12-.16.19 0l-.04 9.25.5.29c2.95-.11 6.02-.22 8.97.14-.23 1.09-.36 2.21-.4 3.38.31 4.54.33 9.07.06 13.56-.39.3-.61.7-.67 1.21a71.9 71.9 0 0 1-8.04.11c-.6-.6.2-8.71-.36-9.1-.38-.26-8.1-.13-9.2-.08-.52 1.72-.6 3.9-.63 5.92-.07 3.81-.07 7.71.4 11.44-.12.55-.61.8-1.49.76l-7.15-.13c-.08.12-.19.31-.33.57l-.06.29c.48.4.36 1.21-.22 1.44a185.07 185.07 0 0 0 .09 7.45c.31.32.31.51 0 .56-.13 0-.51-.17-.83-.2-2.71-.25-5.8.2-8.55 0v-9.38c-.37-.01-.75.01-1.12 0-2.28-.64-5.39.22-7.59-.19-.16-.03-.47-.15-.47-.28v-8.44s.26-.28.28-.28h8.62c.11 0 .42-.28.66-.19.07-.19-.19-.4-.19-.47v-6.56c0-.41.39-1.36.19-1.97v-.26c2.88-.13 5.82-.16 8.81-.09-.02-.48.16-.9.55-1.26.14-1.69.12-3.39-.05-5.11-.09-1.03.15-2.08.81-2.85h.38c2.49.04 4.99 0 7.48-.11l.44-.21.14-9.24a35.1 35.1 0 0 1 8.81 0zm38.24 37.49h1.02 7.98v9.37h-9.09c-.21 0-.27.46-.29.65-.22 1.92-.12 5.7 0 7.71.02.35-.04.7.39.83-.31.08-.35.31-.38.56l.32.66.06 7.63-.38.52h-.19v-9.19h-8.91c-.21 0-.27-.46-.29-.65-.29-2.48.3-5.59.02-8.08-.05-.41-.3-.31-.58-.46-.14-.2.02-.38.48-.51.23-2.81.28-5.74-.09-8.53l.17-.14c-.38-.34-.31-.46.19-.37l8.88-.49.31.31c.15-.3.28-.23.38.19z" class="BK"/><path d="M84.75,121.86c-.17-.04-.25-.12-.24-.27.3-2.96.28-6.02-.18-8.96l.23-.14c2.69.24,5.91-.32,8.54,0,.19.02.65.09.65.29v8.81c0,.21-.46.27-.65.29-2.57.3-5.72-.24-8.35,0Z" fill="#121b21"/><path d="M84.38 122.23c-.45 2.3-.1 4.73 0 7.03.03.59-.52 1.17.19 1.78-.02.45-.23.59-.56.19-3 .03-6-.01-9 0v-9.19l.08-.23c2.93.43 5.92.48 8.97.15l.32.27zm9.56-47.24l.23.39-.13 8.99c.02-.4.23-.41.57-.37 2.57.29 5.44.31 8.02 0l.22.37c.45-.38.47.07.47.54.07 5.76-.01 11.65-.17 17.36l-.21.1-.18.17c.61.53.71.8.3.81.07.62.03 1.17-.12 1.64-.43-.29-.05-1.74-.19-1.88-.31-.31-8.23.4-8.81-.19 1.05-.17 7.74-.05 7.97-.37.06-.08-.09-.36 0-.56.13-.29.39-.26.47-.85.65-4.57-.58-10.72-.02-15.39.03-.23.6-.59.58-1.02-2.57-.3-5.19-.2-7.79-.2-.62 0-1.48.44-2.06-.17-.39-.42.26-.27.3-.65.29-2.76-.4-5.97.17-8.73.03-.17.1-.16.19 0 .03-.17.1-.16.19 0z" class="BO"/><path d="M84.38,93.74v18c0,.65-.56.83-1.69.56-1.97-.16-4.22-.22-6.19,0-.33.16-.96.15-1.31,0,.03-.15-.58-.79.29-.94,2.33-.07,5.36.41,7.61.08,1.43-.21.62-.36.53-1.29-.31-3.14-.41-11.8,0-14.83.05-.35.35-.25.39-.4.16-.68-.36-1.15.38-1.18Z" fill="#121b21"/><path d="M84.56 112.48c.2 2.1.59 7.47.19 9.37 0 .03-.32.09-.38.37-2.78-.19-5.77.26-8.54 0-.32-.03-.7-.19-.83-.2v-.56l.39-.17c1.03.43 8.22.44 8.53.06.46-.57.25-7.29-.13-8.52l.12-.36c0 .09.01.17-.01.25-.12.36-6.72.18-7.49.12-.62.12-.99 0-1.12-.37l.14 8.18c.04.35-.14.62-.42.82-.03-3.22-.52-6.06.19-9.19h1.31c2.04-.16 4.15-.1 6.19 0 .72-.05 1.11-.03 1.69-.56-.08.27.17.59.19.75z" fill="#0b1d24"/><path d="M112.88 112.86c.14.11.54.65 0 .64.51.1.43.34 0 .49a2.26 2.26 0 0 1 .37.11c.19.07-.02 3.74-.06 4.15 0 .06-.14.1-.32.15v3.09l.12-.37c2.67.16 5.56.16 8.28 0l.22.37.19-7.69c-.27-.11-.27-.26 0-.37-.51-.12-.65-.2-.19-.56.06-.5.23-.48.38 0 0 .26.2.65.2 1.02l-.1 7.8c-.02.04-.61.36-.66.37-1.09.21-6.94.16-8.16 0-.26-.03-.49-.04-.67-.27l-.17-8.92c-.26.25-.36.14-.19-.19-.16-.05-.16-.12 0-.19.26-.58.93-.17.75.37z" fill="#092d39"/><path d="M93.75 140.04c-.12-.06-.26-.15-.38-.19-.48-.11-.49-.17 0-.22l.08-7.74c-.46-.15-.32-.32.11-.48-.03.18-.22.3-.57.37h-8.21l-.22-.37c.15 0 .37.03.38.13.11 1.27.06 3.08 0 4.37-.05 1.15-.1 2.05-.38 3.19.27.35.22.44-.19.56-.5-.74-.18-.36-.18-1.21l-.2-7.23c.1 0 .35-.18.56-.19l9.1-.02c.29.25.25.52.28.86.18 2 .09 5.09 0 7.14-.02.35-.09.69-.19 1.02z" fill="#091b21"/><path d="M112.12 112.67l.19.19c-.52 2.68.06 5.65-.18 8.35-.03.33.06.61-.29.83l-.18-8.64-8.07.02c-.53-.1-.34-.29-.47-.56-.01-.37.3-.36.38 0l8.25-.19c.12-.25.27-.26.38 0z" fill="#0d0e14"/><path d="M102.94 102.36c.3.04.7.14.37.36l8.06.2c.16.05.16.12 0 .19l-.21.18a65.24 65.24 0 0 0-7.66.01c0 .09 0 .17-.03.25-.35 1.03-.3 6.33-.19 7.96-.07.2-.14.57.04.69.39.26 7.5.11 8.42-.03.09-.34.22-.2.38.13.16.05.16.12 0 .19v.19c-.12 0-.25-.01-.38 0l-8.25.19h-.38c-.48-1.06-.17-1.24-.18-2.15v-5.73-2.06c-.06-.05-.57.04-.75 0l.19-.75c.2-.03.42.06.56.19z" class="BK"/><path d="M112.31 28.31c.15-.02.52.4.52.47.2 1.81.32 6.4-.1 8.02-.06.24-.15.47-.24.7l.17-.37h8.98l.22.37-.38-.17v-8.6l.38-.22c-.2-.2-.09-.28.19-.19.12-.51.24-.71.56-.19.05 0 .41.31.63.2 2.22.26 5.43-.4 7.52-.01.16.03.47.15.47.28v8.9h9c.15.15.27.34.38.56.01.06 0 .13 0 .19-.28.29-.19.67-.19 1.02v4.89c0 .76.46 1.84-.09 2.52-.28.35-7.8-.31-8.91.08-.56.49-.37 6.72-.38 7.9 0 .31.19.69.15.91-.22 1.22-2.53.32-3.33.49l.02.18-5.04.28-.79-.15-.1 6.13c.22 4.17.43 8.34-.08 12.5-.03.17-.1.16-.19 0l-.11.19c-3-.15-5.95-.13-8.84.07-.15 2.77-.17 5.56-.06 8.35l-.18.2c.73.38 1.56.54 2.49.48l6.53-.06c0-.2.64.31.67.37.23.36.1 7.5.04 8.52l-.36.26c.03.37-.25.31-.38 0-.55-.32-1.23-.39-2.02-.21h-6.36c-.6 0-.15-.18-.11-.02.02.06-.05.14-.14.23-.05.28-.54.73-.75.56-.09.28-.34.14-.33 0 .13-1.02.25 8.34.16 8.4-.22.34-6.27.39-7.12.02l-.59.2c-1.13.47-1.22-.04-1.02-1.21V84.47c.02-1.27-.39-1.38-1.25-.35l-.26-.12-.09.19h-6.54l-.13-.19c-.07.17-.17.23-.32.16-.74-.35-.49-6.12 1.53-2.87.33.17.3-3.6.05-3.61-1.7 2.64-2.28-.85-1.91-2.4 3.08-.16 6.14-.25 9.18-.27-.02-.55 0-1.16.08-1.85l-.15-4.47c-.22-1.39.05-2.52.83-3.39-.17-1.22-.46-8.64-.08-8.88.28-.18 1.09-.18 1.26.17 1.38.15 4.25.29 5.57.07.02 0 .02-.08.02-.18 1.31.07 1.81-.26 1.48-.97l-.36-.34c.12-2.6.22-5.25-.02-7.83a236.63 236.63 0 0 0-17.47.02l-.33-.29c-.88-.37-1-1.99-.8-2.84-.03-.95-.14-6.02.24-6.55.22-.32.78-.53 1.07-.27l7.19.1c.17-.34.4-.43.75-.37l.18-8.6.38-.22c2.81.04 5.89.18 8.62-.19.19-.25.29-.08.38.19z" class="BM"/><path d="M121.69 11.44c.18 2.17.14 4.39.01 6.57-.06.36-6.77.18-7.33-.01-.4-.2-.73-.13-1.12 0-.07.32-.47.37-.67.13l.11-8.38a.48.48 0 0 1 .47-.37c2.07-.19 4.61.04 6.76 0 .65-.01 1.61-.55 1.92.5.19.65-.14 1.07-.15 1.55zM129 27.93c-2.24.06-4.44.05-6.61-.04l.05-8.74.38-.22 7.94-.17.13.17.2.05v8.76c-.12.33-1.62.18-2.07.19z" class="BL"/><path d="M114.38 18l.34.18h6.98c.18 0 .39.39.57.46.79.32 6.29.13 7.6.11.52 0 1.04-.41 1.42.07l-.21 8.92-.19-8.81h-8.06l-.1 8.81c.31.43.82 0 1.16.01l5.14.17-6.38.19c-.24 0-.42.16-.56.19-.31.09-.31-.04 0-.37l-.37-.43a45.26 45.26 0 0 0-.11-8.48c-2.76-.3-5.55-.33-8.36-.1l-.34-.36c-.17-.36-.05-.58.38-.56.18-.31.92-.3 1.12 0z" fill="#04232f"/><g fill="#02242d"><path d="M121.69 18.18s-.29.2-.63.2c-2.54 0-5.08-.03-7.61-.01-.16-.6.55-.35.94-.37h4.98c.76-.01 1.5-.19 2.34 0v-6.56c.31.19.19.71.19 1.03.02 1.87.13 3.91-.19 5.72z"/><path d="M113.25,18c-.08.13,0,.46-.38.56-.03.17-.1.16-.19,0-.16.15-.28.21-.38,0,.34-2.88.19-5.89.19-8.81h.19c.2,2.41-.27,5.24-.01,7.6.05.42.06.65.57.65Z"/></g><path d="M140.62,37.87c0,.06-.01.13,0,.19-.27-.08-.37-.29-.38-.56h.19s.15.16.19.37Z" class="BU"/><path d="M65.44 9.37c.05.06.13.18.19.19l.43 1.13-.16 5.13.09 2.72c0 .06-.03.13-.08.2l.03-.25h8.93l.13.25c.59.01.38.47.19.87v17.05c.3.07.23.18-.19.35 2.23.12 5.51.21 8.24 0l.76.29c.03.07.16.13.19.19.76.14 1.1 1.07.19.94l-.16.52c.18 3.09.1 6.1-.23 9.03l.04 6.05c-.04.38-.46.24-.59-.05l-.19-.06V48.1l.19-.12c-.06.5-.23.48-.38 0l.19.06v5.82l-.19.12c-.21.4-1.02.39-1.2-.19-1.71-.34-3.52-.23-5.24 0-.41.55-1.18 1.02-1.44.2-.16-2.14-.16-4.64 0-6.84-.24-.26-.34-.6-.28-1.03 0 .15-.03.37-.13.37-1.71.17-5.35.18-7.06 0l-.22-.37c-.53-.28-.12-.61.32-.79 3.07-.6-.86-1.03-1.2.12.44.93.27 1.79-.81 1.23-.02-.04-.3-.09-.33-.3s.16-.6.16-.91v-7.98h-9.09l-.28-.28V28.4l-.28-.28h-8.91c-.25-2.74.33-6.06 0-8.73-.02-.17-.03-.29-.11-.46-.05-.12-.19-.13-.28-.18a126.92 126.92 0 0 0-8.46.16l-.36-.16c-.05.16-.12.16-.19 0-.26.25-.36.14-.19-.19-.16-.05-.16-.12 0-.19-.16-.05-.16-.11 0-.19l-.07-8.5.25-.12c.32-.2.66-.18 1.02-.2 8.83-.33 17.88.27 26.73 0z" class="BM"/><path d="M93.56 37.49h-8.81c-.05.16-.12.16-.19 0l-.19-8.91c.3-.98 1.22-.47 1.96-.46h6.02c.73 0 1.25-.53 1.41.64.25 1.85.01 4.97-.02 6.95-.01 1.01-.04.89-.18 1.77z" class="BL"/><path d="M93.94 18.75h9l-.19 9.37a21.57 21.57 0 0 1-8.62 0c-.22-.17-.47-.26-.56-.56-.51.04-.5-.65-.08-.82l.12-5.48c-.21-.69-.23-1.92.33-2.51z" class="BM"/><path d="M102.75 28.12c.1 0 .35.18.56.19l-.19 9.19c-.37.01-.75-.01-1.13 0l-7.82-.17c.14-.22.19-.48.13-.76-.48-1.27-.57-4.7-.38-6.1a27.34 27.34 0 0 1 .39-1.4c.03-.05.91.3.93-.47 0-.25-.79-.14-.95-.21-.12-.05-.13-.22-.18-.26h8.62z" class="BK"/><path d="M111.19 18.93c.21-.1.64-.14.8 0l-.13 8.99h-7.98c-.38-.04-.7.05-.75-.47.25-1.29-.36-7.67.09-8.35s1.86-.18 2.44-.17c1.67.03 3.98-.22 5.54 0z" class="BL"/><path d="M66 9.75c.4.18.7.18 1.12 0H75c.43.11.77 1.12.56 1.12h-9.38s-.16.57-.11.75c.11.44.75.88.85 1.41s.07 3.85-.09 4.21-.9.58-.84 1.13h7.41c.41-.3.87.12 1.29-.01s.26-1.15.96-.92c.25.08.5.95.47 1.21-.05.46-.75.83-.75.94v17.15c.6.14.4-.7.84-.93.22.14.29.54.47.65.34.21 5.64.15 5.81-.1.16-.22-.74-.98.39-1.04.13-2.02-.23-4.37 0-6.35.18-1.47 1.1-.44 1.1.74 0 1.64-.57 6.24 0 7.59-2.9.4-5.88.12-8.78.16-.03-.14-.22-.37-.22-.44V18.74h-9.09c-.21 0-.27-.46-.29-.65-.31-2.63.25-5.85 0-8.54.1 0 .26.17.38.19zm27.94 9l-.38 8.81c-1.96-.01-3.94-.02-5.91 0-.4 0-.78.2-1.12.2-.57 0-1-.51-1.31-.5-.34 0-1.39 1.22-1.58.19-.04-.22.48-.75.67-.78.27-.05.61.25.91.26.44 0 .9-.45 1.32-.48.33-.02.72.19 1.11.19 1.9 0 3.87-.16 5.73.18V21.2s-.23.03-.3-.07c-.94-1.26-.2-1.71.87-2.37z" class="BK"/><path d="M84.56 37.49h.19l8.47.11c.09.64.06 1.15-.71 1.08l-5.2-.11c-.31.51-.8.46-1.47-.14-.42.58-.84.8-1.28.65.15.02.36.06.38.17.1.98.16 4.51 0 5.37l-.38.27c.65.07.85 1.57.19 1.78.36.33.33.37-.09.51-.13.44-.29.71-.47.8l-.22.15c.43-2.72.33-5.56.21-8.37-.05-.48.02-.93.2-1.33 0-.02.22-.12.16-.42-.04-.18-.26-.35-.35-.52h.38z" fill="#101b1f"/><path d="M112.69,18.56c.34.48.08.74-.38.37-.25,2.94-.21,6.08,0,9,.17.03.16.1,0,.19.09.05.08.11,0,.19-.11-.03-.31-.2-.38-.19l-8.06-.19c2.42.25,5.23-.19,7.69,0l.16-8.7c-.09-.27-.3-.27-.54-.3.06-.19.22-.16.38-.19.25-.05.6-.17.75-.19.12-.01.25,0,.38,0Z" fill="#03252e"/><path d="M94.31,36.56c.07.19.23.75.29.76l7.39.17c-2.32.08-5.22-.27-7.42-.01-.68.08-.76.4-.84,1.04-.17,1.52-.2,6.03,0,7.51.07.52.3.64.57,1.02-.1.49-.23.49-.38,0-.22.27-.6-.16-.38-.37-.52-.19-.43-.31,0-.56-.73-.03-.88-.69-.61-1.33.13-1.71.14-3.43.03-5.16l.39-.45c-.5-.47-.25-1.28.19-1.69.53,0,.68-.49.75-.94Z" fill="#101b1f"/><path d="M121.88 74.99a42.52 42.52 0 0 1 .24 9.23l.44-.27 8.5.03c.33.1.4.28.24.57l6.35.05c1.28.19 2.33-.02 3.16-.62-.04 2.73-.48 6.12-.19 9l-.83.58h-16.61c-.2-.02-.39.05-.56.17-.14-.01-.39 0-.38.19-.02.75-.9-.39-.38-.56-.08-1.25.19-8.43-.08-8.82-.3-.42-8.16-.04-9.29-.18v-.56c.11-.36.28-.37.38 0l.57-.24a31.3 31.3 0 0 0 7.74.06l.25.23c-.24-2.83-.05-5.67.25-8.49-.5-.06-.48-.23 0-.37h.19z" class="BT"/><path d="M121.5 93.36h.38c.06.88.3.45.38.56.27.41-.14 7.69-.11 8.82.28.39 1.06 0 1.5-.01l7.6.1c.11.07.17.21.23.33l.14 9.33c-.08 0-.27-.19-.38-.19l-.26-.03-.11-8.68c-2.76-.27-5.6-.13-8.37.05l-.26-.34c-.47.36-.73.1-.38-.37l-.37-.28.09-8.91c0 .09.01.17-.01.25-.13.4-7.55.21-8.39.12l-.22-.37c-.13 2.22-.2 5.49 0 8.2l-.29.79c.33.45-.1.84-.56.56-.19.36-.59.08-.75-.19v-.19c.08-.13.27-.13.56 0v-8.87l.19-.13c.05-.01.46-.51.75-.56.16-.23.48-.31.97-.25l7.37-.04c.16 0 .25.13.28.29z" fill="#0c1820"/><path d="M138.56 131.04c-.19.31-.71.19-1.03.19h-4.51c-.32 0-.83.12-1.03-.19 2.01-.16 4.51-.03 6.56 0z" class="BK"/><path d="M122.62,93.74c-.1-.97.24-1.1.56-.19v.19c-.28,0-.22.03-.56,0Z" fill="#0c1820"/><path d="M18.75 65.8c.18-.36.26-.36.64-.39 2.75-.19 5.75.15 8.52.04l.03 8.78c-.26.16-.34.07-.19-.19-.33-.24-.19-.35.19-.37l-.35-.27.07-7.6v.25l-7.62.12c-.14-.21-.41-.33-.82-.37-.25 2.53-.35 5.16-.28 7.87.25 0 .33.37.19.56.61.26.12.67-.38.75-.01.16-.07.22-.19.19-.24.43-.42.5-.56.19l-.09.24c-2.59.04-5.33-.07-8.24-.33l-.11 8.72c.5.06.48.23 0 .37-.05.14-.12.13-.19 0l-.2-8.35c.03-.35.06-.69.22-1 1.79-.39 7.67.51 8.97-.21.06-.03.16-.13.19-.19.09-.16.17-.14.2-.45.27-2.43-.02-5.81-.01-8.36z" fill="#07323e"/><path d="M18.19 74.8H18v-9c.34.07.35.37.38.65.22 1.99.06 5.24 0 7.33-.01.36.02.71-.2 1.02z" fill="#0c0e11"/><path d="M18.56 103.11c-.6-.03-1.63-.36-2.34-.38-2.22-.07-4.46.03-6.67.09l.22-17.68 8.04.24c.47.35 0 1.72-.02 2.26-.05 1.45-.13 3.54.17 4.91.09.42-.13.6.4.25.3.13.33.66 0 .75-.45-.06-.26.25.56.94 1.27.42 1.07 2.78-.19 1.5.15.02.36.06.38.17.14 1.09.14 4.38 0 5.46l-.38.28c.72-.6.86-.47 1.31.15l1.46-.45c1.76.08 3.51.06 5.26-.04.09-1.6.06-3.21-.07-4.81l.28-.94c.04-.55.62-.52.75 0a35.17 35.17 0 0 1 .27 5.83l-.27.17c.27.63-.04 1.4-.75 1.12-.29.52-1.61.56-1.88 0a29.31 29.31 0 0 0-5.62 0c-.07.5-.47.64-.75.19h-.19z" class="BO"/><path d="M9.38 112.11c.13-1.1-.25-8.62.18-8.92.34-.24 7.42-.16 8.37-.09.38.03.46.03.64.39v9c-2.68-.25-5.94.33-8.55 0-.54-.07-.39-.14-.64-.38zm18.74.75v.37l-.36 8.54-8.82.08c-.05-.07-.12-.15-.19-.19l.08-8.82c.25-.38.89.04 1.32.02l7.03-.39c.19-.73.73-.06.94.37z" class="BM"/><path d="M19.5 102.92c1.87-.13 3.78-.2 5.62 0H27a1.87 1.87 0 0 1 .94 0l.18.09c-.39 3.07-.38 6.41 0 9.47.06.05.11.15.19.19.16.05.16.12 0 .19h-.19c-.19-.03-.37-.41-.94-.37h-8.44v-9.37c.07 0 .43-.19.75-.19z" class="BX"/><path d="M37.31 9.19l.38.37-.19 8.62c-.27.07-.42-.17-.19-.37l-.4-.51.12-7.74c0 .09.01.17-.01.25-.13.39-7.35.2-8.2.12l-.22-.37.09 8.2-.37.23c.23.23.12.3-.19.19l-.48-.32c-.39-2.76-.47-5.51-.23-8.25l.71-.24s.28-.2.63-.2l8.55.01z" fill="#091f25"/><path d="M129 56.43l-.4.37-4.36-.08-1.71.29c-.17 2.71-.17 5.44 0 8.18l.38.23c.02-.15.06-.37.17-.37.64-.05 5.31-.13 5.56 0 .15.08.22.22.27.37-.76-.94-.38-1.4 1.15-1.39l-.04-.25c-1.65.39-1.93-1.25-.18-1.32a48.27 48.27 0 0 0 .09-5.11c.03-.44.06-.78.57-.74.04-.07.43-.28.56-.37l-.11 9.38c.26.35 5.35.15 6.21.17.33 0 .63.15.93.16.42.01 2.89-.31 2.9.32-.27.34-.61.42-1.02.47-2.61.3-5.88-.16-8.54-.11-.18.13-.17 1.35-.19 1.69v6.85a42.47 42.47 0 0 1 .34 8.51c.02.54 8.32.57 8.66.09l-.03-8.35.41-.24.19-.19v9l-.66.75c-2.54.18-5.39-.24-7.89-.01-.41.04-1.39.39-1.77.57-.03-.86.48-.39.56-1.31l-.33-.69-.08-7.65.26-.42c-3.01.24-6.05.24-9.04-.24V56.24h5.17c.35 0 .7-.2.83-.2.06 0 .99.27 1.12.37z" class="BQ"/><path d="M140.62 75.18c-.25 1.35.37 8.12-.09 8.82-.14.22-.85.34-1.13.37-1.41.14-6.16.19-7.41-.09-.15-.03-.72-.27-.75-.41v-8.68h9.38z" class="BL"/><path d="M140.81,56.99l-.19,8.15c0,.15-.18.47-.28.47h-8.91c.06-.18-.19-.41-.19-.47v-8.62c0-.21.46-.27.65-.29,1.23-.14,7.36-.17,8.37.09.27.07.4.28.55.48.16.06.16.12,0,.19Z" class="BN"/><path d="M141.75 56.24v.19c-.06.06-.14.12-.19.19l.19 7.87c-.04.48-.43 1.95-.8 1.07-.22-.52.06-.85.06-1.35l-.2-7.23v-.19c-.02-.18.03-.39 0-.56.31.02.63-.01.94 0z" class="BQ"/><path d="M141.75,64.49c-.43-.13-.36-.48-.39-.83-.15-2.21.22-4.56-.1-6.78.03-.2.26-.21.3-.26.11.33.18.67.19,1.02.11,1.94.17,4.95,0,6.85Z" class="BO"/><path d="M139.5,55.49c.2.17.01.3-.56.37-1.93-.11-4.42-.08-6.38,0-.36.15-.91-.05-.56-.37,2.35-.59,5.14-.53,7.5,0Z" fill="#11161b"/><path d="M139.88 55.49l.19.37h-1.12l.56-.37c.04-.38.23-.36.38 0zm-7.88 0c.08.27.29.37.56.37-.02 0-.12.15-.28.16-.25.02-.57-.2-.85-.16v-.37c.01-.54.44-.51.56 0z" class="BQ"/><path d="M27.94 37.12v.37c-2.6-.26-5.84.34-8.36.01-.52-.07-.64-.3-1.02-.57.02-.19.18-.46.2-.83l.02-7.58c.25-.39 6.72-.18 7.78-.2.36 0 .56-.19.63-.2.26-.98 1.46.63 1.11.93l-.16 7.64-.2.42z" class="BM"/><path d="M21 27.93c-.8.02-1.64.58-2.06-.37l-.05-8.71 8.51-.09.29.44-.08 8.68c-2.18.16-4.38.18-6.61.06z" class="BL"/><path d="M18.75,37.49s.15.23.38.37l.13.29c-.53,2.68-.5,5.47-.06,8.14-.06.72-.63,1.03-1.73.92-2.57-.22-5.08-.15-7.52.19l-.19-.17c-.12-.2-.37-.35-.38-.37-.39-1.07-.3-6.91-.2-8.35.06-.89.13-1.11,1.07-1.2,1.52-.14,7.31-.22,8.5.17Z" fill="#09252c"/><path d="M29.81 18h6.94c.05-.16.12-.16.19 0 .21-.03.39.1.56.37v.19l-.16.38-8.83.16c-.29 2.87-.35 5.98-.11 8.9l-.27.3h9.06l.31.19v.56l-.18.37-8.46-.06-.17 7.72-.38.22-.38-.19v-6.47c.01-.81.69-2.67-.74-2.52L21 27.93c.86-.02 6.05.16 6.3-.18l.06-8.52-.29-.27-8.04-.04-.09 8.63c-.31-.19-.19-.71-.19-1.03v-7.78c.04-.42.17-.55.6-.53 2.69.18 5.46.35 8.18-.11l.6.27 1.31-.37c.11-.36.27-.36.38 0z" class="BX"/><path d="M18.38 84.36c.34-.38.45-.31.38.19.16.05.16.12 0 .19l.02.63c.54.01.54.49 0 .53l.09 7.18c.22.36.25.58.08.66l9 .19.2.12.41 8.18-.24.14c-.04.09-.13.13-.19.19-.32.22-.44-.03-.38-.75.2-1.71.01-4.2 0-6-.35-.12-.45-.56-.3-1.32l-8.29-.19c-.57-.03-1.22-.12-.78-.74-.04-.19.01-.52 0-.75-.11-2.2-.03-4.63 0-6.85 0-.41.37-1.07.01-1.31l-8.17.11c-.33-.03-.7-.19-.83-.2v-.19h.19c.15-.1.31-.17.46-.17l7.89-.01c.15 0 .3.08.45.19z" fill="#0c2028"/><path d="M140.44 140.23l-.19.37-9 .19v-.37-1.6c0-2.32-.26-4.92 0-7.21l9.2-.1v8.72z" class="BL"/><path d="M111.19,18.37h-7.03c-.46,0-.91-.56-.66-.56h7.41c.12,0,.36.4.28.56Z" class="BM"/><path d="M28.12 9.37c-.79.67-.34.89-.36 1.59-.07 2.24-.28 5.14.36 7.22.16.05.16.12 0 .19-2.28.46-4.1.41-6.48.38-.67 0-2.48-.37-2.9 0v-8.73c.02-.2 0-.43.18-.57.3-.21 6.26-.07 7.24-.09l1.96.01z" class="BK"/><path d="M9,102.36c.15.72-1.09.25-1.5.37-.15-.72,1.09-.25,1.5-.37Z" class="BM"/><path d="M131.44 55.49v-8.44h9c.03.41.16.79.2 1.21a53.02 53.02 0 0 1-.03 6.55 1.55 1.55 0 0 1-.2.64c-.12.09-.37.01-.53.03h-.38-7.5-.56z" class="BO"/><path d="M130.5 56.62c-.61 1 .24 5.58-.42 6.14-.21.17-1.08.15-1.08.33.01.66 1.02.43 1.31.09l.19 1.31h-1.69c.25.45.07.7.56.37v.56c-.18-.15-.35 0-.47 0h-6c-.1 0-.4.3-.66.19-.27-.24-.23-5.81-.2-6.66.02-.45.19-.86.21-1.3.02-.32-.45-1.36.25-1.21.15.03.28.31.39.36.15.07-.05-.34.36-.39 1.61-.18 4.03 0 5.73.02.47 0 1.19-.15 1.5.19zm-83.44 83.61l.06-8.35c.14-.45.49-.05.75-.08.14-.01.1-.35.25-.38 1.23-.32 5.09.08 6.53.2.45.04.96-.31 1.23.07l.17 7.98c-.73.37-1.63-.57-1.97-.57-.16 0-.11.37-.28.47-.41.27-4.27.03-5.17.08-.35.02-.7-.04-.83.39-.17 0-.56.12-.75.19z" class="BK"/><path d="M84.56,139.1c-.06-2.6,1.8-2.05.84,0,0-.15.04-.37.13-.37,1.35-.08,6.2-.25,7.24,0l.22.37c-.14,0-.36-.03-.38-.13-.19-1.65-.16-5.29,0-6.96l.38-.22c-.02-.2.33-.28.43-.19.32.26-.14,7.28-.21,8.15l-.98-.08c-1.12-.1-7.65.33-7.88,0-.13-.32.16-.46.19-.56Z" fill="#052c35"/><path d="M84.56,139.1v-7.69h9l-.19,8.44c-.05-.02-1.03-.18-1.12-.19h1.13c-.22-2.38.3-5.28,0-7.6-.04-.34.06-.3-.38-.28v7.31h-7.59c-.41,0,.02-1.17-.1-1.5-.6.24-.55.9-.75,1.5Z" class="BL"/><path d="M67.12,9.75c-.43.41-.73.08-1.12.75v-.75c.32.06.77-.02,1.12,0Z" class="BK"/><path d="M66 47.06l.05-.19c2.85-.27 5.76-.39 8.71-.36l.23.37.09 7.04c.33.26.49.77 0 .89v1.04c.24.08.19.16-.09.22.07-.4.21-.48.28-.09l8.59.09.12.19-.56.38-8.44-.1c.15-.02.37.01.38.13v8.28l-.38.22c2.53.19 5.35.2 7.99.1.96-.46 1.3-.11 1.58.74.64.12.68.5 0 .56l.31.34c-.37 2.56-.23 5.19.02 7.76l-.34.33c.27 1.96-.05 4.54 0 6.66.02.92.74 2.75-.64 2.91-1.9.22-5.42.09-7.42-.01.32-.37 1.03-.13 1.5-.19l.34-.36 6.04.08c-.15-.02-.37-.07-.38-.17-.15-2.21-.24-6.28 0-8.41l.38-.22-8.18.14c-.35.04-.62-.14-.82-.42l-.38-.37-.38-.13-.23-17.88-8.18-.17-.22-.38-.15-.16.15-8.27c-.17-.02-.16-.08 0-.19-.01-.12.03-.28 0-.37z" class="BO"/><path d="M66 47.43v.19l-.16 8.32-.22.12-.41-.51v-8.11h-8.73l-.11 2.18a36.89 36.89 0 0 1 .12 6.11 55.45 55.45 0 0 0 8.46.1l.48.41c.2.19.06.32-.19.37.01.37-.31.36-.38 0l-17.63-.47c-.28-.25-.34-.58-.38-.94-.27-2.38.2-5.25 0-7.68.05-.38.28-.58.66-.66 1.43-.27 4.19.04 5.81 0l3.55-.2c2.39.35 6.03-.44 8.26.01.47.09.54.44.85.75zM37.5 29.06v7.79c-.02.2 0 .43-.18.57-.34.24-7.45.17-8.38.09-.37-.03-.36-.06-.64-.2l.18-8.36 9.01.11zm8.06-10.13c.22.5.22.91 0 1.22.15 0 .37.03.38.13.15 1.56.16 4.96-.03 6.49l-.34.22c-.15.31.41-.11.35-.34l.07-7.32.33-.4c0-.26.24-.2.38 0v7.41c.01.81.66 1.61-.64 1.78-1.78.24-4.48-.04-6.39-.02-.5 0-1.01.43-1.21-.18-.15-.01-.37-.06-.38-.17l-.09-8.42c0-.13.13-.2.28-.23l.43-.26c2.28-.15 4.62-.24 6.88.07z" class="BL"/><path d="M84.19 47.99c.09.08.17.17.22.27.19.37.01 5.86-.02 6.81 0 .08-.09.16-.2.24-.14.08-.28.09-.42.01-.16-.97-1.21-.82-1.08.24-1.86-.06-3.71-.04-5.55.04-.54 0-.89-.09-.64-.66 1.63-.41 3.26-.41 4.88 0-1.05-.4-2.46-.48-3.47-.1-.72-.08-1.23.03-1.54.34-1.47-.14-1.01.71 1.12.42 2.3-.17 4.6-.04 6.89.28.16.05.16.12 0 .19-.02.29-.16.5-.38.19l-9-.19v-9.19l-9 .19c-.03-.12-.13-.25-.19-.37 1.38-.01.29-.76.45-1.32.36-1.31 2.97-1.1 3.11-.65.3.99-1.74.61-1.87 1.4h7.41c.64 0 .28.97.28 1.03V54c.9.33.97-.44 1.24-.53.8-.27 5.01-.37 5.64.03.22.14.23.75.99.51v-6h.38v6c.44.02.33.06.38-.28.24-1.89-.16-4.24 0-6.19.05-.59.38-1.05.39-1.69.05-2.06-.38-4.39-.21-6.56.03-.33.07-.65.38-.84 0 2.56.31 6.32-.22 8.68-.06.26-.38.66.03.88z" class="BM"/><path d="M48,46.12c-.35-.39.63-.54.84-.56,4.4-.38,9.5.38,14.07.38.37,0,.75-.21,1.08-.16.77.11,1,.64-.14.72-1.71.13-4.5.13-6.21,0-.56-.04-1.02-.38-1.3-.37-.32,0-.6.34-.95.36-.42.03-.77-.28-1.15-.3-.79-.06-6.03.17-6.25-.07Z" fill="#131920"/><path d="M19.12,37.87c.08.05.39-.12.38.11-.5,2.08-.51,4.56-.39,6.74.05.94.88,2.4-.27,2.53-2.42.28-5.47-.24-7.88,0-.3.03-.51.36-.94.38-.5.02-.2-.24-.29-.39,1.45-.6,8.13.27,8.92-.36.62-.49.08-2.05.07-2.73-.05-2.06-.16-4.32.38-6.29Z" class="BK"/><path d="M37.88,18.75c.21.03.34.16.38.37l.19,8.81c-.32,0-.52.28-.75.37-.16-.05-.16-.12,0-.19l-.38-.17v-8.98l.38-.22h.19Z" class="BX"/><path d="M64.88,56.62h.38c.21-.24.32-.35.38,0,.49.06.58.23.19.56h-.19c-3.44-.43-7.02-.07-10.5-.19.07-.34.37-.35.65-.38,2.61-.29,6.35,0,9.1,0Z" fill="#12171c"/><path d="M46.69,18.75v.19h-.38c-.24.36-.51.36-.75,0-2.46,0-4.92-.06-7.31.19-.3.03-.44-.06-.38-.37,2.41-.38,4.93-.18,7.37-.07.54.02.78-.35,1.44.07Z" class="BR"/><path d="M37.69,28.31s-.11.15-.19.19c-2.86-.21-6.11.28-8.92.01-.26-.03-.27,0-.45-.2l.16-.38,9.17-.18.23.37v.19Z" class="BL"/><path d="M63 112.86c.16.12-.52.81-.57.83-.3.16-4.08.2-4.59.1-.38-.07-.88-.51-.85-.93.78.14 5.76-.18 6 0zm1.879-9.932l.001-.56.37.001-.001.56zM66 56.05l8.81.19.19 18.37c-.13.43-.48.37-.83.39-2.73.16-5.61-.14-8.35 0V57.19c0-.09-.22-.35-.19-.56-.28-.14.14-.6.38-.56z" class="BM"/><path d="M76.12 84.55c.34.61-.29.88-.38 1.59-.23 1.87.34 4.65 0 6.38-.08.4-.43.5-.52.79-.08.24 0 .76-.04.8-.31.34-8.04-.26-9.19 0-.4-.28-.5-.5-1.02-.57-1.19-.16-8.02.26-8.33 0l-.21-8.98h7.41c.39 0 .82.23 1.11.2.39-.04.57-.47.89-.61.56-.24 7.35-.26 8.3-.15.76.09.94.49 1.96.57z" class="BK"/><path d="M78,84.36s-.3-.18-.63-.2c-.74-.04-2.11.43-2.33-.31.18-2.55-.36-5.75-.05-8.22.04-.31.03-.56.38-.65,2.63.23,5.78-.31,8.35,0,.19.02.65.09.65.29v8.81c0,.21-.46.27-.65.29-1.51.18-4.14.06-5.73,0Z" class="BM"/><path d="M27.94 84.17a41.3 41.3 0 0 0-.05-9.03l.24-.15h.19l.31.29a58.93 58.93 0 0 1-.13 8.71c.26-.02-.44.87-.49.9s-.88.12-1.07.14c-.92.09-7.73.05-8.03-.22-.07-.06-.12-.16-.16-.26-.09 0-.27-.18-.38-.19-.5-.06-.48-.23 0-.37l-.24-.37.08-8.13.35-.31.19-.19c.43.06.52.19.1.28l.19 8.92a69.71 69.71 0 0 0 8.91 0z" fill="#004e5a"/><path d="M27.75 74.05c.13 0 .14.09.19.19.02.04.18.7.19.75l-.35.16-9.03-.16c.06-.06.37-.7.38-.75.05-.16.12-.16.19 0l.19-.19a10.22 10.22 0 0 1 .94-.42l7.06.21.26.2z" fill="#01414f"/><path d="M28.31 121.48c.13-1.03-.25-7.87.18-8.17.67-.46 7.48.21 8.82-.08v8.44H28.5l-.19-.19z" class="BL"/><path d="M19.12 129.73c-.31-.19-.19-.71-.19-1.03v-4.22l.35 4.98c0 .16-.16.25-.16.27z" class="BK"/><path d="M18.56 122.04v6.85c.01.6.5 1.53-.07 1.98-.79.62-7.06-.25-8.46.36-.16.02-.47-.19-.47-.29v-7.87c0-.26-.25-1.03.47-1.03h8.53zm19.69-18.56l8.07-.1c.44.31-.05 7.58.36 8.73-.75-.15-1.47.14-2.16.19-1.98.12-4.14-.17-6.09 0l-.19-8.81z" class="BL"/><path d="M37.31,112.67c-1.48.35-7.39.41-9,.19v-.19h9Z" fill="#013640"/><path d="M37.31 84.36v.37 17.43c-.24.11-.22.16-.56.19-.16-.05-.16-.12 0-.19q.2-.33 0 0c-2.83.15-5.61.16-8.34.01l-.19-7.91c-.15.07-.24-.04-.28-.35-2.2-.3-5.6.03-7.97 0-.32 0-.83.12-1.03-.19l.06-.24a98.17 98.17 0 0 0 8.92.11c.03-.4.1-.41.13-.02l.08-6.92c-.61-.12-.5-1.2 0-1.36-.59-.18-.44-.54.45-1.11a68.6 68.6 0 0 1 8.74.17z" class="BL"/><path d="M37.12 74.99c.14.02.4-.1.38.11l-.19 9.64v-.37l-.19-9.19c-.16-.05-.16-.12 0-.19z" class="BV"/><path d="M37.31 103.3c-.03.17-.1.16-.19 0-.11.35-.27.35-.38 0l-8.35.22-.09 8.22c.49.09.45.18 0 .37a70.66 70.66 0 0 0 8.62.19c.05-.16.11-.16.19 0 .05-.17.11-.16.19 0l-9.19.19c-.24-1.3-.5-8.96-.05-9.4.04-.03.13-.01.23.03l9 .19z" fill="#037073"/><path d="M28.31,102.92v.19c-.2.17-.19.4-.2.63-.14,2.87.13,5.86.01,8.74-.31-.24-.33-.17-.38-.64-.16-1.3-.14-7.91.2-8.92.12-.01.25,0,.38,0Z" fill="#013640"/><path d="M37.31 112.29c-.06 0-.13-.01-.19 0l-.38-.17v-8.6l.38-.22h.19v9z" fill="#058a89"/><path d="M27.94 93.92c.23.03.44.02.54.3l.03 7.95c.67-.25 1.15 0 1.77.01h6.48v.19c-2.71.22-5.7-.16-8.44 0l-.38-8.44z" class="BW"/><path d="M28.12 102.55l-.19.37c-.11.01-.32.32-.47.32-.22.01-.41-.32-.47-.32.56-.3.68-.52.75-1.12l.38.75z" class="BK"/><path d="M29.44 74.99l7.31.19c.27 1.11.46 8.54.08 8.76-.07.04-.17.05-.27.05-.09.14-.19.24-.29.25-2.27.05-4.86 0-7.14-.07-.09 0-.17-.08-.26-.18-.11-.02-.19-.04-.19-.06v-7.92c-.13-.48-.07-.75.18-.84.03 0 .25-.19.56-.19z" class="BN"/><path d="M28.88 75.18v8.81c-.04.28-.3.28-.38 0v-7.98c0-.38-.19-.75-.19-1.02.08 0 .33.18.56.19z" fill="#023b4d"/><path d="M37.12 74.99v.19l.12 8.14c.14.75-.57 1.56-.69.67.21-.31.18-.67.2-1.02V76.2c-.08-.68-.7-.72-.01-1.02-.16-.05-.16-.12 0-.19.12 0 .26-.02.38 0z" fill="#044753"/><path d="M36.75 74.99v.19l-7.31-.19h7.31z" class="BV"/><path d="M84.56 66.55l.17-.28 8.92.11-.09 8.48-.19.12h-8.81c-.28-2.07-.46-6.47 0-8.44z" class="BL"/><path d="M93.75 65.99c.15.02.37.07.38.17v7.89c.11.52-.02.83-.38.94h-.19-.19l.19-8.44h-9c.04-.18.25-.31 0-.56l.06-.17 9.13.17z" fill="#03242f"/><path d="M131.25,112.29c-.14,0-.48.2-.83.2-2.79,0-5.57-.02-8.36,0-.16-.03-.34-.11-.33-.24.19-2.4.18-4.94.13-7.43.05-.53.18-1.03.39-1.52,1.05-.22,8.66-.38,8.92-.01.43.62-.16,7.7.08,9.01Z" class="BN"/><path d="M121.88 102.92c.06.03.17.36.38.37v8.36c0 .36-.19.71-.2.83 0 .09-.18.27-.19.37h-.38c-.01.52-.48.25-.75 0-2.38.28-5.15.46-7.5 0-.28.33-.4.33-.38 0-.16-.03-.46-.41-.75-.37v-.19c-.37-3-.37-6 0-9l.56-.56.23-.34c2.93-.13 5.86-.11 8.76.06l.19.48z" class="BS"/><path d="M131.25,112.86c0,.86-1.03-.2-.75,1.13-.67.25-.7-.35-1.02-.39-1.29-.17-4.94-.21-6.31-.11-.95.07-.21.34-.16.96.13,1.59.11,4.23,0,5.83-.04.54-.41,1.27-.4,1.48,0,.15.54,0,.39.38-.71.09-.72-.79-.76-1.3-.19-2.34.15-4.77.14-7.11,0-.32-.35-.65-.22-.87h9.09Z" fill="#11181f"/><path d="M94.31 56.24c-.06-.88 1.8-1.43 1.78-.37.02-.15.06-.36.17-.37.98-.13 4.22-.14 5.19 0l.27.37c-.44-.37.08-.71.57-.73.73-.03 1.67.9 1.02 1.48.15.06.27.12.27.18l-.08 8.23c0 .07-.09.14-.19.21l.32.43-.25 8.37-.26.76c-.05.27-.17.29-.39.29H99c-.29.57-1.32.55-1.6-.03l-2.31.03c-.58.32-.97.28-1.16-.1h-.19v-9c-.16-.05-.16-.12 0-.19-.06-.19 0-.25.19-.19.02-.16.03-.24.19-.19l.2-.16c.5.23 1.14.32 1.93.29l.02.24c.02-.12.03-.22.06-.22l5.45.03c.04 0 .08.09.12.19l.07-.19c.44.1.62 0 .96-.18l-.32-.3v-8.39c-2.6-.24-5.22-.23-7.84.03l-.27-.34c-.27.23-.34.12-.19-.19z" class="BK"/><path d="M103.5 74.99c-.61.63-.75.18-1.59.18-1.99-.01-4.91-.23-6.77 0-1.32.16-.15 2.21-.27 3.2.73.09 1.04-1.76 1.7-.85.29.4.29 3.56 0 3.96-.66.91-.97-.94-1.7-.85-.1.49-.46 3.37.09 3.37h6.75c.22 0 .79-1.68 1.79-.62l-.19 19.18c.44-.31.64-.05.94 0l.34-.19a36.78 36.78 0 0 0 7.34.12v.45h-.55l-8.13.01c-.17-.05-.12-.4-.31-.57.11-.33.18-.67.19-1.02.29-5.35-.24-10.95 0-16.33.04-.19-.14-.65-.29-.65h-8.81c-.21 0-.27-.46-.29-.65-.24-2.05-.06-5.54 0-7.71.01-.36-.02-.71.2-1.02 2.72 0 6.66.32 9.19-.19.1-.63.68-.35.38.19z" class="BM"/><path d="M82.69 112.29c-1.96.13-4.19 0-6.19 0 .19-.31.71-.19 1.03-.19h4.13c.32 0 .83-.12 1.03.19z" class="BK"/><path d="M75,121.48c.23-2.63-.31-5.78,0-8.35.02-.19.09-.65.29-.65h8.62c.29,0,.45,1.14.48,1.4.14,1.64.21,5.58,0,7.14-.08.61-.22.76-.84.84-1.56.2-5.91.16-7.52,0-.44-.04-.67-.08-1.02-.39Z" class="BL"/><path d="M113.25 112.86l.18.19 7.16-.01c.18.03.34.09.44.19.02.03-.67-.15-.28-.38h.75c-.01.19.17.42.19.56-.04.33-.33.37-.38 0-.11.36-.27.36-.38 0-1.4.21-4.72.13-4.5.13l4.31.06c.35-.05.45.12.19.37l.27.16-.08 6.78c0 .09 0 .18-.03.25-.14.31-6.21.1-6.78.03-.15-.02-.21-.14-.22-.28.31.54-.73.5-.84-.12v-6.81c.09-.35-.04-.35-.38 0l.33.65c.05.88.11 6.26-.07 6.54-.07.11-.17.21-.27.31v-8.62c.11.02.25-.01.38 0z" class="BN"/><path d="M113.25 113.98c.57-.1.36.29.38.65.07 1.81-.22 3.92-.12 5.61.01.21.15.68.31.8.13.1.25-.11.29-.11h7.03c-.66-.64-.18-1.07-.18-1.77V114c0-.39.3-.39.38 0 .05-.16.12-.16.19 0 .14 2.46.26 5.03 0 7.5h-8.62c.15-2.43-.2-5.1 0-7.5.04-.4.28-.38.38 0z" fill="#034351"/><path d="M121.5 121.48c-.27-.65 0-1.17 0-1.77.04-1.72-.24-4.13 0-5.73-.15-.29-.08-.38.19-.19l.01 7.24c-.02.18 0 .37-.2.45z" class="BN"/><path d="M121.69,113.42c.01.12,0,.25,0,.37-.09.02-.17.1-.19.19h-.19c-.35-.02-.39-.47,0-.56h.38Z" fill="#074653"/><path d="M111.75,112.67c-2.7.29-5.5.19-8.25.19l8.25-.19Z" class="BM"/><path d="M111.38,103.11c.24.02.5.15.75.19v9c-1.05.23-8.66.38-8.92.01-.43-.62.16-7.59-.09-8.89.05-.23.29-.08.38-.12.48,0,.51.18,0,.22.17,2.66.09,5.36,0,8.03.2.18.2.37,0,.56h8.06c-.36-.25-.42-.5-.19-.75-.25-.04-.26-.22-.03-.52l.12-6.44c-.26-.34-.18-.56.09-.91-2.71.02-5.4-.05-8.06-.19.25-.1.27-.18.63-.2,2.03-.14,5.22-.14,7.24.01Z" fill="#003847"/><path d="M112.5 55.49l.14.94c-.65-.17-1.14-.09-1.48.23l-5.87-.11c-.32-.28-.76-.26-1.33.07-.07-.3-.23-.29-.46-.18.24.27.13.38-.19.19-.06-.48-.38-1-.89-1.09-.48-.08-.66.34-.7.34H96.1c-.1 0-.35-.25-.73-.19s-.68.47-1.05.57c-.05.16-.11.16-.19 0-.25.2-.54-.12-.38-.37-.14-.21-.1-.53.11-.95-.19-2.55-.33-5.42.07-7.86.12-.02.27.03.38 0 .29-.07.45-.17.83-.2 5.59-.32 11.56.19 17.18.09.19.13.16.36.18.57.24 1.97.12 5.92 0 7.98z" class="BK"/><path d="M112.5 55.49l.37 1.13c-.23.01-1.44-.24-1.5-.19-.06.06.12.53-.1.57-.55.1-5.84.06-6.09-.11-.2-.13-.15-.88-.85-.28.23 2.52.05 5.07.1 7.6 0 .39.23.81.2 1.11-.04.48-.64.59-.75 1.13-.41 2.17.29 5.57 0 7.88-.07.54-.14.39-.39.64.02-.18-.24-.21-.38-.19v-8.35c0-.42.19-.81.2-1.21.12-.04.19-.11.19-.23v-8.58c.16-.1.14-.17.45-.2 2.73-.23 5.79.2 8.55.01v-.75z" fill="#0e1118"/><path d="M112.69 28.31l9.19.19v9h-9.38v-8.36c0-.36-.19-.7-.2-.83v-.19c.29-.42.43-.32.38.19z" fill="#04242e"/><path d="M112.12,93.92l.19,8.53c0,.2-.18.48-.38.47-.02,0-.2-.19-.45-.19-2.41-.05-4.86.19-7.23-.18.7-.97.56-.29,1.4-.18.65.09,5.86.07,6.02-.18l.09-8.45c.03-.06.34.2.37.19Z" fill="#0d0e15"/><path d="M121.69 74.99v.37l-.18.37-8.26-.08v7.93l-.37.22c-.1-.03-.26.02-.38 0v-8.16c.02-.2 0-.43.18-.57.37-.26 7.84-.08 9.01-.08z" class="BQ"/><path d="M112.88 93.36l-.28-.38h6.76c.5-.01.95-.2 1.49-.2.61 0 .74-.15.66.57-2.2 0-6.75-.37-8.62 0z" fill="#0c0e12"/><path d="M122.06 28.31c-.12.02-.17.19-.19.19-2.67.36-5.99-.35-8.73.11-.24.02-.32-.2-.45-.29a1.28 1.28 0 0 1 .62-.41l8.75.03v.37z" class="BL"/><path d="M122.06 27.93c-.26.22-.48.35-.83.38-2.7.25-5.8-.21-8.54 0-.11-.08-.26-.12-.38-.19v-.19c-.18-2.99-.26-6.02 0-9 .05-.07.35-.17.38-.37h.19 8.35c.62.08.76.23.84.84.31 2.32 0 6.05 0 8.54z" fill="#03666c"/><path d="M37.5,18.56l.19.19v9.37l-9.56.19c-.49-.56-.08-8.27-.11-9.57l9.48-.18Z" fill="#024c53"/><path d="M37.5,18.18c.02.06-.01.13,0,.19-.32.1-.53-.37-.56-.37-.21-.48.03-.57.38-.19.01.19.16.29.19.37Z" class="BR"/><path d="M93.56 37.49l-.19 1.69c-.17.63-.71.95-1.6.95l-3.74-.04-.29-.35c.15.04.36.1.38.21.05.47.08 3.93 0 4.21l-.38.27c.04-.15.1-.36.22-.37.61-.08 3.77-.11 4.29 0l.27.37c.68-.71.61.89.09.94-.02.15-.06.37-.17.37-1.13.1-4.73.18-5.75 0l-.27-.37c.43.19.35.92.19 1.31-.23.44-1.45.27-1.88 0 .15-.68-.19-1.37-.19-1.78v-5.81c0-.1.97-.7 1.06-1.05.53-.09.92.58 1.28.58.12 0 0-.35.36-.4.84-.11 5.54.22 5.73.02v-.56c-1.97.03-3.94-.04-5.91 0-.77.01-1.58.46-2.34-.18h8.81z" class="BK"/><path d="M86.62 46.68c.11-.36.27-.36.38 0 2.21-.16 4.4-.16 6.56 0 .02.21.33.31.38.37.37.6 0 .98 0 1.59v4.89c0 .92.33 1.35-.18 2.33-.05.16-.11.16-.19 0-.39-.13-.46-.26-.19-.37-.24-2.57-.31-5.26-.21-8.05l-8.18.17c.24 2.17.17 4.66-.04 6.89l-.38.81c.17.03.16.1 0 .19-.23.28-.49.18-.38-.19.25-2.31-.28-5.04 0-7.31.08-.61.5-1.01.56-1.31.53-.26 1.22-.02 1.88 0z" fill="#092328"/><path d="M112.31 27.93c-.31-.19-.19-.71-.19-1.03v-7.52c.03-.32.09-.28.2-.45v9z" class="BL"/><g class="BK"><path d="M93.56 46.12l-.08.3-6.48.26h-.38c-.43-.16-.26-1.31-.19-1.31h6.19c.05 0 .3-.94-.09-.94h-4.78v-4.69c1.8-.22 4.12.55 5.62-.56-.09 1.65.18 3.58.01 5.17-.04.39-.4.74-.37.9s.43.35.54.87z"/><path d="M93.56,46.12c.04.16-.02.39,0,.56-2.18-.03-4.38.04-6.56,0,2.13-.57,4.49.28,6.56-.56Z"/></g><path d="M121.88 74.99h9.19c-.2 2.9.26 6.14 0 9-.18.36-.26.36-.64.39-2.73.22-5.78-.19-8.55-.01V75z" class="BM"/><path d="M121.69 75.36v8.62c-2.84.02-6.03.62-8.81-.19v-8.62l8.81.19z" fill="#0e1d24"/><path d="M121.88,102.92c-1.33-.73-7.35.16-9.19-.19-.39-2.9-.13-5.87-.16-8.78.14-.03.37-.22.44-.22h8.62c.16,0,.33.45.29.65v8.54Z" fill="#034352"/><path d="M27.94 73.68c-.57.23-2.46.52-2.53-.19-.02.09-.04.18-.09.25-.12.17-3.65 0-4.1-.02-.05 0-.09-.1-.12-.23-.28.27-1.4.59-1.59.19-.14-.75-.27-.88-.38-.37.07.34.01.46-.19.37v-7.23c.02-.19.09-.65.29-.65h8.44c.21 0 .27.46.29.65.19 1.62.15 5.57 0 7.23zM18 75.36l.21.16-.16 7.45-.24.45c.01.15-.02.32-.13.32-2.25.16-4.9.13-7.15-.02-.11 0-.17-.16-.22-.3-.16.04-.28 0-.28-.13v-6.87l.28-.22-.28.01c-.1 2.48 0 5.1.1 7.55l-.37.22c-.05.16-.12.16-.19 0v-8.81h7.61c.35 0 .7.19.83.2z" class="BN"/><path d="M18.56 75.18c-.53 1.21 0 2.64 0 3.83l-.2 4.98c.01.28-.29.26-.38 0-.51.02-.57-.22-.19-.56v-6.85c.02-.42.16-.8.2-1.21.03 0 .54-.17.56-.19z" fill="#013c4b"/><path d="M27.94,73.68c0,.1-.15.26-.19.37-2.55.26-5.79-.35-8.25,0-.1-.14-.14-.27,0-.37.64.28.79-.39.85-.38.27.02.24.2.75.2h4.31c.07,0,.31.18.55.19.68.04,1.35-.15,1.98,0Z" fill="#074152"/><path d="M18,83.99c.1-.03.26.02.38,0v.37c-2.91-.15-5.9.11-8.81,0v-.37h.19l.32-.36c2.49.22,5.06.42,7.56.12l.36.24Z" fill="#09353f"/><path d="M19.31,74.24h-.19s-.19-.25-.19-.56l.19-.37c.39-.19.36.67.19.94Z" fill="#074152"/><path d="M27 95.8c.22 1.97.25 3.97.16 5.97-.32.52-4.85.08-5.7.2-.67.1-1.71 1.02-1.96-.18h-.18c.17.66-.56.3-.56.09v-5.91h.75c.07-.63-.57-.85-.56-1.5l7.79-.19c.81.01 1 1.28.27 1.5z" class="BK"/><path d="M18.38 93.55c.09.39.68.53 1.03.56 2.6.27 5.58-.22 8.23.03.37.11.12 1.21.12 1.66h-.75c-.04-.39.35-1.16-.47-1.31-2.52-.08-5.08.12-7.6 0-.31-.01-.63.01-.94 0v-1.13l.38.19z" fill="#10191d"/><path d="M25.12,102.92c-1.87-.02-3.85.02-5.62,0,1.42-.33,3.11-.21,4.6-.19.32,0,.83-.12,1.03.19Z" class="BK"/><path d="M18.94 103.58c.05-.15.3-.27.47-.28 2.09-.23 4.1-.13 6.19-.04.46.02 1.02-.35 1.57.06l.18 8.55c.07.15-.18.42-.25.42h-7.88l-.28-.28v-8.44zm18.37-85.77l-.38.19c-.05-.02-.12.01-.19 0-.91.11-1.87.11-2.88.02-1.42.07-2.77.07-4.06-.02h-.38c-.24.27-.88.26-1.12 0l-.19-7.77c-.01-.2.38-.67.47-.67h8.44c.21 0 .27.46.29.65.27 2.33-.19 5.2 0 7.6z" class="BL"/><path d="M29.44,18c.17.58-.7.25-1.31.37v-.19c.09-.01.17-.18.19-.19.3-.06.78,0,1.12,0Z" class="BR"/><path d="M139.69 56.99H132v7.69h6.29c.39 0 .81.23 1.11.2.45-.05.81-.87.85.37-2.5-.28-5.48.3-7.98.01-.19-.02-.65-.09-.65-.29v-8.34h8.34l.28.28v6.94c0 .28-.56.28-.56 0v-6.84z" class="BY"/><path d="M18.56 46.31l-8.81.38v-7.04c0-.34.2-.7.18-.94-.02-.31-.75-.83.29-.99 1.46-.23 5.8-.19 7.33-.04.28.03 1.02.14 1.02.48v8.15z" class="BL"/><path d="M36.75,18c-.29.69-1.04.19-1.59.18-1.58-.04-3.3-.04-4.87.02-.32.01-.55.46-.48-.2,1.9-.02,5.22-.27,6.94,0Z" class="BR"/><path d="M37.31 84.36c-.64.42-1.29.02-1.96 0-1.52-.06-5.26-.24-6.57.01-.78.15-.64.52-.66.93.11.68.05 1.24-.19 1.69-.29-.13-.15-.49 0-.75-.53-.18-.52-.57 0-.75-.28-.24-.58-.34-.94-.19l-.58.33c-2.11-.07-4.23-.05-6.35.04l-.58-.37c-.21 2.43-.26 4.93-.16 7.51-.09.15-.22.2-.4.18l-.19-8.25v-.19c1.71.06 8.08.59 9.26-.02.26-.13.45-.52.49-.54.05-.02.28 0 .38 0 2.3.24 5.23-.05 7.69 0 .04 0 .42.5.56-.28.43-2.4-.31-6 0-8.53.31.19.19.71.19 1.03v8.16z" fill="#033c4a"/><path d="M18.94 92.99c.36-.05.43.08.19.37l8.66.1a36.71 36.71 0 0 1 .15-6.47c.35-.38.16-1.15.19-1.69v8.35l-9.19.08c-.41-.19-.07-7.88-.19-9l.19 8.25z" fill="#09353f"/><path d="M84.56,56.05c.16.05.16.12,0,.19.25.26.14.36-.19.19v9c.26-.25.37-.14.19.19,3,.18,6.01.18,9.02.01l.17.17v.19h-9.19c-1.02-1.06-.74-.44-1.58-.36-.9.08-7.18.09-7.6-.11-.09-.04-.38-.34-.38-.37v-8.62c0-.21.46-.27.65-.29,2.58-.3,5.8.05,8.35,0,.09,0,.27-.19.38-.19.04-.13.1-.12.19,0Z" class="BL"/><path d="M74.81 55.86l-.82.21c-.17-.03-.17-.39-.3-.48-.21-.14-3.91-.18-4.42-.11-.36.04-.17.35-.54.4-.96.15-.89-.39-.95-.4-.46-.05-.83.67-1.12.2l-.09-8.44h8.17l.08 8.62zm-8.81.19c-.02.14-.35.43-.38.56h-.38c.07-.11.11-.27.19-.37-.27-.25-.15-.37.19-.19.49-1.29.17-5.69.18-7.41 0-.32-.12-.83.19-1.03.13 2.13.26 6.42 0 8.44z" class="BK"/><path d="M65.62,56.05s-.14.12-.19.19c-2.66-.26-5.97.35-8.54,0-1.4-.19-.62-1.23-.64-1.99-.05-2.08-.4-4.27-.21-6.38.03-.32-.02-.62.27-.85h9.04c.23.18.24.4.27.67.32,2.54-.26,5.74,0,8.35Z" fill="#073c46"/><path d="M46.31,18.93c.13.93,0,1.84,0,2.71,0,.92.18,5.04-.16,5.46-.26.33-.76.28-1.14.26-.2-.58.56-.34.56-.37v-6.84c0-.29-.64-.73,0-1.22h.75Z" fill="#032c31"/><path d="M84.38 55.87h-9.19v-1.12c.79.02 1.76.11 2.54.01.36-.05.18-.36.54-.4.79-.1 2.74-.22 3.11.58H76.5c.46.77 1.58.18 2.33.18 1.25 0 2.42.29 3.67.19.19-.73-.7-.09-.75-.56.45.2.61-.37.69-.38l1.26.02c.3.1.27.6.49.92.04.06.29.11.38.19.36.11.36.27 0 .37-.04.13-.1.12-.19 0z" class="BM"/><path d="M93.56 55.87c.06 0 .14-.02.19 0 .03 0 .22.25.38.37l.19.28.09 8.68c0 .13-.12.2-.27.22-.02.08-.13.13-.19.19l-.26-.1c.28-3 .3-6.03.08-9.08-.24.29-.36.17-.19-.19l-9-.19h-.19v-.19h.19c.05-.1.11-.19.19-.25.35-.24 7.41-.04 8.46.04.15.01.26.09.34.21z" class="BL"/><path d="M75 93.74h-8.91c-.23 0-.44-.77-.47-1.03-.13-1.07-.12-6.95.18-7.7.07-.17.36-.64.48-.64h8.44l.28.28v9.09z" fill="#052a31"/><path d="M28.12 74.99c.22 2.01.22 6.72.01 8.74-.03.26-.02.27-.2.45-.16-2.78-.15-5.65 0-8.44-.24-.09-.5-.32-.56-.56-2.61-.13-5.26-.07-7.88 0-.08.24-.27.43-.56.56.17 2.6.22 5.29 0 7.87.34.07.56.19.56.56h8.44c-.46.46-7.82.1-9.01.11l-.18-9.29h7.6 1.77z" fill="#03757d"/><path d="M19.12,73.3c-.26-2.26.19-4.99,0-7.31h.75c-.52,2.41.21,5.37-.37,7.69-.03.1.02.26,0,.37-.04,0-.12.15-.19.19.17-.36-.17-.77-.19-.94Z" fill="#034454"/><path d="M36.75 102.17c-.25-.41 0-.9 0-1.4l-.1-7.42c.42 0 .44.33.48.65.3 2.5-.24 5.6-.01 8.17h-.37z" fill="#052e36"/><path d="M37.12 103.3v9c-.06.01-.13 0-.19 0a68.75 68.75 0 0 1-8.62-.19c-.02-.04-.01-.29 0-.37l.1-8.34 8.34-.09c.11-.02.26 0 .38 0z" fill="#029c9b"/><path d="M36.75 103.3c-.09.01-.27.19-.63.2-2.53.08-5.09-.09-7.62-.01l.01 7.62c-.01.37-.18.51-.2.63v-8.44h8.44zm.19 8.99c-2.08.16-6.14.23-8.17 0-.22-.02-.34.07-.46-.2l8.62.19z" fill="#058a89"/><path d="M130.88 103.86v8.25h-8.06c.14-1.34.34-.39.64-.36 2.19.25 4.81-.25 7.05-.02-.29-2.01-.21-4.07-.18-6.1 0-.6-.31-.94.18-1.59-.14-.36.14-.47.38-.19z" fill="#034453"/><path d="M130.5 104.05h-7.69v-.56h8.06c.01.12 0 .25 0 .37-.09.07-.32.12-.38.19z" class="BY"/><path d="M112.78 103.11h8.81l.28.28v8.81l-.28.28h-8.81l-.28-.28v-8.81c0-.05.22-.19.28-.28z" fill="#2bcdda"/><path d="M120.75,112.86l.28.38c-2.49-.09-5.01.12-7.5,0-.46-.02-.61.14-.28-.37,2.3.2,5.13,0,7.5,0Z" fill="#092d39"/><path d="M102.94,65.43c-.03.06-.07.13-.13.17-.35.24-7.38-.08-8.37-.21l-.12-8.83.19-.13c1.08-.21,7.94-.4,8.35,0,.1.1.21.34.22.5-.21,1.98-.16,3.99-.14,5.98,0,.98.3,1.36,0,2.52Z" class="BL"/><path d="M94.5,56.43l.18,8.92,8.26.08c-.19.77-.48.37-1.03.37h-5.62c-.05,0-.29-.18-.55-.2-.51-.04-.91.37-1.6-.18v-9.19s.16-.03.19,0c.01.01.01.19.19.19Z" fill="#04232e"/><path d="M93.94 65.61c-.06.06-.14.11-.19.19-1.84-.35-7.85.54-9.19-.19l.03-.25 8.79-.2.11-8.64.27-.1c.57.7-.04 7.8.19 9.19z" fill="#014b52"/><path d="M103.5 56.43c.63-.08.31.23.28.56-.2 2.84-.05 5.69-.1 8.53l-.38-.28v-8.62c.07-.05.12-.15.19-.19z" class="BM"/><path d="M120.94 113.42c.28.28.17.38-.19.19-1.48.21-4.49.07-6.1 0-.23 0-.7.14-.65-.19h6.94z" fill="#074653"/><path d="M112.88 113.98c.02-.2-.1-.51.11-.57s.58.04.83 0c.09.04-.48.52-.56.56-.07.04-.26-.02-.38 0zm8.43-.56v.56h-.38c0-.06-.2-.23-.19-.37.09-.01.17-.1.19-.19h.38z" class="BS"/><path d="M103.88 104.8l.4.05a33.41 33.41 0 0 1 .13 6.25c2.1.17 4.18.17 6.26 0l.34.26c.06-.25.33-.31.38 0 .01.17.67.63.19.75h-8.06c-.48-.17-.03-.47 0-.56l.19-6.75c.05-.16.12-.16.19 0z" class="BY"/><path d="M111.56 103.48c.36.11 0 .85 0 1.21l-.18 6.66c-.12.02-.28-.03-.38 0-.56-.08-.36-.46.03-.73l-.06-6.11c-.06-.26-4.95-.22-5.44-.19-.77.06-1.01.11-1.65.47h-.19c-.13-.26-.31-1.33-.06-1.4l7.94.09z" fill="#034553"/><path d="M111.56 103.48h-8.06c.02.46.2.84.19 1.31l-.19 6.75v-8.25l8.06.19z" fill="#034050"/><path d="M120 29.06l-.12.29c-1.74.11-3.49.13-5.24.07-.3-.02-.51.05-.64.21 0-.17.15-.24.48-.2l5.4-.07c.14 0 .2.1.22.26-.28-.47 1.09-.42 1.1-.35l-.02 7.39-.23.45c-2.33.1-5.32.45-7.61.2-.25-.03-.28.02-.45-.2l.13-.37a34.84 34.84 0 0 0 6.85.08c.07.15-.6.14-.7-.08-.03.1-.06.19-.09.19h-4.29c-.04 0-.09-.08-.13-.19-.25.35-1.28.11-1.51-.34l.03-7.12c0-.14.1-.2.27-.22h6.56z" class="BL"/><path d="M113.44 29.06l.02 7.19c.06.23 1.02.49 1.19.49h4.5c.14 0 .53-.33.84-.19v.56h-7.12c-.25-.31.19-7.04 0-8.06h.56zm6.56 0c.53 0 .82.21 1.5-.19v7.5c.16.39.09.93-.38.75h-.19v-7.68c-.3-.15-.71.19-.84.19H114c-.02-.44-.06-.33.28-.38 1.79-.23 3.95.33 5.72-.19z" fill="#042d35"/><path d="M121.12,37.12c.34-.1.41-.42.38-.75,0,.17.52.59-.11.94-.12.03-.25-.19-.27-.19Z" class="BL"/><path d="M112.69 18.93h9v9h-9z" fill="#029998"/><path d="M28.62,18.79l8.71.22.13.52c-.51,2.51.13,5.46-.05,7.94-.02.22-.12.41-.28.56l-8.84-.18-.13-8.61.45-.45Z" fill="#029c9b"/><path d="M84.56 55.3l.2-6.66c0-.5-.41-1.06.07-1.41l8.74-.17-.01 6.85c0 .61.43 1.05-.18 1.59l-.06.17-8.63-.1-.12-.25z" class="BL"/><path d="M93.38 55.49l.19.37c-2.33-.35-6.44 0-9 0v-.37-.19l8.81.19z" fill="#04232e"/><path d="M113.62 95.7c0-.24-.48-.66.27-.96 1.67.15 3.4.17 5.08.12.73-.02 2.19-.71 2.17.47 0 .36-.39.25-.4.38 0 .2.2.56.2.92l-.01 5.16h-7.31V95.7z" class="BN"/><path d="M9.75 83.99v-8.62h.94c-.02.26-.4.36-.47.56-.05.15.09.24.09.28v7.22h7.5c0 .12.2.38.19.56-2.01.62-6.09.08-8.25 0z" fill="#034451"/><path d="M27 85.3c.32-.17.7-.06.94.19v.75c-.25 2.21-.31 4.46-.19 6.75-.15.14-.34.26-.56.37-.05.09-.12.09-.19 0l-.34-.13c-2.32.09-4.79 0-7.39-.26l.23-7.67H27z" class="BN"/><path d="M19.5,85.3l.08,7.51c.15.21.36.16.57.18,1.86.19,4.24-.08,6.2,0,.36.01.75-.19.65.37-2.59.24-5.26.14-7.88,0-.16-.13-.22-.1-.19-.37.57-1.18-.21-7.27.38-7.79.15-.14.17.1.19.1Z" class="BS"/><path d="M27.94 86.99v6.56c-1.36-.23-8.11.38-8.81-.19 2.5-.21 5.43.28 7.88 0 .06 0 .18.02.19 0 .19-.15.38-.28.56-.37-.29-1.63-.24-3.49-.19-5.17.01-.43-.08-1.38.38-1.58v.75zm0-1.5c-.31-.07-.61-.16-.94-.19.22-.38.83-.22.94.19z" fill="#083f4d"/><path d="M93.56,56.24c.04.09.14.13.19.19-.24,1.31.35,8.39-.08,9.01-.29.42-7.99.04-9.11.18-.07-.04-.13-.13-.19-.19v-9l.19-.19c2.88-.19,6.05-.17,9,0Z" fill="#068586"/><path d="M93.56 56.24h-9v-.19h7.97c.32 0 .83-.12 1.03.19z" fill="#014b52"/><path d="M64.31 47.24l.49.5c.35 2.5.34 5.16.21 7.69l.24.44c-.37.36-.93 0-1.5 0a2.2 2.2 0 0 0-.67-.29c-2.3.08-4.51.05-6.64-.08.22-1.2-.33-7.49.08-8.07.24-.34 6.74-.14 7.79-.18z" class="BN"/><path d="M65.25 55.87c-1.25-.03-.4-.49-.4-1.02l-.15-6.39c-.09-.65-.68-.71-.39-1.21.29-.01.78-.56.94.28-.22 1.03.3 8.05 0 8.34z" fill="#014552"/><path d="M56.44,55.49c.06-.33.21-1.17.56-1.31.04.23-.06,1.07,0,1.13.22.21,5.25-.11,6.1-.01.42.05.65.06.65.57-2.43-.04-4.88.03-7.31,0,0-.12-.02-.26,0-.37Z" fill="#044453"/><path d="M19.88 75.55a57.19 57.19 0 0 1 .11 7.75l.37-.18L26.9 83l-.07-5.84c-.15-.5-.09-.97.18-1.41-.13-.58.93-.39.75.19l.09 8.12-8.34.13c-.4-.06-.56-.11-.56-.56l.19-7.69c-.2-.53.44-.72.75-.37z" fill="#029798"/><path d="M19.5 75.18h7.88c.45.06.53.19.56.56-.02.18-.08.24-.19.19-.39-.5-.63-.19-.75-.19-2.22.58-4.93.46-7.12-.19-.3 0-.52.22-.75.37-.08.1-.14.04-.19-.19.01-.19-.01-.38 0-.56.19-.01.38.01.56 0z" fill="#07969a"/><path d="M27.94 84.17c-2.6-.27-5.93.36-8.44 0l8.25-.19c.18-2.59-.25-5.51 0-8.06 0-.09.1-.17.19-.19.26 2.67-.19 5.72 0 8.44zm-8.82-8.24c.19 1.97.03 4.62 0 6.66 0 .32.12.83-.19 1.03.14-2.57-.19-5.33 0-7.87.09.02.18.1.19.19zm8.26-.75H19.5c1.86-.14 6.13-.24 7.88 0z" fill="#068d91"/><path d="M29.16 103.86h7.31l.28.28v7.31l-.28.28h-7.31l-.28-.28v-7.31c0-.05.22-.19.28-.28z" class="BP"/><path d="M112.98 103.32l8.62.16-.1 8.72-8.72-.09-.08-8.37.28-.42z" fill="#2fecf9"/><path d="M103.88,104.8c0-.29.34-.69.66-.75,1.02-.2,4.64-.09,5.82,0,.35.03.69.06,1,.22-.14,2.02.27,4.49.04,6.45-.04.38-.49.22-.39.64-.21.06-.26.18-.63.2-.82.05-6.3.06-6.49-.2.33-1.81.21-3.85.2-5.73,0-.34-.2-.73-.2-.83Z" fill="#034050"/><path d="M114,19.68c-.02.45-.08.64-.19.56,0-.09,0-.17.03-.24.13-.27,5.75-.24,5.93-.01.06.07.09.16.13.25.13-.26.47-.26,1.03,0,.15,1.81-.05,3.87,0,5.73,0,.26.34,1.21-.08,1.21h-6.94s-.47.32-.47-.09v-6.75c0-.12-.29-.17-.01-.57s.46-.08.58-.08Z" class="BP"/><path d="M120.94 20.25c-.27.75-.66 0-1.03 0h-6.09v.37h-.19c-.05-.46-.07-.74.37-.94h5.92c.76-.01.93-.5 1.02.55z" fill="#028e91"/><path d="M29.16 19.5h7.31l.28.28v7.12s-.29.33-.38.37c-.42.2-5.3.17-6.09.09-.3-.03-1.18-.17-1.33-.36a54.74 54.74 0 0 0 .12-5.73c-.02-.62-.49-1.32.09-1.77z" class="BP"/><path d="M27.75,92.99c.09.5-.12.38-.56.37.11-.17-.26-.5.56-.37Z" class="BS"/><path d="M84.86 56.44l8.61.17-.09 8.73-8.73-.1-.05-8.39.26-.41z" fill="#049b9d"/><path d="M27 75.74c.89.5.01.6.02.64.02.19.18.42.18.75l.09 6.11c-.29.41-5.6.08-6.58.17-.51.04-.82.65-1.11 0s.12-1.16.11-1.78v-4.5c.04-.6-.41-1.09.17-1.59l7.12.19z" class="BP"/><path d="M121.12,111.45c-.14.47-1.14.09-1.58.08-1.6-.04-3.29-.04-4.89,0-.48.01-1.37.49-1.39-.25l.17-7.34,7.4-.06.21.16c0,.2.09.48.09.66v6.75Z" fill="#28dbe7"/><path d="M85.41 56.99h7.31l.28.28v7.31l-.28.28h-7.31c-.52 0-.16-1.39-.16-1.63-.05-1.71-.32-3.94-.13-5.6.03-.27.02-.48.29-.65z" class="BP"/><path d="M120.38,104.42v6.09s-.33.84-.38.84h-5.62s.03-.21-.07-.31-.31-.05-.31-.07v-6.37h5.91c.06,0,.27-.26.47-.19Z" fill="#29deeb"/></svg>