<?xml version="1.0" encoding="UTF-8"?>
<svg id="uuid-1475ce9f-3d22-407e-a1f0-ab49889e5508" data-name="Layer 2" xmlns="http://www.w3.org/2000/svg" viewBox="0 0 1812.25 1814.24">
  <defs>
    <style>
      .uuid-eaa752ca-8011-4906-8fc4-d9ce3bfebc8c {
        fill: #010101;
      }

      .uuid-f2785435-0f13-47d2-a56d-af866cd7e629 {
        fill: #eba518;
      }

      .uuid-d8fc96d6-0291-469c-9f68-7c83393406e7 {
        fill: #c5c5c5;
      }

      .uuid-a9e37b36-04b3-4651-b2f8-7b1899187fae {
        fill: #f3cd02;
      }

      .uuid-1cdfb447-51ac-48af-94c3-dd0a8c3e8b73 {
        fill: #8a8a8a;
      }

      .uuid-78067ecf-5c00-4be5-b8d1-c8ea97ef493d {
        fill: #383838;
      }

      .uuid-609e7f1c-7f73-4b1e-a00f-9b457d942424 {
        fill: #555;
      }

      .uuid-282bef91-90a7-4c8e-84ae-cc6d2a932759 {
        fill: #f3dd85;
      }

      .uuid-474c7738-146b-4a09-9d35-cd351a188368 {
        fill: #fdfdfd;
      }
    </style>
  </defs>
  <g id="uuid-0a18e576-4f38-4183-803f-b8ddef1830c9" data-name="Layer 1">
    <g>
      <path class="uuid-609e7f1c-7f73-4b1e-a00f-9b457d942424" d="M1739.28,210.94c1.14.01,3.55.97,6,1,19.69.23,40.47-1.02,59.97,0,.56,3.03-1.53,1.92-3.45,2-20.44.81-41.07-.61-61.51,0l-.02,1457.66c22.93,1.05,46.02.58,68.98.58,0-486.4,0-972.84,0-1459.24.51.16,1.37-.11,2,0v1459.24h-2v2c-23.32-.57-46.93.95-69.96,1-20.34.04-43.11-3.41-63.51-1.05-1.4.16-2.75.02-3.38,1.67l.92,63.35c19.13.47,38.39-.65,57.52,0,1.93.06,4.01-1.02,3.45,2-18.94.26-38.05-.64-56.97,0-2.26.08-5.48-1.07-5,2-487.16-1.67-975.08-1.67-1462.24,0,.28-2.74-1.15-1.84-3-2-.52-2.28,1.84-1.42,2.08-3.44,1.92-16.27-.72-37.93-.12-55.07.09-2.54,1.22-4.89,1.04-7.45h-68.96c-.44,0,1.47,7.58-2,6-.01-.67.03-1.33,0-2-.08-1.77.09-3.44-1-5,.16-.5.75-.7,1-1h2c23.3,0,46.67-.24,69.96,0,484.83,5.02,970.65-1.73,1455.79,1.05l3.5-.54c.53-.28.78-.95.95-1.51.23-.77-.18-2.1,0-3,.12-.6,1.62-2.01,1.07-3.38,2.66-484.91-3.8-969.98-.07-1454.86,22.25.24,44.67-.23,66.97,0Z"/>
      <path class="uuid-eaa752ca-8011-4906-8fc4-d9ce3bfebc8c" d="M1599.36,3.05c-.79,1.57.93,3.4,1,4,1.44,12.84,1.68,51.44,0,63.97-.07.54-.83,1.34-1,2H142.12c-.15-1.21-2.1-1.15-3-1v-4c0-17.85-2.24-44.89-.05-61.51.39-2.94,1.27-4.39,4.5-4.5l1452.4-.02c1.62-.52,2.49.7,3.39,1.07Z"/>
      <path class="uuid-eaa752ca-8011-4906-8fc4-d9ce3bfebc8c" d="M1672.32,1743.14v3c-3.03-.56-1.92,1.53-2,3.45-.69,17.55-.59,37.48,0,55.06.06,1.93-1.02,4.01,2,3.45.02,1-.02,2,0,3l-2,1c-.2-.17-2.22.05-3,0H215.08c-.78.05-2.8-.17-3,0l-2-1c.02-1-.02-2,0-3,3.03.56,1.92-1.53,2-3.45.69-17.55.59-37.48,0-55.06-.06-1.93,1.02-4.01-2-3.45v-3c487.16-1.67,975.08-1.67,1462.24,0Z"/>
      <path class="uuid-eaa752ca-8011-4906-8fc4-d9ce3bfebc8c" d="M70.15,140.98l1,1v1459.24c-1.05.11-.79.29-1,1H2.19c.24-2.12.12-2.24-2-2-.08-.65.05-1.34,0-2l2-3.45c-3.82-481.36,5.09-962.98.02-1444.31-.02-1.69.64-4.45-1.02-5.48.24-1.15-.19-2.75,0-4h68.97Z"/>
      <path class="uuid-eaa752ca-8011-4906-8fc4-d9ce3bfebc8c" d="M77.15,1602.21c.68.02,1.38,0,2,0,19.64.16,39.33-.12,58.97,0l2,10.99c-.21,2.63.15,5.36,0,8-.8,14.07-.66,27.03,0,40.98.05.99-.07,2.01,0,3,.03.35-.69.59,0,4,.13.62-.16,1.48,0,2-.81.39-.74,1.68-1,2s-.83.5-1,1l-64.82-.14c-.86-1.66-1.05-3.47-1.19-5.31-1.29-17.7-1.21-45.79.05-63.51.08-1.06.49-2.08,1-3,1.21.16,2.7-.03,4,0Z"/>
      <path class="uuid-eaa752ca-8011-4906-8fc4-d9ce3bfebc8c" d="M1676.32,140.98c20.97.03,42-.02,62.97,0,0,22.31,0,44.66,0,66.97v3c-22.3-.23-44.72.24-66.97,0,0-.67,0-1.33,0-2,0-.58,0-1.44,0-2,.01-1.67-.02-3.33,0-5,.16-17.02.66-33.83,0-50.97-.14-3.55.3-6.57,1-9.99.33,0,.67,0,1,0,.67,0,1.33,0,2,0Z"/>
      <path class="uuid-eaa752ca-8011-4906-8fc4-d9ce3bfebc8c" d="M1670.32,73.01l2,2c-.16,1.23.03,2.7,0,4-3.02-.56-1.93,1.53-2,3.45-.64,19.14-.21,39.31,0,58.51-1.33,0-2.67,0-4,0,.55-3.13-2.61-2.97-2,0-21.28-.03-42.88-.99-63.97-1v-64.97h2c20.06,0,40.48.67,60.51,0,1.93-.06,4.01,1.02,3.45-2,1.3-.03,2.77.16,4,0Z"/>
      <path class="uuid-eaa752ca-8011-4906-8fc4-d9ce3bfebc8c" d="M139.12,1681.17c3.47,1.58,1.56-6,2-6h68.96c.18,2.56-.95,4.91-1.04,7.45-.6,17.14,2.04,38.8.12,55.07-.24,2.02-2.59,1.15-2.08,3.44-.66-.06-1.34.02-2,0-19.23-.59-38.72,0-57.97,0,.55-3.13-2.61-2.97-2,0h-4c.24-2.12.12-2.24-2-2v-4c3.13.55,2.97-2.61,0-2,0-17.29.34-34.69,0-51.97Z"/>
      <path class="uuid-eaa752ca-8011-4906-8fc4-d9ce3bfebc8c" d="M139.12,75.01l.08,63.54c.3,1.99-1.92,1.27-2.08,1.43-4.15.21-8.41-.29-12.56-.04-2.14.13-2.3,1.03-2.43,1.04-15.49.72-34.11-1.71-48.97,0,.07-1.04-.91-2.25-1-3-1.58-13.14-1.4-36.78-1.05-50.52.11-4.22,1.58-8.01,1.05-12.45.6-.18,1.55-1,2-1,2.14.02,4.18.96,6.46,1.04,13.78.48,46.52,2.12,58.51-.04Z"/>
      <path class="uuid-eaa752ca-8011-4906-8fc4-d9ce3bfebc8c" d="M1739.28,1675.18v3c0,16.57,2.17,42.68,0,57.97-.1.71-2.39,3.29-2,5-1,.04-2-.01-3,0,.56-3.02-1.53-1.93-3.45-2-19.13-.64-38.39.47-57.52,0l-.92-63.35c.62-1.65,1.97-1.51,3.38-1.67,20.41-2.36,43.17,1.09,63.51,1.05Z"/>
      <path class="uuid-d8fc96d6-0291-469c-9f68-7c83393406e7" d="M139.12,68.01c-3.02.56-1.93-1.53-2-3.45-.57-16.93-1.73-42.79,0-59.03.46-4.32,1.16-5.02,5.48-5.48l1454.31-.05,5.45,1.06c.65,1.32-.97,2.68-1,2.99-.69-.28-1.32-.72-2-1-.9-.37-1.77-1.59-3.39-1.07l-1452.4.02c-3.23.11-4.11,1.56-4.5,4.5-2.2,16.62.05,43.66.05,61.51Z"/>
      <path class="uuid-78067ecf-5c00-4be5-b8d1-c8ea97ef493d" d="M1.19,144.97c1.65,1.04,1,3.79,1.02,5.48,5.07,481.33-3.84,962.95-.02,1444.31l-2,3.45L.12,148.35c-.53-1.38.94-2.75,1.07-3.38Z"/>
      <polygon class="uuid-d8fc96d6-0291-469c-9f68-7c83393406e7" points="1667.32 1812.1 1663.87 1814.1 218.53 1814.1 215.08 1812.1 1667.32 1812.1"/>
      <path class="uuid-d8fc96d6-0291-469c-9f68-7c83393406e7" d="M1745.28,211.94c-.56-3.03,1.53-1.92,3.45-2,17.14-.68,41.31-1.44,58.06-.05,1.93.16,3.62.54,5.45,1.06l-1,1.99c-.62-.11-1.49.16-2,0-1.66-.52-1.65-.88-4-1-19.5-1.02-40.28.23-59.97,0Z"/>
      <path class="uuid-d8fc96d6-0291-469c-9f68-7c83393406e7" d="M1676.32,140.98c-.56-3.03,1.53-1.92,3.45-2,19.31-.76,38.76.64,58.09-.08,1.99-.3,1.27,1.92,1.43,2.08s2.39-.56,2.08,1.43c-.67,20.67.61,41.43-.08,62.08-.06,1.93,1.02,4.01-2,3.45,0-22.31,0-44.66,0-66.97-20.97-.02-42,.03-62.97,0Z"/>
      <path class="uuid-609e7f1c-7f73-4b1e-a00f-9b457d942424" d="M142.12,73.01c-.84.37-2.36,1.88-3,2-11.99,2.16-44.73.52-58.51.04-2.27-.08-4.32-1.03-6.46-1.04v-1c14.19,1.64,51.21,1.25,64.97-1,.9-.15,2.85-.21,3,1Z"/>
      <path class="uuid-d8fc96d6-0291-469c-9f68-7c83393406e7" d="M145.11,1741.14h2c19.25,0,38.74-.59,57.97,0,.56,3.03-1.53,1.92-3.45,2-19.97.79-40.09-.64-60.07.07-2.24.38-1.21-1.8-1.44-2.07h5Z"/>
      <path class="uuid-d8fc96d6-0291-469c-9f68-7c83393406e7" d="M1602.35,72.01l-2-1c1.68-12.52,1.44-51.12,0-63.97h1c1.09,21.46,1,43.24,1,64.97Z"/>
      <path class="uuid-609e7f1c-7f73-4b1e-a00f-9b457d942424" d="M1666.32,73.01c.56,3.02-1.53,1.93-3.45,2-20.03.67-40.45,0-60.51,0v-2c21.29-.41,42.69.55,63.97,0Z"/>
      <path class="uuid-609e7f1c-7f73-4b1e-a00f-9b457d942424" d="M210.08,1746.14c3.02-.56,1.93,1.53,2,3.45.59,17.58.69,37.51,0,55.06-.08,1.93,1.03,4.01-2,3.45.31-20.62,0-41.34,0-61.97Z"/>
      <path class="uuid-609e7f1c-7f73-4b1e-a00f-9b457d942424" d="M1672.32,1746.14c0,20.63-.31,41.35,0,61.97-3.02.56-1.93-1.53-2-3.45-.59-17.58-.69-37.51,0-55.06.08-1.93-1.03-4.01,2-3.45Z"/>
      <path class="uuid-609e7f1c-7f73-4b1e-a00f-9b457d942424" d="M1672.32,79.01c-.52,19.92,0,40.04,0,59.97v2c-.67,0-1.33,0-2,0-.21-19.2-.64-39.37,0-58.51.06-1.93-1.02-4.01,2-3.45Z"/>
      <path class="uuid-d8fc96d6-0291-469c-9f68-7c83393406e7" d="M1734.29,1741.14c1-.01,2,.04,3,0,.33-.01.67.02,1,0,.56,3.03-1.53,1.92-3.45,2-17.23.68-36.8.58-54.06,0-1.93-.06-4.01,1.02-3.45-2,18.92-.64,38.03.26,56.97,0Z"/>
      <path class="uuid-d8fc96d6-0291-469c-9f68-7c83393406e7" d="M139.12,1679.17c.03.66-.01,1.33,0,2,.34,17.28,0,34.68,0,51.97v7c-.27-.23-2.45.79-2.07-1.44.59-18.66-.56-37.42.07-56.07.06-1.93-1.02-4.01,2-3.45Z"/>
      <path class="uuid-d8fc96d6-0291-469c-9f68-7c83393406e7" d="M1739.28,1678.17c3.03-.56,1.92,1.53,2,3.45.71,18.03.07,36.78-1,54.52h-1c2.17-15.29,0-41.4,0-57.97Z"/>
      <path class="uuid-1cdfb447-51ac-48af-94c3-dd0a8c3e8b73" d="M72.15,137.98c.09.75,1.07,1.96,1,3-.3.03-1.25,1.08-2,1l-1-1c-.04-2.36-.67-3.47,2-3Z"/>
      <path class="uuid-1cdfb447-51ac-48af-94c3-dd0a8c3e8b73" d="M1602.35,72.01v3h-2l-1-2c.17-.65.93-1.46,1-2l2,1Z"/>
      <path class="uuid-1cdfb447-51ac-48af-94c3-dd0a8c3e8b73" d="M73.15,1602.21c-.51.92-.92,1.93-1,3-2.18.63-2.59-.95-2-3,.21-.71-.05-.89,1-1,1.15-.12,1.78.97,2,1Z"/>
      <path class="uuid-609e7f1c-7f73-4b1e-a00f-9b457d942424" d="M1740.28,1736.14c-.05.91-.12,2.15,0,3l-1,2c-.32.05-.67-.02-1,0s-.67-.01-1,0c-.39-1.7,1.9-4.28,2-5h1Z"/>
      <path class="uuid-1cdfb447-51ac-48af-94c3-dd0a8c3e8b73" d="M74.15,73.01v1c-.45,0-1.4.82-2,1-.04-.35-1.66-1.49-.99-2.99,1.5-.67,2.65.96,2.99.99Z"/>
      <path class="uuid-d8fc96d6-0291-469c-9f68-7c83393406e7" d="M1670.32,73.01c.36-.05,1.48-1.66,2.99-.99.67,1.51-.95,2.63-.99,2.99l-2-2Z"/>
      <path class="uuid-d8fc96d6-0291-469c-9f68-7c83393406e7" d="M1811.25,1672.18c1.23.97,1.28,1.56,0,2.51-.89,1.22-1.78-.51-2-.51v-2h2Z"/>
      <path class="uuid-609e7f1c-7f73-4b1e-a00f-9b457d942424" d="M1601.36,4.05c-.09.94-.05,2.04,0,3h-1c-.07-.59-1.79-2.43-1-4,.68.28,1.31.72,2,1Z"/>
      <path class="uuid-d8fc96d6-0291-469c-9f68-7c83393406e7" d="M212.08,1812.1c-.13.11.6,2.79-1.48,1.99-2.76-1.06-.52-2.8-.52-2.99l2,1Z"/>
      <path class="uuid-d8fc96d6-0291-469c-9f68-7c83393406e7" d="M1672.32,1811.11c0,.19,2.24,1.93-.52,2.99-2.08.8-1.36-1.88-1.48-1.99l2-1Z"/>
      <path class="uuid-609e7f1c-7f73-4b1e-a00f-9b457d942424" d="M139.12,1739.14c2.12-.24,2.24-.12,2,2h-1c-.24-.28-.72-.76-1-1v-1Z"/>
      <path class="uuid-d8fc96d6-0291-469c-9f68-7c83393406e7" d="M1740.28,1739.14c.02.14,1.4.9.99,1.99-.65.08-1.36-.09-1.99,0l1-2Z"/>
      <path class="uuid-78067ecf-5c00-4be5-b8d1-c8ea97ef493d" d="M.19,1600.22c2.12-.24,2.24-.12,2,2H.19c-.09-.65.08-1.36,0-2Z"/>
      <path class="uuid-d8fc96d6-0291-469c-9f68-7c83393406e7" d="M1672.32,138.98c2.12-.24,2.24-.12,2,2-.33,0-.67,0-1,0s-.67,0-1,0v-2Z"/>
      <path class="uuid-d8fc96d6-0291-469c-9f68-7c83393406e7" d="M1664.32,140.98c.67,0,1.33,0,2,0,1.33,0,2.67,0,4,0,.04,3.44.99,7.84,1,9.99.1,16.97.09,34.01,0,50.97,0,1.42,0,3.6,0,5,0,.67,0,1.33,0,2-.62,484.55-1.6,969.9-1.02,1454.76l1.02,5.48c-.18.9.23,2.22,0,3l-1460.24,1c-23.29-.24-46.67,0-69.96,0,.06-.82-.86-1.54-1-2-.16-.52.13-1.38,0-2,1.37-1.23,1.4-2.73,0-4-.07-.99.05-2,0-3v-40.98c.15-2.64-.21-5.37,0-8,.23-2.92,3-7.9-1-10.99l-.05-1386.83c-.22-1.02.72-3.45,1.55-3.45h67.96c.11,0,1.5-1.39,1.5-1.5v-67.96c0-.83,2.42-1.77,3.45-1.55,462.21,1.36,924.93-1.19,1386.83-.95,21.09.01,42.69.96,63.97,1ZM1460.43,279.9l-1182.28.11-1.15,7.34c.68,391.31-.75,782.64.05,1173.93.04,20.89-2.39,50.55-.05,70.51.12,1.01.46,3.45,1.55,3.45h69.46c.29-21.17-.35-42.4-.07-63.59.02-1.85,1.07-3.2,1.07-3.38l1,66.97h1181.88c.11,0,1.5-1.39,1.5-1.5V351.87c-20.8-.66-41.79.85-62.59.07-1.84-.07-3.06-1.05-3.38-1.07,1.04-1.65,3.79-1,5.48-1.02,17.33-.18,40.64,1.99,57.04.07,1.01-.12,3.45-.46,3.45-1.55v-67.96c0-1.09-2.44-1.43-3.45-1.55-20.83-2.45-48.43,1.12-69.51,1.05Z"/>
      <path class="uuid-eaa752ca-8011-4906-8fc4-d9ce3bfebc8c" d="M1809.25,212.94c0,486.4,0,972.84,0,1459.24-22.97,0-46.05.48-68.98-.58l.02-1457.66c20.44-.61,41.07.8,61.51,0,1.93-.08,4.01,1.03,3.45-2,2.35.12,2.34.48,4,1Z"/>
      <path class="uuid-1cdfb447-51ac-48af-94c3-dd0a8c3e8b73" d="M1672.32,208.94c0,.67,0,1.33,0,2-3.73,484.88,2.73,969.95.07,1454.86.54,1.37-.95,2.78-1.07,3.38l-1.02-5.48c-.59-484.86.4-970.21,1.02-1454.76h1Z"/>
      <path class="uuid-1cdfb447-51ac-48af-94c3-dd0a8c3e8b73" d="M1671.32,1672.18c-.17.56-.42,1.23-.95,1.51l-3.5.54c-485.15-2.78-970.97,3.96-1455.79-1.05l1460.24-1Z"/>
      <path class="uuid-1cdfb447-51ac-48af-94c3-dd0a8c3e8b73" d="M141.12,1673.18h-2c.26-.31.18-1.61,1-2,.14.46,1.06,1.18,1,2Z"/>
      <path class="uuid-474c7738-146b-4a09-9d35-cd351a188368" d="M1599.36,73.01l1,2v64.97c-461.9-.24-924.62,2.31-1386.83.95-1.02-.22-3.45.72-3.45,1.55v67.96c0,.11-1.39,1.5-1.5,1.5h-67.96c-.83,0-1.77,2.42-1.55,3.45l.05,1386.83h-1c-19.64-.12-39.33.16-58.97,0l-.51-.99-1.49.99c-1.3-.03-2.79.16-4,0-.22-.03-.85-1.12-2-1V141.97c.75.08,1.7-.97,2-1,14.86-1.71,33.48.72,48.97,0,1.92,1.58,14.16,1.32,14.81.76.47-.41.06-1.63.19-1.76.16-.16,2.39.56,2.08-1.43l-.08-63.54c.63-.11,2.16-1.63,3-2h1457.24Z"/>
      <path class="uuid-1cdfb447-51ac-48af-94c3-dd0a8c3e8b73" d="M140.12,1662.18c-.66-13.95-.8-26.91,0-40.98v40.98Z"/>
      <path class="uuid-1cdfb447-51ac-48af-94c3-dd0a8c3e8b73" d="M140.12,1613.21l-2-10.99h1c4,3.09,1.23,8.08,1,10.99Z"/>
      <path class="uuid-1cdfb447-51ac-48af-94c3-dd0a8c3e8b73" d="M140.12,1669.18c-.69-3.41.03-3.65,0-4,1.4,1.26,1.37,2.77,0,4Z"/>
      <path class="uuid-1cdfb447-51ac-48af-94c3-dd0a8c3e8b73" d="M79.15,1602.21c-.61,0-1.32.02-2,0l1.49-.99.51.99Z"/>
      <path class="uuid-609e7f1c-7f73-4b1e-a00f-9b457d942424" d="M1672.32,201.94h-1c.09-16.97.1-34.01,0-50.97h1c.66,17.14.16,33.95,0,50.97Z"/>
      <path class="uuid-1cdfb447-51ac-48af-94c3-dd0a8c3e8b73" d="M1672.32,140.98c.33,0,.67,0,1,0-.7,3.42-1.14,6.45-1,9.99h-1c-.01-2.15-.96-6.55-1-9.99.67,0,1.33,0,2,0Z"/>
      <path class="uuid-1cdfb447-51ac-48af-94c3-dd0a8c3e8b73" d="M1672.32,201.94c-.02,1.66.01,3.33,0,5h-1c0-1.4,0-3.58,0-5h1Z"/>
      <path class="uuid-609e7f1c-7f73-4b1e-a00f-9b457d942424" d="M1672.32,208.94h-1c0-.67,0-1.33,0-2h1c0,.56,0,1.42,0,2Z"/>
      <path class="uuid-609e7f1c-7f73-4b1e-a00f-9b457d942424" d="M1664.32,140.98c-.61-2.97,2.55-3.13,2,0-.67,0-1.33,0-2,0Z"/>
      <path class="uuid-609e7f1c-7f73-4b1e-a00f-9b457d942424" d="M139.12,1733.15c2.97-.61,3.13,2.55,0,2v-2Z"/>
      <path class="uuid-609e7f1c-7f73-4b1e-a00f-9b457d942424" d="M145.11,1741.14c-.61-2.97,2.55-3.13,2,0h-2Z"/>
      <path class="uuid-1cdfb447-51ac-48af-94c3-dd0a8c3e8b73" d="M137.12,139.98c-.13.13.29,1.35-.19,1.76-.64.56-12.89.81-14.81-.76.13,0,.29-.91,2.43-1.04,4.16-.25,8.41.25,12.56.04Z"/>
      <path class="uuid-78067ecf-5c00-4be5-b8d1-c8ea97ef493d" d="M1460.43,279.9c1.74,1.01,2.16,1.11,1.95,3.31-2.09,21.81-.44,44.54.05,66.66-4.84.41-9.5.8-14.44,1.05l-1098.04-.63-.99,4.03c-2.82,369.6,3.93,739.41.05,1108.97,0,.7-1,.93-1,1-20.65-1.62-41.71-1.18-62.51-1.05-1.64.01-4.05,1.11-4.9.92-1.34-.31-1.1-3.62-3.55-2.86-.8-391.29.64-782.63-.05-1173.93l1.15-7.34,1182.28-.11Z"/>
      <path class="uuid-474c7738-146b-4a09-9d35-cd351a188368" d="M1467.42,350.87c.31.03,1.54,1,3.38,1.07,20.79.78,41.79-.73,62.59-.07v1181.88c0,.11-1.39,1.5-1.5,1.5H350.01l-1-66.97c0-.67,0-1.33,0-2l2-2,1097.98.05c4.15-.67,8.47-.51,12.45-2.05.39-.15,1.28.32,1.85-.11l.2-1102.88c.76-1.65-1.05-3.25-1.05-3.43-.03-1.33.03-2.67,0-4,.77.07,1.63-.93,2-1,.76-.14,2.15-.07,3,0Z"/>
      <path class="uuid-1cdfb447-51ac-48af-94c3-dd0a8c3e8b73" d="M277.04,1461.29c2.46-.76,2.21,2.56,3.55,2.86.84.19,3.26-.91,4.9-.92,20.8-.13,41.86-.57,62.51,1.05-.02,1.42,1,1.89,1,2,0,.67,0,1.33,0,2,0,.18-1.05,1.53-1.07,3.38-.28,21.18.36,42.41.07,63.59h-69.46c-1.09,0-1.43-2.44-1.55-3.45-2.34-19.97.09-49.63.05-70.51Z"/>
      <path class="uuid-1cdfb447-51ac-48af-94c3-dd0a8c3e8b73" d="M1467.42,350.87c-.85-.07-2.24-.14-3,0-.07-.96-1.23-1.06-2-1,.01.67-.01,1.33,0,2,.03,1.33-.03,2.67,0,4l-1,1106.42c-3.97,1.54-8.3,1.38-12.45,2.05l-1097.98-.05-2-1c3.88-369.56-2.87-739.38-.05-1108.97l.99-4.03,1098.04.63c4.94-.25,9.6-.64,14.44-1.05-.48-22.12-2.14-44.85-.05-66.66.21-2.19-.21-2.3-1.95-3.31,21.09.07,48.69-3.5,69.51-1.05,1.01.12,3.45.46,3.45,1.55v67.96c0,1.09-2.44,1.43-3.45,1.55-16.39,1.92-39.71-.25-57.04-.07-1.69.02-4.45-.64-5.48,1.02Z"/>
      <path class="uuid-d8fc96d6-0291-469c-9f68-7c83393406e7" d="M351.01,1464.29l-2,2c0-.11-1.02-.58-1-2,0-.07.99-.3,1-1l2,1Z"/>
      <path class="uuid-d8fc96d6-0291-469c-9f68-7c83393406e7" d="M1462.43,355.86c0,.18,1.81,1.78,1.05,3.43l-.2,1102.88c-.57.43-1.46-.04-1.85.11l1-1106.42Z"/>
      <path class="uuid-d8fc96d6-0291-469c-9f68-7c83393406e7" d="M1464.43,350.87c-.37.07-1.23,1.07-2,1-.01-.67.01-1.33,0-2,.77-.06,1.93.04,2,1Z"/>
    </g>
    <g>
      <rect class="uuid-f2785435-0f13-47d2-a56d-af866cd7e629" x="1317.93" y="536.91" width="51.71" height="51.7"/>
      <rect class="uuid-f2785435-0f13-47d2-a56d-af866cd7e629" x="1266.23" y="485.2" width="51.71" height="51.71"/>
      <polygon class="uuid-f2785435-0f13-47d2-a56d-af866cd7e629" points="1007.65 536.91 1007.65 588.62 1007.65 640.33 1007.65 692.03 1007.65 743.74 955.94 743.74 955.94 795.44 904.24 795.44 904.24 847.15 852.53 847.15 852.53 898.86 800.83 898.86 800.83 950.61 852.53 950.61 904.24 950.61 955.94 950.61 1007.65 950.61 1007.65 898.86 1059.36 898.86 1059.36 847.15 1111.06 847.15 1111.06 795.44 1162.77 795.44 1162.77 743.74 1162.77 692.03 1162.77 640.33 1162.77 588.62 1162.77 536.91 1162.77 485.2 1162.77 433.5 1111.06 433.5 1059.36 433.5 1007.65 433.5 1007.65 485.2 1007.65 536.91"/>
      <polygon class="uuid-f2785435-0f13-47d2-a56d-af866cd7e629" points="1007.65 1312.55 955.94 1312.55 955.94 1364.26 1007.65 1364.26 1059.36 1364.26 1111.06 1364.26 1111.06 1312.55 1059.36 1312.55 1007.65 1312.55"/>
      <polygon class="uuid-f2785435-0f13-47d2-a56d-af866cd7e629" points="955.94 1157.43 955.94 1105.73 955.94 1054.02 955.94 1002.31 904.24 1002.31 904.24 1054.02 904.24 1105.73 904.24 1157.43 904.24 1209.14 904.24 1260.84 955.94 1260.84 1007.65 1260.84 1007.65 1209.14 955.94 1209.14 955.94 1157.43"/>
      <rect class="uuid-f2785435-0f13-47d2-a56d-af866cd7e629" x="593.96" y="847.15" width="51.71" height="51.7"/>
      <rect class="uuid-f2785435-0f13-47d2-a56d-af866cd7e629" x="542.25" y="795.44" width="51.71" height="51.71"/>
      <polygon class="uuid-a9e37b36-04b3-4651-b2f8-7b1899187fae" points="1369.64 692.03 1369.64 640.33 1369.64 588.62 1317.93 588.62 1317.93 640.33 1317.93 692.03 1317.93 743.74 1317.93 795.44 1369.64 795.44 1369.64 743.74 1369.64 692.03"/>
      <rect class="uuid-a9e37b36-04b3-4651-b2f8-7b1899187fae" x="1266.23" y="536.91" width="51.71" height="51.7"/>
      <polygon class="uuid-a9e37b36-04b3-4651-b2f8-7b1899187fae" points="1266.23 795.44 1214.52 795.44 1214.52 847.15 1162.77 847.15 1162.77 898.86 1214.52 898.86 1266.23 898.86 1266.23 847.15 1317.93 847.15 1317.93 795.44 1266.23 795.44"/>
      <polygon class="uuid-a9e37b36-04b3-4651-b2f8-7b1899187fae" points="749.12 485.2 697.41 485.2 697.41 536.91 697.41 588.62 697.41 640.33 697.41 692.03 697.41 743.74 749.12 743.74 749.12 795.44 800.83 795.44 800.83 847.15 800.83 898.86 852.53 898.86 852.53 847.15 904.24 847.15 904.24 795.44 955.94 795.44 955.94 743.74 1007.65 743.74 1007.65 692.03 1007.65 640.33 1007.65 588.62 1007.65 536.91 1007.65 485.2 1007.65 433.5 955.94 433.5 904.24 433.5 852.53 433.5 800.83 433.5 800.83 485.2 749.12 485.2"/>
      <polygon class="uuid-a9e37b36-04b3-4651-b2f8-7b1899187fae" points="852.53 1364.26 904.24 1364.26 955.94 1364.26 955.94 1312.55 904.24 1312.55 852.53 1312.55 800.83 1312.55 800.83 1364.26 852.53 1364.26"/>
      <rect class="uuid-a9e37b36-04b3-4651-b2f8-7b1899187fae" x="852.53" y="1157.43" width="51.7" height="51.7"/>
      <polygon class="uuid-a9e37b36-04b3-4651-b2f8-7b1899187fae" points="904.24 1054.02 904.24 1002.31 852.53 1002.31 852.53 1054.02 852.53 1105.73 904.24 1105.73 904.24 1054.02"/>
      <rect class="uuid-a9e37b36-04b3-4651-b2f8-7b1899187fae" x="542.25" y="847.15" width="51.71" height="51.7"/>
      <rect class="uuid-a9e37b36-04b3-4651-b2f8-7b1899187fae" x="542.25" y="485.2" width="51.71" height="51.71"/>
      <polygon class="uuid-a9e37b36-04b3-4651-b2f8-7b1899187fae" points="542.25 795.44 542.25 743.74 490.55 743.74 490.55 692.03 438.84 692.03 438.84 743.74 438.84 795.44 490.55 795.44 490.55 847.15 542.25 847.15 542.25 795.44"/>
      <rect class="uuid-a9e37b36-04b3-4651-b2f8-7b1899187fae" x="490.55" y="536.91" width="51.7" height="51.7"/>
      <rect class="uuid-282bef91-90a7-4c8e-84ae-cc6d2a932759" x="1214.52" y="485.2" width="51.71" height="51.71"/>
      <rect class="uuid-282bef91-90a7-4c8e-84ae-cc6d2a932759" x="852.53" y="1105.73" width="51.7" height="51.71"/>
      <polygon class="uuid-282bef91-90a7-4c8e-84ae-cc6d2a932759" points="852.53 1260.84 904.24 1260.84 904.24 1209.14 852.53 1209.14 800.83 1209.14 800.83 1260.84 852.53 1260.84"/>
      <polygon class="uuid-282bef91-90a7-4c8e-84ae-cc6d2a932759" points="749.12 1364.26 800.83 1364.26 800.83 1312.55 749.12 1312.55 697.41 1312.55 697.41 1364.26 749.12 1364.26"/>
      <polygon class="uuid-282bef91-90a7-4c8e-84ae-cc6d2a932759" points="697.41 847.15 749.12 847.15 749.12 898.86 800.83 898.86 800.83 847.15 800.83 795.44 749.12 795.44 749.12 743.74 697.41 743.74 697.41 692.03 697.41 640.33 697.41 588.62 697.41 536.91 697.41 485.2 749.12 485.2 800.83 485.2 800.83 433.5 749.12 433.5 697.41 433.5 645.66 433.5 645.66 485.2 645.66 536.91 645.66 588.62 645.66 640.33 645.66 692.03 645.66 743.74 645.66 795.44 697.41 795.44 697.41 847.15"/>
      <rect class="uuid-282bef91-90a7-4c8e-84ae-cc6d2a932759" x="490.55" y="485.2" width="51.7" height="51.71"/>
      <polygon class="uuid-282bef91-90a7-4c8e-84ae-cc6d2a932759" points="438.84 640.33 438.84 692.03 490.55 692.03 490.55 640.33 490.55 588.62 490.55 536.91 438.84 536.91 438.84 588.62 438.84 640.33"/>
      <polygon points="1369.64 640.33 1369.64 692.03 1369.64 743.74 1369.64 795.44 1421.35 795.44 1421.35 743.74 1421.35 692.03 1421.35 640.33 1421.35 588.62 1421.35 587.6 1421.35 536.91 1369.64 536.91 1369.64 588.62 1369.64 640.33"/>
      <rect x="1317.93" y="795.44" width="51.71" height="51.71"/>
      <rect x="1317.93" y="485.2" width="51.71" height="51.71"/>
      <rect x="1266.23" y="847.15" width="51.71" height="51.7"/>
      <path d="M593.96,485.2v51.71h-51.71v51.7h51.71v155.12h-51.71v51.7h51.71v51.71h51.71v51.7h-103.41v51.75h206.87v51.7h51.71v206.83h51.71v-206.83h103.41v206.83h51.71v-206.83h51.71v-51.7h206.87v-51.75h-103.45v-51.7h51.75v-51.71h103.41v-206.83h-51.71v155.12h-51.71v-155.12h51.71v-51.7h-51.71v-51.71h103.41v-51.7h-103.41v-51.75h-620.56v51.75h-103.41v51.7h103.41ZM645.66,743.74v-310.24h517.11v361.94h-51.71v51.71h-51.71v51.7h-51.71v51.75h-206.82v-51.75h-51.71v-51.7h-51.71v-51.71h-51.75v-51.71Z"/>
      <polygon points="1059.36 1364.26 1007.65 1364.26 955.94 1364.26 904.24 1364.26 852.53 1364.26 800.83 1364.26 749.12 1364.26 697.41 1364.26 697.41 1312.55 645.66 1312.55 645.66 1364.26 645.66 1378.89 645.66 1416.01 697.41 1416.01 749.12 1416.01 800.83 1416.01 852.53 1416.01 904.24 1416.01 955.94 1416.01 1007.65 1416.01 1059.36 1416.01 1111.06 1416.01 1162.77 1416.01 1162.77 1378.89 1162.77 1364.26 1162.77 1312.55 1111.06 1312.55 1111.06 1364.26 1059.36 1364.26"/>
      <polygon points="955.94 1260.84 904.24 1260.84 852.53 1260.84 800.83 1260.84 800.83 1209.14 749.12 1209.14 749.12 1260.84 697.41 1260.84 697.41 1312.55 749.12 1312.55 800.83 1312.55 852.53 1312.55 904.24 1312.55 955.94 1312.55 1007.65 1312.55 1059.36 1312.55 1111.06 1312.55 1111.06 1260.84 1059.36 1260.84 1059.36 1209.14 1007.65 1209.14 1007.65 1260.84 955.94 1260.84"/>
      <rect x="490.55" y="847.15" width="51.7" height="51.7"/>
      <polygon points="542.25 743.74 542.25 692.03 542.25 640.33 542.25 588.62 490.55 588.62 490.55 640.33 490.55 692.03 490.55 743.74 542.25 743.74"/>
      <rect x="438.84" y="795.44" width="51.71" height="51.71"/>
      <rect x="438.84" y="485.2" width="51.71" height="51.71"/>
      <polygon points="387.13 640.33 387.13 692.03 387.13 743.74 387.13 795.44 438.84 795.44 438.84 743.74 438.84 692.03 438.84 640.33 438.84 588.62 438.84 536.91 387.13 536.91 387.13 587.6 387.13 588.62 387.13 640.33"/>
    </g>
  </g>
</svg>