<svg id="uuid-e298a490-3bdf-418f-8bf3-9bbe3675c2e1" data-name="Layer 2" xmlns="http://www.w3.org/2000/svg" viewBox="0 0 150 150"><defs><style>.uuid-940ca893-a2fb-4302-b668-70d42190807f{fill:#8b8b8b}</style></defs><g id="uuid-84c792d2-6b2b-40b0-b547-160c454e0e75" data-name="Layer 1"><path style="fill:none" d="M0 0h150v150H0z"/><path d="M44.95 59.95c-.04-10.02.03-20.07 0-30.09h10.02c.02 10.02-.02 20.07 0 30.09h10.02c0 3.34-.02 6.69 0 10.03h10.02c.01-3.34 0-6.69 0-10.03 3.33 0 6.69.01 10.02 0 .01-3.34 0-6.69 0-10.03h20.04v10.03c-6.67.02-13.36-.02-20.04 0-.01 3.34.01 6.69 0 10.03H75.01c-.01 3.34 0 6.69 0 10.03-.02 6.68.02 13.38 0 20.06H64.99c0 3.34.01 6.69 0 10.03H54.97v-10.03h10.02c.02-6.68.02-13.38 0-20.06 0-3.34.01-6.69 0-10.03-3.33 0-6.69.01-10.02 0-.01-3.34 0-6.69 0-10.03H44.95z" style="fill:#3d3d3d"/><path class="uuid-940ca893-a2fb-4302-b668-70d42190807f" d="M105.06 59.95v10.03c-6.67 0-13.37-.02-20.04 0-.01 3.34 0 6.69 0 10.03H75c0-3.34-.01-6.7 0-10.03h10.02c.01-3.34-.01-6.69 0-10.03 6.67-.02 13.36.02 20.04 0zM54.97 59.95c0 3.34-.01 6.69 0 10.03 3.33.01 6.69 0 10.02 0 .01 3.34 0 6.69 0 10.03H54.97c0-3.34.02-6.69 0-10.03-3.33-.01-6.69 0-10.02 0 0-3.34.01-6.69 0-10.03h10.02zM75 100.08c-.01 3.34 0 6.69 0 10.03H64.98c-.01 3.34 0 6.69 0 10.03H54.96v-10.03h10.02c.01-3.34 0-6.69 0-10.03H75z"/></g></svg>