<svg id="uuid-1337ad7c-3ab1-47b4-8d86-43777dc40aff" data-name="Layer 2" xmlns="http://www.w3.org/2000/svg" viewBox="0 0 150 150"><defs><style>.uuid-d98fba37-f3d3-4dfb-9989-ee66921f3739{fill:#8b8b8b}</style></defs><g id="uuid-40ded000-c9a8-41d1-81a9-fb8c0ec037c1" data-name="Layer 1"><path style="fill:none" d="M0 0h150v150H0z"/><path d="M54.97 64.97c-.02-6.68.02-13.38 0-20.06h10.02c.02 6.68-.02 13.38 0 20.06h10.02c0 3.34-.02 6.69 0 10.03h10.02c.01-3.34 0-6.69 0-10.03h10.02V75H85.03c-.01 3.34 0 6.69 0 10.03s.01 6.69 0 10.03H75.01c-.01-3.34 0-6.69 0-10.03s.01-6.69 0-10.03c-3.33 0-6.69.01-10.02 0-.01-3.34.01-6.69 0-10.03H54.97z" style="fill:#3d3d3d"/><path class="uuid-d98fba37-f3d3-4dfb-9989-ee66921f3739" d="M64.98 64.97c.01 3.34-.01 6.69 0 10.03 3.33.01 6.69 0 10.02 0 .01 3.34 0 6.69 0 10.03H64.98c0-3.34.02-6.69 0-10.03-3.33-.01-6.69 0-10.02 0 0-3.34.01-6.69 0-10.03h10.02zM95.04 75v10.03H85.02c0-3.34-.01-6.7 0-10.03h10.02zM85.02 95.06c-.01 3.34 0 6.69 0 10.03H75c0-3.34.01-6.69 0-10.03h10.02z"/></g></svg>