<svg id="uuid-e38f2c05-9b06-422c-b91e-fbdc3e0a73f5" data-name="Layer 2" xmlns="http://www.w3.org/2000/svg" viewBox="0 0 150 150"><defs><style>.uuid-51f92e8e-708a-48b6-8b9d-3c16f481c984{fill:#3d3d3d}.uuid-4d5a6c7e-69d5-4372-9155-67ca741ce839{fill:#8b8b8b}</style></defs><g id="uuid-10e98c5b-560a-4cb3-9696-2c7a26eba53c" data-name="Layer 1"><path style="fill:none" d="M0 0h150v150H0z"/><path class="uuid-51f92e8e-708a-48b6-8b9d-3c16f481c984" d="M80.01 115.12v10.03c10.01.01 20.04 0 30.06 0v10.03c-10.01-.03-20.04.04-30.06 0-.01-3.34 0-6.69 0-10.03H69.99c-.01-3.34 0-6.69 0-10.03 3.33 0 6.69.01 10.02 0zM39.94 14.81V4.78h10.02c0 3.34-.01 6.69 0 10.03h10.02c0 3.34-.02 6.69 0 10.03H70c.01-3.34 0-6.69 0-10.03h20.04c0 3.34-.01 6.69 0 10.03H70c-.01 3.34.01 6.69 0 10.03H59.98c0-3.34.01-6.69 0-10.03-3.33 0-6.69.01-10.02 0 0-3.34.01-6.69 0-10.03H39.94zM90.03 34.88c.02 6.68 0 13.38 0 20.06h20.04c.01-3.34 0-6.69 0-10.03 3.33 0 6.69.01 10.02 0 .01-3.34 0-6.69 0-10.03h20.04v10.03c-6.67.02-13.36-.02-20.04 0-.01 3.34.01 6.69 0 10.03h-10.02c-.01 3.34 0 6.69 0 10.03 0 3.34.01 6.69 0 10.03h-10.02c-.03-3.34.02-6.7 0-10.03H90.03V54.94H80.01V34.88h10.02z"/><path class="uuid-51f92e8e-708a-48b6-8b9d-3c16f481c984" d="M29.92 64.97c.01-10.02 0-20.07 0-30.09h10.02v20.06h10.02c.01-6.68-.02-13.38 0-20.06h10.02v10.03c0 6.68-.02 13.38 0 20.06 3.33.01 6.69 0 10.02 0 0 3.34-.02 6.69 0 10.03h10.02V64.97h10.02c0 3.34.01 6.69 0 10.03H80.02c0 3.34-.01 6.69 0 10.03s0 6.69 0 10.03h10.02v10.03H70v10.03c-10.01.02-20.04-.04-30.06 0 0 3.34.01 6.69 0 10.03-3.33 0-6.69-.01-10.02 0-.01 3.34.01 6.69 0 10.03H19.9v-10.03c3.33 0 6.69.02 10.02 0 .01-3.34 0-6.69 0-10.03 3.33 0 6.69.01 10.02 0v-10.03c0-3.34.01-6.69 0-10.03H29.92c-.01-3.34 0-6.69 0-10.03h10.02c0 3.34-.02 6.69 0 10.03.93 0 10.02-.5 10.02 0v10.03H70c0-6.68.02-13.38 0-20.06 0-3.34.01-6.69 0-10.03H59.98c-.01-3.34 0-6.69 0-10.03-10.01-.04-20.05-.04-30.06 0V75c-3.33 0-6.69-.01-10.02 0-.01 3.34 0 6.69 0 10.03s.01 6.69 0 10.03H9.88c-.03-6.68.02-13.38 0-20.06 3.33 0 6.69.02 10.02 0 .01-3.34 0-6.69 0-10.03 3.33 0 6.69.01 10.02 0z"/><path class="uuid-4d5a6c7e-69d5-4372-9155-67ca741ce839" d="M90.03 105.09v10.03c-3.33 0-6.69-.02-10.02 0s-6.69 0-10.02 0v-10.03h20.04zM69.99 115.12c0 3.34-.01 6.69 0 10.03h10.02c0 3.34-.01 6.69 0 10.03 10.01.04 20.04-.03 30.06 0v10.03H80.01c0-3.34.01-6.69 0-10.03-3.33-.01-6.69 0-10.02 0 0-3.34.02-6.69 0-10.03-10.01-.01-20.04-.02-30.06 0-.01 3.34 0 6.69 0 10.03H29.91c-.01 3.34 0 6.69 0 10.03H19.89v-10.03h10.02c.01-3.34-.01-6.69 0-10.03 3.33-.01 6.69 0 10.02 0 .01-3.34 0-6.69 0-10.03 10.01-.04 20.04.02 30.06 0zM140.12 44.91v10.03c-6.67 0-13.37-.02-20.04 0-.01 3.34 0 6.69 0 10.03h-10.02c0-3.34-.01-6.7 0-10.03h10.02c.01-3.34-.01-6.69 0-10.03 6.67-.02 13.36.02 20.04 0zM49.96 14.81c.01 3.34 0 6.69 0 10.03 3.33.01 6.69 0 10.02 0 .01 3.34 0 6.69 0 10.03H49.96V24.84c-3.33-.01-6.69 0-10.02 0V14.81h10.02z"/><path class="uuid-4d5a6c7e-69d5-4372-9155-67ca741ce839" d="M90.03 24.84c.01 3.34 0 6.69 0 10.03H69.99c-.01 3.34 0 6.69 0 10.03H59.97V34.87h10.02c.01-3.34-.01-6.69 0-10.03h20.04zM90.03 54.94v10.03H80.01V54.94h10.02zM90.03 64.97h10.02c.02 3.34-.03 6.7 0 10.03h10.02c-.01 3.34 0 6.69 0 10.03h-10.02c-.02-3.34.03-6.69 0-10.03H90.03c-.01 3.34 0 6.69 0 10.03H80.01c-.01-3.34 0-6.7 0-10.03h10.02c.01-3.34 0-6.69 0-10.03zM19.9 95.06c-.01 3.34 0 6.69 0 10.03H9.88c0-3.34.01-6.69 0-10.03H19.9zM39.94 95.06c.01 3.34 0 6.69 0 10.03H29.92c0-3.34.02-6.69 0-10.03h10.02zM59.98 64.97c0 3.34-.01 6.69 0 10.03H70c.01 3.34 0 6.69 0 10.03H59.98c0-3.34.02-6.69 0-10.03-10.01 0-20.04-.02-30.06 0v10.03H19.9c0-3.34-.01-6.69 0-10.03 3.33-.01 6.69 0 10.02 0V64.97c10.01-.04 20.05-.04 30.06 0z"/></g></svg>