<svg id="uuid-6fc75836-6df3-46a6-b96b-9b54fc1289ef" data-name="Layer 2" xmlns="http://www.w3.org/2000/svg" viewBox="0 0 150 150"><defs><style>.uuid-c0225e4a-0e57-412b-a404-1f027c600adc{fill:#3d3d3d}.uuid-5951cdb2-123f-428c-9a7e-f6a615713465{fill:#8b8b8b}</style></defs><g id="uuid-685759bb-1f85-4740-949f-7620d0fb09c1" data-name="Layer 1"><path style="fill:none" d="M0 0h150v150H0z"/><path class="uuid-c0225e4a-0e57-412b-a404-1f027c600adc" d="M80.01 115.12c0 3.34.01 6.69 0 10.03H69.99c-.01-3.34 0-6.69 0-10.03h10.02zM69.99 24.84c.01-3.34 0-6.69 0-10.03h10.02c0 3.34-.01 6.69 0 10.03H69.99c-.01 3.34.01 6.69 0 10.03-3.33 0-6.69-.01-10.02 0-.01 3.34 0 6.69 0 10.03-.02 6.68-.02 13.38 0 20.06 3.33.01 6.69 0 10.02 0 0 3.34-.02 6.69 0 10.03h10.02V64.96h10.02c0 3.34.01 6.69 0 10.03H80.01V105.08H69.99v10.03H39.93v-10.03h30.06c0-6.68.02-13.38 0-20.06 0-3.34.01-6.69 0-10.03H59.97c-.01-3.34 0-6.69 0-10.03-10.01-.04-20.05-.04-30.06 0-.01 3.34.01 6.69 0 10.03H19.89V64.96c3.33 0 6.69.01 10.02 0 .01-3.34 0-6.69 0-10.03h20.04V34.87c3.33 0 6.69.01 10.02 0 .01-3.34 0-6.69 0-10.03h10.02z"/><path class="uuid-c0225e4a-0e57-412b-a404-1f027c600adc" d="M80.01 34.88c3.33.01 6.69 0 10.02 0 0 6.68-.02 13.38 0 20.06 6.67 0 13.36.02 20.04 0 .01-3.34 0-6.69 0-10.03h10.02c.01-3.34 0-6.69 0-10.03h10.02v10.03h-10.02c-.01 3.34.01 6.69 0 10.03-3.33.01-6.69 0-10.02 0-.01 3.34.01 6.69 0 10.03-6.67.02-13.36 0-20.04 0V54.94H80.01c0-6.68.02-13.38 0-20.06z"/><path class="uuid-5951cdb2-123f-428c-9a7e-f6a615713465" d="M59.97 64.97c0 3.34-.01 6.69 0 10.03h10.02c.01 3.34 0 6.69 0 10.03H59.97c0-3.34.02-6.69 0-10.03H29.91c-.01 3.34 0 6.69 0 10.03H19.89V75h10.02c.01-3.34-.01-6.69 0-10.03 10.01-.04 20.05-.04 30.06 0zM80.01 105.09v10.03H69.99v-10.03h10.02zM69.99 115.12c0 3.34-.01 6.69 0 10.03h10.02c-.01 3.34 0 6.69 0 10.03H69.99c0-3.34.01-6.69 0-10.03H39.93v-10.03h30.06zM130.1 44.91v10.03c-3.33 0-6.69-.02-10.02 0-.01 3.34 0 6.69 0 10.03-3.33 0-6.69-.01-10.02 0-.01 3.34 0 6.69 0 10.03-6.67 0-13.37-.02-20.04 0-.01 3.34 0 6.69 0 10.03H80V75h10.02c.01-3.34 0-6.69 0-10.03 6.67 0 13.36.02 20.04 0 .01-3.34-.01-6.69 0-10.03 3.33 0 6.69.01 10.02 0 .01-3.34-.01-6.69 0-10.03h10.02z"/><path class="uuid-5951cdb2-123f-428c-9a7e-f6a615713465" d="M90.03 54.94v10.03H80.01V54.94h10.02zM80.01 24.84c.01 3.34 0 6.69 0 10.03-3.33-.01-6.69 0-10.02 0-.01 3.34 0 6.69 0 10.03H59.97c0-3.34-.01-6.7 0-10.03 3.33-.01 6.69 0 10.02 0 .01-3.34-.01-6.69 0-10.03h10.02z"/></g></svg>