<svg id="uuid-98ebe1df-6f51-4b88-918a-25a7aff8c044" data-name="Layer 2" xmlns="http://www.w3.org/2000/svg" viewBox="0 0 280.88 280.56"><defs><style>.uuid-f8afd743-fb1a-4caa-9c13-f4ed78efd85e{fill:#3d3d3d}.uuid-19fa360d-7f09-490d-b77f-aacda2d24b0d{fill:#8b8b8b}</style></defs><g id="uuid-a77f95c3-d61c-4062-b0c9-3330e6c93b8b" data-name="Layer 1"><path class="uuid-f8afd743-fb1a-4caa-9c13-f4ed78efd85e" d="M.01 90.25c-.04-10.02.03-20.07 0-30.09h10.02c.02 10.02-.02 20.07 0 30.09h10.02c0 3.34-.02 6.69 0 10.03h10.02c.01-3.34 0-6.69 0-10.03 3.33 0 6.69.01 10.02 0 .01-3.34 0-6.69 0-10.03h20.04v10.03c-6.67.02-13.36-.02-20.04 0-.01 3.34.01 6.69 0 10.03H30.07c-.01 3.34 0 6.69 0 10.03-.02 6.68.02 13.38 0 20.06H20.05c0 3.34.01 6.69 0 10.03H10.03v-10.03h10.02c.02-6.68.02-13.38 0-20.06 0-3.34.01-6.69 0-10.03-3.33 0-6.69.01-10.02 0-.01-3.34 0-6.69 0-10.03H.01z"/><path class="uuid-19fa360d-7f09-490d-b77f-aacda2d24b0d" d="M60.12 90.25v10.03c-6.67 0-13.37-.02-20.04 0-.01 3.34 0 6.69 0 10.03H30.06c0-3.34-.01-6.7 0-10.03h10.02c.01-3.34-.01-6.69 0-10.03 6.67-.02 13.36.02 20.04 0zM10.03 90.25c0 3.34-.01 6.69 0 10.03 3.33.01 6.69 0 10.02 0 .01 3.34 0 6.69 0 10.03H10.03c0-3.34.02-6.69 0-10.03-3.33-.01-6.69 0-10.02 0 0-3.34.01-6.69 0-10.03h10.02zM30.07 130.38c-.01 3.34 0 6.69 0 10.03H20.05c-.01 3.34 0 6.69 0 10.03H10.03v-10.03h10.02c.01-3.34 0-6.69 0-10.03h10.02z"/><path class="uuid-f8afd743-fb1a-4caa-9c13-f4ed78efd85e" d="M.01 220.37c-.04-10.02.03-20.07 0-30.09h10.02c.02 10.02-.02 20.07 0 30.09h10.02c0 3.34-.02 6.69 0 10.03h10.02c.01-3.34 0-6.69 0-10.03 3.33 0 6.69.01 10.02 0 .01-3.34 0-6.69 0-10.03h20.04v10.03c-6.67.02-13.36-.02-20.04 0-.01 3.34.01 6.69 0 10.03H30.07c-.01 3.34 0 6.69 0 10.03-.02 6.68.02 13.38 0 20.06H20.05c0 3.34.01 6.69 0 10.03H10.03v-10.03h10.02c.02-6.68.02-13.38 0-20.06 0-3.34.01-6.69 0-10.03-3.33 0-6.69.01-10.02 0-.01-3.34 0-6.69 0-10.03H.01z"/><path class="uuid-19fa360d-7f09-490d-b77f-aacda2d24b0d" d="M60.12 220.37v10.03c-6.67 0-13.37-.02-20.04 0-.01 3.34 0 6.69 0 10.03H30.06c0-3.34-.01-6.7 0-10.03h10.02c.01-3.34-.01-6.69 0-10.03 6.67-.02 13.36.02 20.04 0zM10.03 220.37c0 3.34-.01 6.69 0 10.03 3.33.01 6.69 0 10.02 0 .01 3.34 0 6.69 0 10.03H10.03c0-3.34.02-6.69 0-10.03-3.33-.01-6.69 0-10.02 0 0-3.34.01-6.69 0-10.03h10.02zM30.07 260.5c-.01 3.34 0 6.69 0 10.03H20.05c-.01 3.34 0 6.69 0 10.03H10.03v-10.03h10.02c.01-3.34 0-6.69 0-10.03h10.02z"/><g><path class="uuid-f8afd743-fb1a-4caa-9c13-f4ed78efd85e" d="M134.81 239.48c.04 10.02-.03 20.07 0 30.09h-10.02c-.02-10.02.02-20.07 0-30.09h-10.02c0-3.34.02-6.69 0-10.03h-10.02c-.01 3.34 0 6.69 0 10.03-3.33 0-6.69-.01-10.02 0-.01 3.34 0 6.69 0 10.03H74.69v-10.03c6.67-.02 13.36.02 20.04 0 .01-3.34-.01-6.69 0-10.03h10.02c.01-3.34 0-6.69 0-10.03.02-6.68-.02-13.38 0-20.06h10.02c0-3.34-.01-6.69 0-10.03h10.02v10.03h-10.02c-.02 6.68-.02 13.38 0 20.06 0 3.34-.01 6.69 0 10.03 3.33 0 6.69-.01 10.02 0 .01 3.34 0 6.69 0 10.03h10.02z"/><path class="uuid-19fa360d-7f09-490d-b77f-aacda2d24b0d" d="M74.7 239.48v-10.03c6.67 0 13.37.02 20.04 0 .01-3.34 0-6.69 0-10.03h10.02c0 3.34.01 6.7 0 10.03H94.74c-.01 3.34.01 6.69 0 10.03-6.67.02-13.36-.02-20.04 0zM124.79 239.48c0-3.34.01-6.69 0-10.03-3.33-.01-6.69 0-10.02 0-.01-3.34 0-6.69 0-10.03h10.02c0 3.34-.02 6.69 0 10.03 3.33.01 6.69 0 10.02 0 0 3.34-.01 6.69 0 10.03h-10.02zM104.76 199.35c.01-3.34 0-6.69 0-10.03h10.02c.01-3.34 0-6.69 0-10.03h10.02v10.03h-10.02c-.01 3.34 0 6.69 0 10.03h-10.02z"/></g><g><path class="uuid-f8afd743-fb1a-4caa-9c13-f4ed78efd85e" d="M129.37 110.34v10.03c10.01.01 20.04 0 30.06 0v10.03c-10.01-.03-20.04.04-30.06 0-.01-3.34 0-6.69 0-10.03h-10.02c-.01-3.34 0-6.69 0-10.03 3.33 0 6.69.01 10.02 0zM89.3 10.03V0h10.02c0 3.34-.01 6.69 0 10.03h10.02c0 3.34-.02 6.69 0 10.03h10.02c.01-3.34 0-6.69 0-10.03h20.04c0 3.34-.01 6.69 0 10.03h-20.04c-.01 3.34.01 6.69 0 10.03h-10.02c0-3.34.01-6.69 0-10.03-3.33 0-6.69.01-10.02 0 0-3.34.01-6.69 0-10.03H89.3zM139.39 30.09c.02 6.68 0 13.38 0 20.06h20.04c.01-3.34 0-6.69 0-10.03 3.33 0 6.69.01 10.02 0 .01-3.34 0-6.69 0-10.03h20.04v10.03c-6.67.02-13.36-.02-20.04 0-.01 3.34.01 6.69 0 10.03h-10.02c-.01 3.34 0 6.69 0 10.03 0 3.34.01 6.69 0 10.03h-10.02c-.03-3.34.02-6.7 0-10.03h-10.02V50.15h-10.02V30.09h10.02z"/><path class="uuid-f8afd743-fb1a-4caa-9c13-f4ed78efd85e" d="M79.28 60.19c.01-10.02 0-20.07 0-30.09H89.3v20.06h10.02c.01-6.68-.02-13.38 0-20.06h10.02v10.03c0 6.68-.02 13.38 0 20.06 3.33.01 6.69 0 10.02 0 0 3.34-.02 6.69 0 10.03h10.02V60.19h10.02c0 3.34.01 6.69 0 10.03h-10.02c0 3.34-.01 6.69 0 10.03s0 6.69 0 10.03h10.02v10.03h-20.04v10.03c-10.01.02-20.04-.04-30.06 0 0 3.34.01 6.69 0 10.03-3.33 0-6.69-.01-10.02 0-.01 3.34.01 6.69 0 10.03H69.26v-10.03c3.33 0 6.69.02 10.02 0 .01-3.34 0-6.69 0-10.03 3.33 0 6.69.01 10.02 0v-10.03c0-3.34.01-6.69 0-10.03H79.28c-.01-3.34 0-6.69 0-10.03H89.3c0 3.34-.02 6.69 0 10.03.93 0 10.02-.5 10.02 0v10.03h20.04c0-6.68.02-13.38 0-20.06 0-3.34.01-6.69 0-10.03h-10.02c-.01-3.34 0-6.69 0-10.03-10.01-.04-20.05-.04-30.06 0v10.03c-3.33 0-6.69-.01-10.02 0-.01 3.34 0 6.69 0 10.03s.01 6.69 0 10.03H59.24c-.03-6.68.02-13.38 0-20.06 3.33 0 6.69.02 10.02 0 .01-3.34 0-6.69 0-10.03 3.33 0 6.69.01 10.02 0z"/><path class="uuid-19fa360d-7f09-490d-b77f-aacda2d24b0d" d="M139.39 100.31v10.03c-3.33 0-6.69-.02-10.02 0s-6.69 0-10.02 0v-10.03h20.04z"/><path class="uuid-19fa360d-7f09-490d-b77f-aacda2d24b0d" d="M119.35 110.34c0 3.34-.01 6.69 0 10.03h10.02c0 3.34-.01 6.69 0 10.03 10.01.04 20.04-.03 30.06 0v10.03h-30.06c0-3.34.01-6.69 0-10.03-3.33-.01-6.69 0-10.02 0 0-3.34.02-6.69 0-10.03-10.01-.01-20.04-.02-30.06 0-.01 3.34 0 6.69 0 10.03H79.27c-.01 3.34 0 6.69 0 10.03H69.25V130.4h10.02c.01-3.34-.01-6.69 0-10.03 3.33-.01 6.69 0 10.02 0 .01-3.34 0-6.69 0-10.03 10.01-.04 20.04.02 30.06 0zM189.48 40.12v10.03c-6.67 0-13.37-.02-20.04 0-.01 3.34 0 6.69 0 10.03h-10.02c0-3.34-.01-6.7 0-10.03h10.02c.01-3.34-.01-6.69 0-10.03 6.67-.02 13.36.02 20.04 0zM99.32 10.03c.01 3.34 0 6.69 0 10.03 3.33.01 6.69 0 10.02 0 .01 3.34 0 6.69 0 10.03H99.32V20.06c-3.33-.01-6.69 0-10.02 0V10.03h10.02z"/><path class="uuid-19fa360d-7f09-490d-b77f-aacda2d24b0d" d="M139.39 20.06c.01 3.34 0 6.69 0 10.03h-20.04c-.01 3.34 0 6.69 0 10.03h-10.02V30.09h10.02c.01-3.34-.01-6.69 0-10.03h20.04zM139.39 50.16v10.03h-10.02V50.16h10.02zM139.39 60.19h10.02c.02 3.34-.03 6.7 0 10.03h10.02c-.01 3.34 0 6.69 0 10.03h-10.02c-.02-3.34.03-6.69 0-10.03h-10.02c-.01 3.34 0 6.69 0 10.03h-10.02c-.01-3.34 0-6.7 0-10.03h10.02c.01-3.34 0-6.69 0-10.03zM69.26 90.28c-.01 3.34 0 6.69 0 10.03H59.24c0-3.34.01-6.69 0-10.03h10.02zM89.3 90.28c.01 3.34 0 6.69 0 10.03H79.28c0-3.34.02-6.69 0-10.03H89.3zM109.34 60.19c0 3.34-.01 6.69 0 10.03h10.02c.01 3.34 0 6.69 0 10.03h-10.02c0-3.34.02-6.69 0-10.03-10.01 0-20.04-.02-30.06 0v10.03H69.26c0-3.34-.01-6.69 0-10.03 3.33-.01 6.69 0 10.02 0V60.19c10.01-.04 20.05-.04 30.06 0z"/></g><g><path class="uuid-f8afd743-fb1a-4caa-9c13-f4ed78efd85e" d="M154.44 149.99v10c3.32.01 6.65 0 9.97 0v20h9.97c.01-6.66-.02-13.34 0-20h9.97v10c0 6.66-.02 13.34 0 20 3.32.01 6.66 0 9.97 0 0 3.33-.01 6.67 0 10h9.97v-10h9.97c0 3.33.01 6.67 0 10h-9.97c0 3.33-.01 6.67 0 10s0 6.67 0 10h9.97c0 3.33-.01 6.67 0 10 6.64 0 13.3.02 19.94 0v10h-19.94c0-3.33.01-6.67 0-10-6.64 0-13.3.02-19.94 0v10c-9.96 0-19.95-.04-29.92 0v10h-9.97c-.01 3.33 0 6.67 0 10-6.64 0-13.3.02-19.94 0-.01-3.33.01-6.67 0-10h-9.97v-10h9.97c0 3.33-.01 6.67 0 10h19.94c.01-3.33 0-6.67 0-10 3.32 0 6.66.01 9.97 0v-20h9.97c.01 3.33 0 6.67 0 10 6.64 0 13.3-.02 19.95 0 0-6.66.02-13.34 0-20 0-3.33.01-6.67 0-10h-9.97c-.01-3.33 0-6.67 0-10-9.96-.04-19.95-.04-29.92 0v10c-3.32 0-6.65-.01-9.97 0-.01 3.33 0 6.67 0 10s.01 6.67 0 10h-9.97c-.03-6.66.02-13.34 0-20 3.32 0 6.66.01 9.97 0 .01-3.33 0-6.67 0-10 3.32 0 6.66.01 9.97 0v-30c-6.64-.03-13.3.02-19.94 0v-10c6.64 0 13.3.02 19.95 0zM154.44 139.99c.01-3.33 0-6.67 0-10h19.94c0 3.33-.01 6.67 0 10 3.32.01 6.66 0 9.97 0 0 3.33-.01 6.67 0 10h9.97c.01-3.33 0-6.67 0-10h19.94v10h-19.94c-.01 3.33.01 6.67 0 10h-9.97c0-3.33.01-6.67 0-10h-9.97c0-3.33.01-6.67 0-10-6.64-.02-13.3.02-19.94 0zM164.41 259.99c0 3.33.01 6.67 0 10h-9.97c-.01-3.33 0-6.67 0-10h9.97z"/><path class="uuid-f8afd743-fb1a-4caa-9c13-f4ed78efd85e" d="M204.3 239.99v10h29.92v10c3.32.01 6.66 0 9.97 0v10h-9.97c-.01-3.33 0-6.67 0-10-9.96-.04-19.95 0-29.92 0v-10h-9.97v-10h9.97zM174.38 199.99v10h-9.97v10h-9.97c-.01-3.33 0-6.67 0-10h9.97v-10h9.97zM204.3 259.99c0 3.33.01 6.67 0 10h-9.97c-.01-3.33 0-6.67 0-10h9.97zM214.27 159.99c3.32.01 6.66 0 9.97 0v10h-9.97c0 3.33.01 6.67 0 10h-9.97v-20c3.32 0 6.65-.01 9.97 0zM244.19 169.99c.02-6.66-.02-13.34 0-20h9.97v10h9.97c0 3.33-.01 6.67 0 10 3.46.01 6.93 0 10.39 0v10h-10.39c-.01-3.33.01-6.67 0-10-6.64-.02-13.3-.02-19.94 0-.01 3.33.01 6.67 0 10h-9.97c-.01 3.33 0 6.67 0 10-.02 6.66 0 13.34 0 20h9.97v10h-9.97v-10h-9.97c-.01-3.33.01-6.67 0-10s0-6.67 0-10h-9.97c0-3.33-.01-6.67 0-10h19.94c.01-3.33 0-6.67 0-10 3.32 0 6.66.01 9.97 0z"/><path class="uuid-19fa360d-7f09-490d-b77f-aacda2d24b0d" d="M234.22 259.99c0 3.33-.01 6.67 0 10h9.97v10h-9.97c0-3.33.01-6.67 0-10H204.3c-.01 3.33 0 6.67 0 10h-9.97c0-3.33.01-6.67 0-10h9.97c.01-3.33 0-6.67 0-10 9.96 0 19.95-.04 29.92 0zM214.27 229.99c.01 3.33 0 6.67 0 10h19.94v10h-19.94v-10h-19.94v-10c6.64.02 13.3 0 19.94 0zM134.5 249.99c.01 3.33-.01 6.67 0 10 6.64.02 13.3 0 19.94 0 0 3.33-.01 6.67 0 10h9.97c-.01 3.33 0 6.67 0 10h-9.97c0-3.33.01-6.67 0-10h-19.95c0-3.33.01-6.67 0-10-3.32-.01-6.66 0-9.97 0v-10h9.97z"/><path class="uuid-19fa360d-7f09-490d-b77f-aacda2d24b0d" d="M194.33 239.99v10h9.97v10h-9.97v-10h-29.92v10h-9.97c0-3.33-.01-6.67 0-10h9.97v-10c9.96-.04 19.95 0 29.92 0zM174.38 139.99c.01 3.33 0 6.67 0 10h9.97c.01 3.33 0 6.67 0 10h-9.97v-10c-6.64 0-13.3-.02-19.94 0 0-3.33-.01-6.67 0-10 6.64.02 13.3-.02 19.94 0zM214.27 149.99v10c-3.32-.01-6.65 0-9.97 0h-9.97c-.01 3.33 0 6.67 0 10h-9.97v-10h9.97c.01-3.33-.01-6.67 0-10h19.94zM264.13 169.99c.01 3.33-.01 6.67 0 10h10.39v10h-10.39c0-3.33.01-6.67 0-10h-19.94c-.01 3.33 0 6.67 0 10h-9.97c0-3.33-.01-6.68 0-10h9.97c.01-3.33-.01-6.67 0-10 6.64-.02 13.3-.02 19.94 0zM154.44 159.99v10h-19.95v-10c6.64.02 13.3-.03 19.94 0zM144.47 219.99c-.01 3.33 0 6.67 0 10h-9.97c0-3.33.01-6.67 0-10h9.97zM164.41 219.99v10h-9.97c0-3.33.01-6.67 0-10h9.97zM174.38 209.99c0 3.33-.01 6.67 0 10h-9.97v-10h9.97zM234.22 209.99v10h9.97v10c-3.32 0-6.66-.01-9.97 0v-10h-9.97c0-3.33.01-6.67 0-10h9.97zM224.24 169.99v10h-9.97c.01-3.33 0-6.67 0-10h9.97zM214.27 179.99c-.01 3.33 0 6.67 0 10h-9.97v-10h9.97zM214.27 189.99h9.97c0 3.33-.01 6.67 0 10h-9.97c-.01 3.33 0 6.67 0 10h-9.97c-.01-3.33 0-6.68 0-10h9.97c.01-3.33 0-6.67 0-10zM184.36 189.99c0 3.33-.01 6.67 0 10h9.97c.01 3.33 0 6.67 0 10h-9.97c0-3.33.01-6.67 0-10H154.45v10h-9.97c0-3.33-.01-6.67 0-10 3.32-.01 6.65 0 9.97 0v-10c9.96-.04 19.95-.04 29.92 0z"/></g><g><path class="uuid-f8afd743-fb1a-4caa-9c13-f4ed78efd85e" d="M85.12 239.37c-.02-6.68.02-13.38 0-20.06h10.02c.02 6.68-.02 13.38 0 20.06h10.02c0 3.34-.02 6.69 0 10.03h10.02c.01-3.34 0-6.69 0-10.03h10.02v10.03h-10.02c-.01 3.34 0 6.69 0 10.03s.01 6.69 0 10.03h-10.02c-.01-3.34 0-6.69 0-10.03s.01-6.69 0-10.03c-3.33 0-6.69.01-10.02 0-.01-3.34.01-6.69 0-10.03H85.12z"/><path class="uuid-19fa360d-7f09-490d-b77f-aacda2d24b0d" d="M95.14 239.37c.01 3.34-.01 6.69 0 10.03 3.33.01 6.69 0 10.02 0 .01 3.34 0 6.69 0 10.03H95.14c0-3.34.02-6.69 0-10.03-3.33-.01-6.69 0-10.02 0 0-3.34.01-6.69 0-10.03h10.02zM125.19 249.4v10.03h-10.02c0-3.34-.01-6.7 0-10.03h10.02zM115.18 269.47c-.01 3.34 0 6.69 0 10.03h-10.02c0-3.34.01-6.69 0-10.03h10.02z"/></g><g><path class="uuid-f8afd743-fb1a-4caa-9c13-f4ed78efd85e" d="M180.57 100.29c-3.34 0-6.69.01-10.03 0V90.27c3.34-.01 6.69 0 10.03 0v10.02zM270.84 90.27c3.34.01 6.69 0 10.03 0v10.02c-3.34 0-6.69-.01-10.03 0V90.27c-3.34-.01-6.69.01-10.03 0 0-3.33.01-6.69 0-10.02-3.34-.01-6.69 0-10.03 0-6.68-.02-13.38-.02-20.06 0-.01 3.33 0 6.69 0 10.02-3.34 0-6.69-.02-10.03 0v10.02h10.03v10.02c-3.34 0-6.69.01-10.03 0v-10.02H190.6V90.27h-10.03V60.21h10.03v30.06c6.68 0 13.38.02 20.06 0 3.34 0 6.69.01 10.03 0V80.25c3.34-.01 6.69 0 10.03 0 .04-10.01.04-20.05 0-30.06-3.34-.01-6.69.01-10.03 0V40.17h10.03c0 3.33-.01 6.69 0 10.02 3.34.01 6.69 0 10.03 0v20.04h20.06c0 3.33-.01 6.69 0 10.02 3.34.01 6.69 0 10.03 0v10.02z"/><path class="uuid-f8afd743-fb1a-4caa-9c13-f4ed78efd85e" d="M260.81 100.29c-.01 3.33 0 6.69 0 10.02-6.68 0-13.38-.02-20.06 0 0 6.67-.02 13.36 0 20.04 3.34.01 6.69 0 10.03 0v10.02c3.34.01 6.69 0 10.03 0v10.02h-10.03v-10.02c-3.34-.01-6.69.01-10.03 0-.01-3.33 0-6.69 0-10.02-3.34-.01-6.69.01-10.03 0-.02-6.67 0-13.36 0-20.04h10.03v-10.02c6.68 0 13.38.02 20.06 0z"/><path class="uuid-19fa360d-7f09-490d-b77f-aacda2d24b0d" d="M230.72 80.25c-3.34 0-6.69-.01-10.03 0v10.02c-3.34.01-6.69 0-10.03 0V80.25c3.34 0 6.69.02 10.03 0V50.19c-3.34-.01-6.69 0-10.03 0V40.17h10.03v10.02c3.34.01 6.69-.01 10.03 0 .04 10.01.04 20.05 0 30.06zM190.6 100.29h-10.03V90.27h10.03v10.02zM180.57 90.27c-3.34 0-6.69-.01-10.03 0v10.02c-3.34-.01-6.69 0-10.03 0V90.27c3.34 0 6.69.01 10.03 0V60.21h10.03v30.06zM250.78 150.38h-10.03c0-3.33.02-6.69 0-10.02-3.34-.01-6.69 0-10.03 0 0-3.33.01-6.69 0-10.02-3.34-.01-6.69 0-10.03 0 0-6.67.02-13.37 0-20.04-3.34-.01-6.69 0-10.03 0v-10.02h10.03v10.02c3.34.01 6.69 0 10.03 0 0 6.67-.02 13.36 0 20.04 3.34.01 6.69-.01 10.03 0 0 3.33-.01 6.69 0 10.02 3.34.01 6.69-.01 10.03 0v10.02z"/><path class="uuid-19fa360d-7f09-490d-b77f-aacda2d24b0d" d="M240.75 110.31h-10.03v-10.02h10.03v10.02zM270.84 100.29c-3.34.01-6.69 0-10.03 0 .01-3.33 0-6.69 0-10.02-3.34-.01-6.69 0-10.03 0V80.25c3.34 0 6.7-.01 10.03 0 .01 3.33 0 6.69 0 10.02 3.34.01 6.69-.01 10.03 0v10.02z"/></g><g><path class="uuid-f8afd743-fb1a-4caa-9c13-f4ed78efd85e" d="M70.1 230.07c0 3.34.01 6.69 0 10.03H60.08c-.01-3.34 0-6.69 0-10.03H70.1zM60.08 139.79c.01-3.34 0-6.69 0-10.03H70.1c0 3.34-.01 6.69 0 10.03H60.08c-.01 3.34.01 6.69 0 10.03-3.33 0-6.69-.01-10.02 0-.01 3.34 0 6.69 0 10.03-.02 6.68-.02 13.38 0 20.06 3.33.01 6.69 0 10.02 0 0 3.34-.02 6.69 0 10.03H70.1v-10.03h10.02c0 3.34.01 6.69 0 10.03H70.1V220.03H60.08v10.03H30.02v-10.03h30.06c0-6.68.02-13.38 0-20.06 0-3.34.01-6.69 0-10.03H50.06c-.01-3.34 0-6.69 0-10.03-10.01-.04-20.05-.04-30.06 0-.01 3.34.01 6.69 0 10.03H9.98v-10.03c3.33 0 6.69.01 10.02 0 .01-3.34 0-6.69 0-10.03h20.04v-20.06c3.33 0 6.69.01 10.02 0 .01-3.34 0-6.69 0-10.03h10.02z"/><path class="uuid-f8afd743-fb1a-4caa-9c13-f4ed78efd85e" d="M70.1 149.82c3.33.01 6.69 0 10.02 0 0 6.68-.02 13.38 0 20.06 6.67 0 13.36.02 20.04 0 .01-3.34 0-6.69 0-10.03h10.02c.01-3.34 0-6.69 0-10.03h10.02v10.03h-10.02c-.01 3.34.01 6.69 0 10.03-3.33.01-6.69 0-10.02 0-.01 3.34.01 6.69 0 10.03-6.67.02-13.36 0-20.04 0v-10.03H70.1c0-6.68.02-13.38 0-20.06z"/><path class="uuid-19fa360d-7f09-490d-b77f-aacda2d24b0d" d="M50.06 179.91c0 3.34-.01 6.69 0 10.03h10.02c.01 3.34 0 6.69 0 10.03H50.06c0-3.34.02-6.69 0-10.03H20c-.01 3.34 0 6.69 0 10.03H9.98v-10.03H20c.01-3.34-.01-6.69 0-10.03 10.01-.04 20.05-.04 30.06 0zM70.1 220.04v10.03H60.08v-10.03H70.1zM60.08 230.07c0 3.34-.01 6.69 0 10.03H70.1c-.01 3.34 0 6.69 0 10.03H60.08c0-3.34.01-6.69 0-10.03H30.02v-10.03h30.06zM120.19 159.85v10.03c-3.33 0-6.69-.02-10.02 0-.01 3.34 0 6.69 0 10.03-3.33 0-6.69-.01-10.02 0-.01 3.34 0 6.69 0 10.03-6.67 0-13.37-.02-20.04 0-.01 3.34 0 6.69 0 10.03H70.09v-10.03h10.02c.01-3.34 0-6.69 0-10.03 6.67 0 13.36.02 20.04 0 .01-3.34-.01-6.69 0-10.03 3.33 0 6.69.01 10.02 0 .01-3.34-.01-6.69 0-10.03h10.02z"/><path class="uuid-19fa360d-7f09-490d-b77f-aacda2d24b0d" d="M80.12 169.88v10.03H70.1v-10.03h10.02zM70.1 139.79c.01 3.34 0 6.69 0 10.03-3.33-.01-6.69 0-10.02 0-.01 3.34 0 6.69 0 10.03H50.06c0-3.34-.01-6.7 0-10.03 3.33-.01 6.69 0 10.02 0 .01-3.34-.01-6.69 0-10.03H70.1z"/></g></g></svg>