<svg id="uuid-bb1ac7a8-01df-4108-bee8-dcc87c66f472" data-name="Layer 2" xmlns="http://www.w3.org/2000/svg" viewBox="0 0 150 150"><defs><style>.uuid-2416a12d-a2c2-4adb-bfac-090af1d855b5{fill:#3d3d3d}.uuid-5c8c1ece-a283-4e8c-840c-84fc078e0722{fill:#8b8b8b}</style></defs><g id="uuid-545c413d-9f5b-48fe-a836-f47b2aeba685" data-name="Layer 1"><path style="fill:none" d="M0 0h150v150H0z"/><path class="uuid-2416a12d-a2c2-4adb-bfac-090af1d855b5" d="M29.92 20v10c3.32.01 6.65 0 9.97 0v20h9.97c.01-6.66-.02-13.34 0-20h9.97v10c0 6.66-.02 13.34 0 20 3.32.01 6.66 0 9.97 0 0 3.33-.01 6.67 0 10h9.97V60h9.97c0 3.33.01 6.67 0 10h-9.97c0 3.33-.01 6.67 0 10s0 6.67 0 10h9.97c0 3.33-.01 6.67 0 10 6.64 0 13.3.02 19.94 0v10H89.74c0-3.33.01-6.67 0-10-6.64 0-13.3.02-19.94 0v10c-9.96 0-19.95-.04-29.92 0v10h-9.97c-.01 3.33 0 6.67 0 10-6.64 0-13.3.02-19.94 0-.01-3.33.01-6.67 0-10H0v-10h9.97c0 3.33-.01 6.67 0 10h19.94c.01-3.33 0-6.67 0-10 3.32 0 6.66.01 9.97 0V90h9.97c.01 3.33 0 6.67 0 10 6.64 0 13.3-.02 19.95 0 0-6.66.02-13.34 0-20 0-3.33.01-6.67 0-10h-9.97c-.01-3.33 0-6.67 0-10-9.96-.04-19.95-.04-29.92 0v10c-3.32 0-6.65-.01-9.97 0-.01 3.33 0 6.67 0 10s.01 6.67 0 10H9.97c-.03-6.66.02-13.34 0-20 3.32 0 6.66.01 9.97 0 .01-3.33 0-6.67 0-10 3.32 0 6.66.01 9.97 0V30c-6.64-.03-13.3.02-19.94 0V20c6.64 0 13.3.02 19.95 0zM29.92 10c.01-3.33 0-6.67 0-10h19.94c0 3.33-.01 6.67 0 10 3.32.01 6.66 0 9.97 0 0 3.33-.01 6.67 0 10h9.97c.01-3.33 0-6.67 0-10h19.94v10H69.8c-.01 3.33.01 6.67 0 10h-9.97c0-3.33.01-6.67 0-10h-9.97c0-3.33.01-6.67 0-10-6.64-.02-13.3.02-19.94 0zM39.89 130c0 3.33.01 6.67 0 10h-9.97c-.01-3.33 0-6.67 0-10h9.97z"/><path class="uuid-2416a12d-a2c2-4adb-bfac-090af1d855b5" d="M79.78 110v10h29.92v10c3.32.01 6.66 0 9.97 0v10h-9.97c-.01-3.33 0-6.67 0-10-9.96-.04-19.95 0-29.92 0v-10h-9.97v-10h9.97zM49.86 70v10h-9.97v10h-9.97c-.01-3.33 0-6.67 0-10h9.97V70h9.97zM79.78 130c0 3.33.01 6.67 0 10h-9.97c-.01-3.33 0-6.67 0-10h9.97zM89.75 30c3.32.01 6.66 0 9.97 0v10h-9.97c0 3.33.01 6.67 0 10h-9.97V30c3.32 0 6.65-.01 9.97 0zM119.67 40c.02-6.66-.02-13.34 0-20h9.97v10h9.97c0 3.33-.01 6.67 0 10 3.46.01 6.93 0 10.39 0v10h-10.39c-.01-3.33.01-6.67 0-10-6.64-.02-13.3-.02-19.94 0-.01 3.33.01 6.67 0 10h-9.97c-.01 3.33 0 6.67 0 10-.02 6.66 0 13.34 0 20h9.97v10h-9.97V80h-9.97c-.01-3.33.01-6.67 0-10s0-6.67 0-10h-9.97c0-3.33-.01-6.67 0-10h19.94c.01-3.33 0-6.67 0-10 3.32 0 6.66.01 9.97 0z"/><path class="uuid-5c8c1ece-a283-4e8c-840c-84fc078e0722" d="M109.69 130c0 3.33-.01 6.67 0 10h9.97v10h-9.97c0-3.33.01-6.67 0-10H79.77c-.01 3.33 0 6.67 0 10H69.8c0-3.33.01-6.67 0-10h9.97c.01-3.33 0-6.67 0-10 9.96 0 19.95-.04 29.92 0zM89.75 100c.01 3.33 0 6.67 0 10h19.94v10H89.75v-10H69.81v-10c6.64.02 13.3 0 19.94 0zM9.97 120c.01 3.33-.01 6.67 0 10 6.64.02 13.3 0 19.94 0 0 3.33-.01 6.67 0 10h9.97c-.01 3.33 0 6.67 0 10h-9.97c0-3.33.01-6.67 0-10H9.96c0-3.33.01-6.67 0-10-3.32-.01-6.66 0-9.97 0v-10h9.97z"/><path class="uuid-5c8c1ece-a283-4e8c-840c-84fc078e0722" d="M69.81 110v10h9.97v10h-9.97v-10H39.89v10h-9.97c0-3.33-.01-6.67 0-10h9.97v-10c9.96-.04 19.95 0 29.92 0zM49.86 10c.01 3.33 0 6.67 0 10h9.97c.01 3.33 0 6.67 0 10h-9.97V20c-6.64 0-13.3-.02-19.94 0 0-3.33-.01-6.67 0-10 6.64.02 13.3-.02 19.94 0zM89.75 20v10c-3.32-.01-6.65 0-9.97 0h-9.97c-.01 3.33 0 6.67 0 10h-9.97V30h9.97c.01-3.33-.01-6.67 0-10h19.94zM139.61 40c.01 3.33-.01 6.67 0 10H150v10h-10.39c0-3.33.01-6.67 0-10h-19.94c-.01 3.33 0 6.67 0 10h-9.97c0-3.33-.01-6.68 0-10h9.97c.01-3.33-.01-6.67 0-10 6.64-.02 13.3-.02 19.94 0zM29.92 30v10H9.97V30c6.64.02 13.3-.03 19.94 0zM19.95 90c-.01 3.33 0 6.67 0 10H9.98c0-3.33.01-6.67 0-10h9.97zM39.89 90v10h-9.97c0-3.33.01-6.67 0-10h9.97zM49.86 80c0 3.33-.01 6.67 0 10h-9.97V80h9.97zM109.69 80v10h9.97v10c-3.32 0-6.66-.01-9.97 0V90h-9.97c0-3.33.01-6.67 0-10h9.97zM99.72 40v10h-9.97c.01-3.33 0-6.67 0-10h9.97zM89.75 50c-.01 3.33 0 6.67 0 10h-9.97V50h9.97zM89.75 60h9.97c0 3.33-.01 6.67 0 10h-9.97c-.01 3.33 0 6.67 0 10h-9.97c-.01-3.33 0-6.68 0-10h9.97c.01-3.33 0-6.67 0-10zM59.83 60c0 3.33-.01 6.67 0 10h9.97c.01 3.33 0 6.67 0 10h-9.97c0-3.33.01-6.67 0-10H29.92v10h-9.97c0-3.33-.01-6.67 0-10 3.32-.01 6.65 0 9.97 0V60c9.96-.04 19.95-.04 29.92 0z"/></g></svg>